<svg xmlns="http://www.w3.org/2000/svg" width="830" height="830" fill="none"><path fill="#fff" d="M0 0h830v830H0z"/><path fill="#000" d="M340.318 92h-4.943l7.532-21.818h5.945L356.373 92h-4.943l-5.465-16.832h-.171L340.318 92Zm-.308-8.576h11.676v3.6H340.01v-3.6Zm25.514 15.053c-1.47 0-2.73-.202-3.782-.607-1.044-.398-1.875-.941-2.492-1.63a5.005 5.005 0 0 1-1.204-2.322l4.197-.565c.128.327.33.632.607.916.277.284.643.511 1.098.682.461.178 1.022.266 1.683.266.987 0 1.8-.241 2.44-.724.646-.476.969-1.275.969-2.397v-2.994h-.192a4.31 4.31 0 0 1-.895 1.29c-.397.404-.909.734-1.534.99s-1.37.384-2.237.384c-1.229 0-2.347-.285-3.356-.853-1.001-.575-1.8-1.452-2.397-2.631-.589-1.186-.884-2.685-.884-4.496 0-1.853.302-3.402.906-4.645.603-1.243 1.406-2.173 2.407-2.79a6.223 6.223 0 0 1 3.313-.928c.917 0 1.684.156 2.302.469.617.305 1.115.689 1.491 1.15.384.455.678.903.884 1.343h.171v-2.749h4.506V92.16c0 1.392-.341 2.557-1.023 3.494-.681.938-1.626 1.64-2.833 2.11-1.201.475-2.582.713-4.145.713Zm.096-10.12c.732 0 1.35-.182 1.854-.544.511-.37.902-.895 1.172-1.576.277-.69.415-1.513.415-2.472 0-.959-.135-1.79-.404-2.493-.27-.71-.661-1.26-1.172-1.651-.512-.39-1.133-.586-1.865-.586-.745 0-1.374.202-1.885.607-.512.398-.899.952-1.162 1.662-.262.71-.394 1.53-.394 2.46 0 .946.132 1.762.394 2.451.27.682.657 1.211 1.162 1.588.511.369 1.14.553 1.885.553Zm18.974 3.963c-1.683 0-3.132-.341-4.347-1.023a7.01 7.01 0 0 1-2.791-2.92c-.653-1.263-.98-2.758-.98-4.484 0-1.683.327-3.16.98-4.432.654-1.271 1.573-2.262 2.759-2.972 1.194-.71 2.593-1.066 4.198-1.066 1.079 0 2.084.174 3.015.522a6.69 6.69 0 0 1 2.45 1.545c.703.689 1.25 1.556 1.641 2.6.39 1.036.586 2.25.586 3.643v1.246h-13.818v-2.812h9.546c0-.654-.142-1.232-.426-1.737a3.061 3.061 0 0 0-1.183-1.182c-.497-.291-1.076-.437-1.737-.437-.688 0-1.299.16-1.832.48a3.371 3.371 0 0 0-1.236 1.267 3.582 3.582 0 0 0-.458 1.758v2.674c0 .81.149 1.51.448 2.099.305.59.735 1.044 1.289 1.363.554.32 1.211.48 1.971.48.504 0 .966-.071 1.385-.213a2.881 2.881 0 0 0 1.076-.64c.298-.283.525-.632.681-1.043l4.198.276a5.727 5.727 0 0 1-1.311 2.642c-.653.746-1.498 1.329-2.535 1.748-1.03.412-2.22.618-3.569.618Zm17.501-.32V70.182h8.608c1.648 0 3.054.295 4.219.884 1.171.582 2.063 1.41 2.674 2.482.618 1.066.926 2.32.926 3.76 0 1.45-.312 2.696-.937 3.74-.625 1.037-1.531 1.833-2.717 2.387-1.179.554-2.606.83-4.282.83h-5.764v-3.707h5.018c.881 0 1.612-.12 2.195-.362.582-.242 1.015-.604 1.299-1.087.291-.483.437-1.083.437-1.8 0-.724-.146-1.335-.437-1.832-.284-.498-.721-.874-1.31-1.13-.582-.262-1.318-.394-2.205-.394h-3.111V92h-4.613Zm11.783-9.929L419.3 92h-5.092l-5.306-9.929h4.976Zm12.485 10.238c-1.044 0-1.974-.181-2.791-.543a4.493 4.493 0 0 1-1.939-1.63c-.468-.725-.703-1.627-.703-2.706 0-.91.167-1.673.501-2.29a4.056 4.056 0 0 1 1.363-1.492 6.62 6.62 0 0 1 1.961-.852 14.94 14.94 0 0 1 2.322-.405 60.18 60.18 0 0 0 2.301-.277c.583-.093 1.005-.228 1.268-.405.263-.178.394-.44.394-.788v-.065c0-.674-.213-1.196-.639-1.566-.419-.369-1.016-.553-1.79-.553-.817 0-1.466.18-1.949.543-.483.355-.803.802-.959 1.342l-4.198-.34c.213-.995.633-1.854 1.258-2.579.625-.731 1.431-1.293 2.418-1.683.994-.398 2.145-.597 3.452-.597.909 0 1.779.107 2.61.32a6.83 6.83 0 0 1 2.226.99 4.806 4.806 0 0 1 1.545 1.727c.376.696.565 1.53.565 2.503V92h-4.304v-2.27h-.128a4.628 4.628 0 0 1-1.055 1.354 4.88 4.88 0 0 1-1.587.905c-.618.213-1.332.32-2.142.32Zm1.3-3.132c.668 0 1.257-.132 1.769-.394a3.13 3.13 0 0 0 1.203-1.087c.292-.454.437-.97.437-1.545v-1.736a2.428 2.428 0 0 1-.586.255c-.241.072-.515.139-.82.203-.305.057-.611.11-.916.16-.306.042-.583.081-.831.117a5.618 5.618 0 0 0-1.396.373c-.398.17-.706.401-.927.692-.22.284-.33.64-.33 1.066 0 .617.224 1.09.671 1.416.455.32 1.03.48 1.726.48Zm15.975-6.637V92H439.1V75.636h4.325v2.887h.192a4.564 4.564 0 0 1 1.821-2.258c.853-.561 1.886-.842 3.1-.842 1.137 0 2.128.249 2.973.746.845.497 1.502 1.207 1.971 2.13.468.917.703 2.01.703 3.282V92h-4.539v-9.61c.008-1-.248-1.782-.767-2.343-.518-.568-1.232-.852-2.141-.852-.611 0-1.151.131-1.619.394a2.747 2.747 0 0 0-1.087 1.15c-.256.498-.387 1.098-.394 1.8Zm21.496 15.937c-1.47 0-2.731-.202-3.782-.607-1.044-.398-1.875-.941-2.493-1.63a5.015 5.015 0 0 1-1.204-2.322l4.198-.565c.127.327.33.632.607.916.277.284.643.511 1.097.682.462.178 1.023.266 1.683.266.988 0 1.801-.241 2.44-.724.646-.476.969-1.275.969-2.397v-2.994h-.191a4.31 4.31 0 0 1-.895 1.29c-.398.404-.909.734-1.534.99s-1.371.384-2.238.384c-1.228 0-2.347-.285-3.355-.853-1.002-.575-1.801-1.452-2.397-2.631-.59-1.186-.885-2.685-.885-4.496 0-1.853.302-3.402.906-4.645.604-1.243 1.406-2.173 2.408-2.79a6.22 6.22 0 0 1 3.313-.928c.916 0 1.683.156 2.301.469.618.305 1.115.689 1.491 1.15.384.455.679.903.885 1.343h.17v-2.749h4.507V92.16c0 1.392-.341 2.557-1.023 3.494-.682.938-1.627 1.64-2.834 2.11-1.2.475-2.582.713-4.144.713Zm.096-10.12c.731 0 1.349-.182 1.853-.544.512-.37.902-.895 1.172-1.576.277-.69.416-1.513.416-2.472 0-.959-.135-1.79-.405-2.493-.27-.71-.661-1.26-1.172-1.651-.511-.39-1.133-.586-1.864-.586-.746 0-1.375.202-1.886.607-.511.398-.898.952-1.161 1.662s-.394 1.53-.394 2.46c0 .946.131 1.762.394 2.451.27.682.657 1.211 1.161 1.588.511.369 1.14.553 1.886.553Zm18.973 3.963c-1.683 0-3.132-.341-4.346-1.023a6.998 6.998 0 0 1-2.791-2.92c-.654-1.263-.98-2.758-.98-4.484 0-1.683.326-3.16.98-4.432.653-1.271 1.573-2.262 2.759-2.972 1.193-.71 2.592-1.066 4.197-1.066 1.08 0 2.085.174 3.015.522a6.683 6.683 0 0 1 2.45 1.545c.704.689 1.25 1.556 1.641 2.6.391 1.036.586 2.25.586 3.643v1.246h-13.817v-2.812h9.545c0-.654-.142-1.232-.426-1.737a3.048 3.048 0 0 0-1.183-1.182c-.497-.291-1.076-.437-1.736-.437-.689 0-1.3.16-1.833.48a3.361 3.361 0 0 0-1.235 1.267 3.572 3.572 0 0 0-.458 1.758v2.674c0 .81.149 1.51.447 2.099.305.59.735 1.044 1.289 1.363.554.32 1.211.48 1.971.48.504 0 .966-.071 1.385-.213a2.873 2.873 0 0 0 1.076-.64c.298-.283.525-.632.682-1.043l4.197.276a5.735 5.735 0 0 1-1.31 2.642c-.654.746-1.499 1.329-2.536 1.748-1.03.412-2.219.618-3.569.618Zm-231.897 15.135h1.762v9.63c0 .995-.235 1.882-.704 2.664-.464.776-1.119 1.389-1.967 1.839-.847.445-1.842.668-2.983.668s-2.135-.223-2.983-.668c-.847-.45-1.505-1.063-1.974-1.839-.464-.782-.696-1.669-.696-2.664v-9.63h1.761v9.488c0 .71.156 1.343.469 1.896.312.55.757.983 1.335 1.3.582.313 1.279.469 2.088.469.81 0 1.506-.156 2.088-.469a3.286 3.286 0 0 0 1.335-1.3c.313-.553.469-1.186.469-1.896v-9.488Zm6.728 7.983V122h-1.676v-10.909h1.619v1.704h.142a3.115 3.115 0 0 1 1.165-1.335c.521-.341 1.193-.511 2.017-.511.739 0 1.385.151 1.939.454.554.299.985.753 1.292 1.364.308.606.462 1.373.462 2.301V122h-1.676v-6.818c0-.857-.223-1.525-.668-2.003-.445-.483-1.056-.724-1.832-.724-.535 0-1.013.116-1.435.348-.416.232-.745.57-.987 1.015-.241.445-.362.985-.362 1.62Zm14.142 6.789c-.909 0-1.711-.229-2.407-.689-.696-.464-1.241-1.117-1.634-1.96-.393-.847-.589-1.849-.589-3.004 0-1.146.196-2.14.589-2.983.393-.843.94-1.494 1.641-1.953.7-.459 1.51-.689 2.429-.689.71 0 1.271.118 1.683.355.417.232.734.497.952.795.222.294.395.535.518.725h.142v-5.369h1.676V122h-1.619v-1.676h-.199c-.123.199-.298.45-.526.753-.227.298-.551.566-.973.802-.421.232-.982.348-1.683.348Zm.228-1.505c.672 0 1.24-.176 1.704-.526.464-.355.817-.845 1.058-1.47.242-.63.363-1.357.363-2.181 0-.814-.119-1.527-.356-2.137-.236-.616-.587-1.094-1.051-1.435-.464-.346-1.037-.518-1.718-.518-.711 0-1.303.182-1.776.546-.469.36-.822.85-1.058 1.471-.232.615-.348 1.306-.348 2.073 0 .777.118 1.482.355 2.117.241.63.596 1.132 1.065 1.506.474.369 1.061.554 1.762.554Zm12.649 1.505c-1.051 0-1.958-.232-2.721-.696a4.677 4.677 0 0 1-1.754-1.96c-.407-.843-.611-1.823-.611-2.94 0-1.118.204-2.103.611-2.955.412-.857.985-1.524 1.719-2.003.739-.483 1.6-.724 2.585-.724.568 0 1.129.095 1.683.284a4.162 4.162 0 0 1 1.513.923c.455.422.817.98 1.087 1.676s.405 1.553.405 2.571v.711h-8.409v-1.449h6.704c0-.616-.123-1.165-.369-1.648a2.782 2.782 0 0 0-1.037-1.143c-.445-.28-.971-.419-1.577-.419-.667 0-1.245.165-1.733.497a3.272 3.272 0 0 0-1.115 1.278 3.762 3.762 0 0 0-.39 1.69v.966c0 .824.142 1.523.426 2.096a3.074 3.074 0 0 0 1.2 1.299c.511.294 1.106.441 1.783.441.44 0 .838-.062 1.193-.185.36-.128.67-.317.93-.568.261-.256.462-.573.604-.952l1.619.455a3.584 3.584 0 0 1-.859 1.448c-.403.412-.9.734-1.492.966-.591.228-1.257.341-1.995.341Zm7.066-.227v-10.909h1.62v1.648h.113c.199-.54.559-.978 1.08-1.314a3.18 3.18 0 0 1 1.761-.505c.123 0 .277.003.462.008.185.004.324.011.419.021v1.704a5.397 5.397 0 0 0-.391-.064 3.858 3.858 0 0 0-.632-.049 2.96 2.96 0 0 0-1.42.334c-.412.217-.739.52-.98.909a2.445 2.445 0 0 0-.355 1.314V122h-1.677Zm15.169-8.466-1.506.426a2.753 2.753 0 0 0-.419-.731 2.03 2.03 0 0 0-.738-.597c-.313-.156-.713-.234-1.201-.234-.667 0-1.223.154-1.669.461-.44.303-.66.689-.66 1.158 0 .417.151.746.454.987.303.242.777.443 1.421.604l1.619.398c.976.236 1.702.599 2.181 1.086.478.483.717 1.106.717 1.868 0 .625-.18 1.184-.54 1.676-.355.493-.852.881-1.491 1.165-.639.284-1.383.426-2.23.426-1.113 0-2.034-.241-2.763-.724-.729-.483-1.191-1.189-1.385-2.117l1.591-.397c.151.587.438 1.027.859 1.321.426.293.983.44 1.669.44.781 0 1.402-.166 1.861-.497.464-.336.696-.739.696-1.208 0-.378-.133-.696-.398-.951-.265-.261-.672-.455-1.221-.583l-1.818-.426c-1-.237-1.733-.603-2.202-1.101-.464-.502-.696-1.129-.696-1.882a2.7 2.7 0 0 1 .518-1.633c.351-.474.826-.845 1.428-1.115.606-.27 1.292-.405 2.059-.405 1.08 0 1.928.237 2.543.71a3.832 3.832 0 0 1 1.321 1.875Zm7.466-2.443v1.42h-5.653v-1.42h5.653Zm-4.005-2.614h1.676v10.398c0 .473.068.829.206 1.065.142.232.322.389.54.469.222.076.456.114.703.114.184 0 .336-.01.454-.029l.284-.056.341 1.505a3.37 3.37 0 0 1-.476.128 3.516 3.516 0 0 1-.774.071c-.473 0-.937-.102-1.392-.305a2.764 2.764 0 0 1-1.122-.931c-.294-.416-.44-.942-.44-1.576v-10.853Zm9.737 13.779a4.438 4.438 0 0 1-1.882-.391 3.23 3.23 0 0 1-1.343-1.143c-.331-.502-.497-1.108-.497-1.819 0-.625.123-1.131.37-1.519a2.61 2.61 0 0 1 .987-.924 5.21 5.21 0 0 1 1.363-.497 16.427 16.427 0 0 1 1.513-.27 72.791 72.791 0 0 1 1.612-.192c.417-.047.72-.125.91-.234.194-.109.291-.298.291-.568v-.057c0-.701-.192-1.245-.576-1.633-.378-.389-.954-.583-1.725-.583-.801 0-1.428.175-1.882.526-.455.35-.775.724-.959 1.122l-1.591-.568c.284-.663.663-1.179 1.136-1.549a4.259 4.259 0 0 1 1.563-.781 6.508 6.508 0 0 1 1.676-.227c.35 0 .753.042 1.207.128.459.08.902.248 1.328.504.431.256.789.642 1.073 1.158.284.516.426 1.207.426 2.073V122h-1.676v-1.477h-.085c-.114.236-.303.49-.569.76-.265.27-.618.499-1.058.689-.44.189-.978.284-1.612.284Zm.256-1.506c.662 0 1.221-.13 1.676-.391.459-.26.805-.596 1.037-1.008.236-.412.355-.845.355-1.3v-1.534c-.071.085-.228.163-.469.234a7.689 7.689 0 0 1-.824.178c-.308.047-.608.09-.902.128-.289.033-.523.061-.703.085a6.406 6.406 0 0 0-1.222.277c-.374.123-.677.31-.909.561-.227.246-.341.582-.341 1.009 0 .582.216 1.022.647 1.321.435.293.987.44 1.655.44Zm9.479-5.312V122h-1.676v-10.909h1.62v1.704h.142a3.113 3.113 0 0 1 1.164-1.335c.521-.341 1.194-.511 2.017-.511.739 0 1.385.151 1.939.454.554.299.985.753 1.293 1.364.308.606.462 1.373.462 2.301V122h-1.677v-6.818c0-.857-.222-1.525-.667-2.003-.445-.483-1.056-.724-1.833-.724-.535 0-1.013.116-1.434.348-.417.232-.746.57-.987 1.015-.242.445-.363.985-.363 1.62Zm14.143 6.789c-.909 0-1.712-.229-2.408-.689-.696-.464-1.24-1.117-1.633-1.96-.393-.847-.59-1.849-.59-3.004 0-1.146.197-2.14.59-2.983.393-.843.939-1.494 1.64-1.953.701-.459 1.511-.689 2.429-.689.71 0 1.271.118 1.683.355.417.232.734.497.952.795.223.294.395.535.519.725h.142v-5.369h1.676V122h-1.62v-1.676h-.198c-.124.199-.299.45-.526.753-.227.298-.552.566-.973.802-.421.232-.983.348-1.683.348Zm.227-1.505c.672 0 1.241-.176 1.705-.526.464-.355.816-.845 1.058-1.47.241-.63.362-1.357.362-2.181 0-.814-.118-1.527-.355-2.137-.237-.616-.587-1.094-1.051-1.435-.464-.346-1.037-.518-1.719-.518-.71 0-1.302.182-1.776.546-.468.36-.821.85-1.058 1.471-.232.615-.348 1.306-.348 2.073 0 .777.119 1.482.355 2.117.242.63.597 1.132 1.066 1.506.473.369 1.06.554 1.761.554Zm8.075 1.278v-10.909h1.676V122h-1.676Zm.853-12.727c-.327 0-.609-.112-.846-.334a1.073 1.073 0 0 1-.348-.803c0-.312.116-.58.348-.802.237-.223.519-.334.846-.334.326 0 .606.111.838.334.236.222.355.49.355.802 0 .313-.119.58-.355.803a1.17 1.17 0 0 1-.838.334Zm5.57 6.165V122h-1.677v-10.909h1.62v1.704h.142a3.109 3.109 0 0 1 1.165-1.335c.52-.341 1.193-.511 2.017-.511.738 0 1.385.151 1.938.454.554.299.985.753 1.293 1.364.308.606.462 1.373.462 2.301V122h-1.676v-6.818c0-.857-.223-1.525-.668-2.003-.445-.483-1.056-.724-1.832-.724-.535 0-1.014.116-1.435.348-.417.232-.746.57-.987 1.015-.242.445-.362.985-.362 1.62Zm14.426 10.88c-.81 0-1.506-.104-2.088-.312-.582-.204-1.068-.474-1.456-.81a4.417 4.417 0 0 1-.916-1.065l1.335-.938c.152.199.343.426.575.682.232.26.55.485.952.675.407.194.94.291 1.598.291.881 0 1.607-.213 2.18-.639.573-.426.86-1.094.86-2.003v-2.216h-.142a9.139 9.139 0 0 1-.526.739c-.222.288-.544.546-.966.774-.416.222-.98.334-1.69.334-.881 0-1.671-.209-2.372-.625-.696-.417-1.248-1.023-1.655-1.819-.403-.795-.604-1.761-.604-2.897 0-1.118.197-2.091.59-2.919.393-.834.94-1.478 1.64-1.932.701-.459 1.511-.689 2.429-.689.711 0 1.274.118 1.691.355.421.232.743.497.966.795.227.294.402.535.525.725h.171v-1.733h1.619v11.221c0 .938-.213 1.7-.639 2.287a3.64 3.64 0 0 1-1.705 1.3c-.71.28-1.501.419-2.372.419Zm-.057-5.994c.673 0 1.241-.154 1.705-.462.464-.308.817-.75 1.058-1.328.241-.578.362-1.269.362-2.074 0-.786-.118-1.479-.355-2.081-.237-.601-.587-1.072-1.051-1.413-.464-.341-1.037-.511-1.719-.511-.71 0-1.302.179-1.775.539-.469.36-.822.843-1.059 1.449-.232.606-.348 1.279-.348 2.017 0 .758.119 1.428.355 2.01.242.578.597 1.032 1.066 1.364.473.327 1.06.49 1.761.49Zm25.966-5.597c0 1.534-.277 2.86-.831 3.978-.554 1.117-1.314 1.979-2.28 2.585-.966.606-2.069.909-3.309.909-1.241 0-2.344-.303-3.31-.909-.966-.606-1.726-1.468-2.28-2.585-.554-1.118-.831-2.444-.831-3.978 0-1.534.277-2.86.831-3.977.554-1.117 1.314-1.979 2.28-2.585.966-.606 2.069-.909 3.31-.909 1.24 0 2.343.303 3.309.909.966.606 1.726 1.468 2.28 2.585.554 1.117.831 2.443.831 3.977Zm-1.704 0c0-1.259-.211-2.322-.633-3.189-.416-.866-.982-1.522-1.697-1.967a4.402 4.402 0 0 0-2.386-.668 4.44 4.44 0 0 0-2.394.668c-.71.445-1.276 1.101-1.697 1.967-.417.867-.625 1.93-.625 3.189 0 1.26.208 2.323.625 3.189.421.867.987 1.522 1.697 1.968a4.438 4.438 0 0 0 2.394.667c.88 0 1.676-.222 2.386-.667.715-.446 1.281-1.101 1.697-1.968.422-.866.633-1.929.633-3.189Zm11.313 2.813v-6.449h1.677V122h-1.677v-1.847h-.113a3.587 3.587 0 0 1-1.193 1.414c-.54.383-1.222.575-2.046.575-.682 0-1.288-.149-1.818-.447-.53-.303-.947-.758-1.25-1.364-.303-.611-.455-1.38-.455-2.308v-6.932h1.677v6.818c0 .796.222 1.43.667 1.903.45.474 1.023.711 1.719.711.417 0 .84-.107 1.271-.32.436-.213.8-.54 1.094-.98.298-.44.447-1.001.447-1.683Zm4.747 4.46v-10.909h1.619v1.648h.114c.198-.54.558-.978 1.079-1.314a3.18 3.18 0 0 1 1.761-.505c.124 0 .277.003.462.008.185.004.324.011.419.021v1.704a5.397 5.397 0 0 0-.391-.064 3.849 3.849 0 0 0-.632-.049c-.53 0-1.003.111-1.42.334-.412.217-.739.52-.98.909a2.445 2.445 0 0 0-.355 1.314V122h-1.676Zm13.89 0h-1.847l5.341-14.545h1.818L439.323 122h-1.846l-4.347-12.244h-.114L428.67 122Zm.682-5.682h7.443v1.563h-7.443v-1.563Zm18.885 1.222v-6.449h1.676V122h-1.676v-1.847h-.114a3.58 3.58 0 0 1-1.193 1.414c-.54.383-1.222.575-2.046.575-.681 0-1.288-.149-1.818-.447-.53-.303-.947-.758-1.25-1.364-.303-.611-.454-1.38-.454-2.308v-6.932h1.676v6.818c0 .796.222 1.43.667 1.903.45.474 1.023.711 1.719.711a2.85 2.85 0 0 0 1.271-.32c.436-.213.801-.54 1.094-.98.298-.44.448-1.001.448-1.683Zm8.865 4.687c-.909 0-1.712-.229-2.408-.689-.696-.464-1.24-1.117-1.633-1.96-.393-.847-.59-1.849-.59-3.004 0-1.146.197-2.14.59-2.983.393-.843.94-1.494 1.64-1.953.701-.459 1.511-.689 2.429-.689.711 0 1.272.118 1.684.355.416.232.734.497.951.795.223.294.396.535.519.725h.142v-5.369h1.676V122h-1.619v-1.676h-.199c-.123.199-.298.45-.526.753-.227.298-.551.566-.973.802-.421.232-.982.348-1.683.348Zm.227-1.505c.673 0 1.241-.176 1.705-.526.464-.355.817-.845 1.058-1.47.242-.63.362-1.357.362-2.181 0-.814-.118-1.527-.355-2.137-.237-.616-.587-1.094-1.051-1.435-.464-.346-1.037-.518-1.719-.518-.71 0-1.302.182-1.775.546-.469.36-.822.85-1.059 1.471-.232.615-.348 1.306-.348 2.073 0 .777.119 1.482.356 2.117.241.63.596 1.132 1.065 1.506.473.369 1.061.554 1.761.554Zm8.076 1.278v-10.909h1.676V122h-1.676Zm.852-12.727c-.327 0-.609-.112-.845-.334a1.073 1.073 0 0 1-.348-.803c0-.312.116-.58.348-.802.236-.223.518-.334.845-.334.327 0 .606.111.838.334.237.222.355.49.355.802 0 .313-.118.58-.355.803a1.169 1.169 0 0 1-.838.334Zm8.468 12.954c-1.052 0-1.958-.232-2.721-.696a4.677 4.677 0 0 1-1.754-1.96c-.407-.843-.611-1.823-.611-2.94 0-1.118.204-2.103.611-2.955.412-.857.985-1.524 1.719-2.003.738-.483 1.6-.724 2.585-.724.568 0 1.129.095 1.683.284a4.162 4.162 0 0 1 1.513.923c.455.422.817.98 1.087 1.676s.405 1.553.405 2.571v.711h-8.41v-1.449h6.705c0-.616-.123-1.165-.369-1.648a2.782 2.782 0 0 0-1.037-1.143c-.445-.28-.971-.419-1.577-.419-.668 0-1.245.165-1.733.497a3.264 3.264 0 0 0-1.115 1.278 3.762 3.762 0 0 0-.391 1.69v.966c0 .824.142 1.523.427 2.096a3.062 3.062 0 0 0 1.2 1.299c.511.294 1.105.441 1.783.441.44 0 .838-.062 1.193-.185.36-.128.67-.317.93-.568.261-.256.462-.573.604-.952l1.619.455a3.584 3.584 0 0 1-.859 1.448c-.403.412-.9.734-1.492.966-.592.228-1.257.341-1.995.341Zm8.742-6.789V122h-1.676v-10.909h1.62v1.704h.142a3.113 3.113 0 0 1 1.164-1.335c.521-.341 1.194-.511 2.017-.511.739 0 1.385.151 1.939.454.554.299.985.753 1.293 1.364.308.606.462 1.373.462 2.301V122h-1.676v-6.818c0-.857-.223-1.525-.668-2.003-.445-.483-1.056-.724-1.832-.724-.536 0-1.014.116-1.435.348-.417.232-.746.57-.987 1.015-.242.445-.363.985-.363 1.62Zm14.455 6.789c-1.022 0-1.903-.241-2.642-.724-.738-.483-1.307-1.148-1.704-1.996-.398-.847-.597-1.816-.597-2.905 0-1.108.204-2.085.611-2.933.412-.852.985-1.517 1.719-1.996.738-.483 1.6-.724 2.585-.724.767 0 1.458.142 2.074.426.615.284 1.12.682 1.513 1.193.393.512.636 1.108.731 1.79h-1.676c-.128-.497-.412-.938-.852-1.321-.436-.388-1.023-.582-1.762-.582-.653 0-1.226.17-1.718.511-.488.336-.869.812-1.144 1.427-.27.611-.405 1.329-.405 2.152 0 .843.133 1.577.398 2.202.27.625.649 1.11 1.136 1.456.493.346 1.07.519 1.733.519.436 0 .831-.076 1.186-.228a2.432 2.432 0 0 0 1.428-1.676h1.676a3.886 3.886 0 0 1-.703 1.74 3.92 3.92 0 0 1-1.47 1.222c-.606.298-1.312.447-2.117.447Zm11.314 0c-1.051 0-1.958-.232-2.72-.696a4.677 4.677 0 0 1-1.754-1.96c-.407-.843-.611-1.823-.611-2.94 0-1.118.204-2.103.611-2.955.412-.857.985-1.524 1.719-2.003.738-.483 1.6-.724 2.585-.724.568 0 1.129.095 1.683.284a4.17 4.17 0 0 1 1.513.923c.454.422.817.98 1.086 1.676.27.696.405 1.553.405 2.571v.711h-8.409v-1.449h6.705c0-.616-.123-1.165-.37-1.648a2.78 2.78 0 0 0-1.036-1.143c-.446-.28-.971-.419-1.577-.419-.668 0-1.245.165-1.733.497a3.264 3.264 0 0 0-1.115 1.278 3.75 3.75 0 0 0-.391 1.69v.966c0 .824.142 1.523.426 2.096a3.07 3.07 0 0 0 1.201 1.299c.511.294 1.105.441 1.782.441.441 0 .838-.062 1.193-.185.36-.128.67-.317.931-.568.26-.256.461-.573.604-.952l1.619.455a3.586 3.586 0 0 1-.86 1.448 4.18 4.18 0 0 1-1.491.966c-.592.228-1.257.341-1.996.341Zm12.919-.227v-14.545h1.676v5.369h.142c.124-.19.294-.431.512-.725.222-.298.54-.563.952-.795.416-.237.98-.355 1.69-.355.918 0 1.728.23 2.429.689.701.459 1.247 1.11 1.64 1.953.393.843.59 1.837.59 2.983 0 1.155-.197 2.157-.59 3.004-.393.843-.937 1.496-1.633 1.96-.696.46-1.499.689-2.408.689-.7 0-1.262-.116-1.683-.348-.421-.236-.746-.504-.973-.802a11.15 11.15 0 0 1-.526-.753h-.198V122h-1.62Zm1.648-5.455c0 .824.121 1.551.362 2.181.242.625.594 1.115 1.058 1.47.464.35 1.033.526 1.705.526.701 0 1.286-.185 1.754-.554.474-.374.829-.876 1.066-1.506.241-.635.362-1.34.362-2.117 0-.767-.119-1.458-.355-2.073-.232-.621-.585-1.111-1.059-1.471-.468-.364-1.058-.546-1.768-.546-.682 0-1.255.172-1.719.518-.464.341-.814.819-1.051 1.435-.237.61-.355 1.323-.355 2.137Zm11.236 9.546c-.284 0-.538-.024-.76-.071a1.997 1.997 0 0 1-.462-.128l.426-1.477c.408.104.767.142 1.08.113.312-.028.589-.168.831-.419.246-.246.471-.646.675-1.2l.312-.852-4.034-10.966h1.818l3.012 8.693h.113l3.012-8.693h1.818l-4.631 12.5c-.208.563-.466 1.03-.774 1.399a2.9 2.9 0 0 1-1.073.831c-.402.18-.857.27-1.363.27ZM551.541 122h-1.847l5.341-14.545h1.818L562.194 122h-1.846l-4.347-12.244h-.113L551.541 122Zm.682-5.682h7.443v1.563h-7.443v-1.563Zm16.413 10c-.81 0-1.506-.104-2.088-.312-.582-.204-1.068-.474-1.456-.81a4.44 4.44 0 0 1-.916-1.065l1.335-.938c.152.199.343.426.575.682.232.26.55.485.952.675.407.194.94.291 1.598.291.881 0 1.608-.213 2.181-.639.572-.426.859-1.094.859-2.003v-2.216h-.142a8.894 8.894 0 0 1-.526.739c-.222.288-.544.546-.966.774-.416.222-.98.334-1.69.334-.881 0-1.671-.209-2.372-.625-.696-.417-1.248-1.023-1.655-1.819-.402-.795-.604-1.761-.604-2.897 0-1.118.197-2.091.59-2.919.393-.834.94-1.478 1.64-1.932.701-.459 1.511-.689 2.429-.689.711 0 1.274.118 1.691.355.421.232.743.497.966.795.227.294.402.535.525.725h.171v-1.733h1.619v11.221c0 .938-.213 1.7-.639 2.287a3.64 3.64 0 0 1-1.705 1.3c-.71.28-1.501.419-2.372.419Zm-.057-5.994c.673 0 1.241-.154 1.705-.462.464-.308.817-.75 1.058-1.328.242-.578.362-1.269.362-2.074 0-.786-.118-1.479-.355-2.081-.237-.601-.587-1.072-1.051-1.413-.464-.341-1.037-.511-1.719-.511-.71 0-1.302.179-1.775.539-.469.36-.822.843-1.059 1.449-.232.606-.348 1.279-.348 2.017 0 .758.119 1.428.356 2.01.241.578.596 1.032 1.065 1.364.473.327 1.061.49 1.761.49Zm12.415 1.903c-1.051 0-1.958-.232-2.72-.696-.758-.469-1.342-1.122-1.754-1.96-.408-.843-.611-1.823-.611-2.94 0-1.118.203-2.103.611-2.955.412-.857.984-1.524 1.718-2.003.739-.483 1.601-.724 2.586-.724.568 0 1.129.095 1.683.284a4.17 4.17 0 0 1 1.513.923c.454.422.816.98 1.086 1.676.27.696.405 1.553.405 2.571v.711h-8.409v-1.449h6.705c0-.616-.124-1.165-.37-1.648a2.775 2.775 0 0 0-1.037-1.143c-.445-.28-.97-.419-1.576-.419-.668 0-1.246.165-1.733.497a3.264 3.264 0 0 0-1.115 1.278 3.75 3.75 0 0 0-.391 1.69v.966c0 .824.142 1.523.426 2.096a3.074 3.074 0 0 0 1.2 1.299c.512.294 1.106.441 1.783.441.44 0 .838-.062 1.193-.185.36-.128.67-.317.931-.568.26-.256.461-.573.603-.952l1.62.455a3.586 3.586 0 0 1-.86 1.448 4.18 4.18 0 0 1-1.491.966c-.592.228-1.257.341-1.996.341Z"/><path fill="#E8E748" stroke="#fff" stroke-linejoin="round" stroke-width="2" d="M415.117 231a206.17 206.17 0 0 1 65.636 10.713L415.159 437.16 415.117 231Z"/><path fill="#5F8301" stroke="#fff" stroke-linejoin="round" stroke-width="2" d="M480.948 241.779a206.154 206.154 0 0 1 129.546 129.455 206.158 206.158 0 0 1-24.603 181.481L415.159 437.16l65.789-195.381Z"/><path fill="#642C87" stroke="#fff" stroke-linejoin="round" stroke-width="2" d="M585.775 552.886a206.159 206.159 0 0 1-236.387 79.662 206.162 206.162 0 0 1-140.095-206.393l205.866 11.005 170.616 115.726Z"/><path fill="#EF8F21" stroke="#fff" stroke-linejoin="round" stroke-width="2" d="M209.304 425.949A206.163 206.163 0 0 1 414.873 231l.286 206.16-205.855-11.211Z"/><path stroke="#E8E748" stroke-width="2" d="M464.455 193.672c-8.088 0-12.799 20.846-14.369 30.424l-1.57 9.577"/><path stroke="#5F8301" stroke-width="2" d="M664.606 355.795c-8.088 0-35.68 9.297-44.877 12.396l-9.198 3.099"/><path stroke="#2D99FE" stroke-width="1.618" d="M325.753 678.473c8.088 0 17.385-27.592 20.484-36.79l3.099-9.197"/><path stroke="#EF8F21" stroke-width="2" d="M231.926 252.216c8.088 0 28.112 21.138 34.786 28.184l6.675 7.046"/><path fill="#000" d="M477.373 183.039v14.545h-3.075v-11.626h-.086l-3.33 2.088v-2.727l3.6-2.28h2.891Zm8.883 14.744c-1.094 0-2.067-.177-2.919-.533-.847-.359-1.513-.849-1.996-1.47a3.34 3.34 0 0 1-.724-2.109c0-.606.137-1.163.412-1.669a3.696 3.696 0 0 1 1.136-1.271 3.753 3.753 0 0 1 1.605-.654v-.099c-.776-.157-1.406-.533-1.889-1.13a3.246 3.246 0 0 1-.724-2.095c0-.753.22-1.423.66-2.01.441-.592 1.044-1.056 1.811-1.392.772-.341 1.648-.511 2.628-.511.98 0 1.854.17 2.621.511.772.341 1.378.808 1.818 1.399.44.588.663 1.255.668 2.003-.005.8-.251 1.499-.739 2.095a3.18 3.18 0 0 1-1.875 1.13v.099c.582.095 1.11.313 1.584.654.478.336.857.759 1.136 1.271.284.506.429 1.063.433 1.669a3.371 3.371 0 0 1-.731 2.109c-.483.621-1.151 1.111-2.003 1.47-.847.356-1.818.533-2.912.533Zm0-2.258c.488 0 .914-.088 1.279-.263.364-.18.648-.426.852-.739a1.95 1.95 0 0 0 .312-1.094c0-.421-.106-.793-.319-1.115a2.203 2.203 0 0 0-.867-.767 2.69 2.69 0 0 0-1.257-.284c-.469 0-.888.095-1.257.284-.369.185-.66.441-.874.767a2.01 2.01 0 0 0-.312 1.115c0 .412.102.777.305 1.094.204.313.49.559.86.739.369.175.795.263 1.278.263Zm0-6.499c.407 0 .77-.083 1.087-.249.317-.165.566-.395.746-.689a1.91 1.91 0 0 0 .269-1.015c0-.379-.09-.71-.269-.994a1.854 1.854 0 0 0-.739-.675 2.3 2.3 0 0 0-1.094-.249c-.412 0-.776.083-1.094.249a1.838 1.838 0 0 0-.745.675 1.847 1.847 0 0 0-.263.994c0 .383.09.722.27 1.015.18.294.428.524.746.689.317.166.679.249 1.086.249Zm16.618.085v2.401h-10v-2.401h10Zm1.179 8.473v-2.216l5.177-4.794c.441-.426.81-.809 1.108-1.15.303-.341.533-.675.689-1.002.156-.331.235-.689.235-1.072 0-.426-.098-.793-.292-1.101a1.909 1.909 0 0 0-.795-.717 2.485 2.485 0 0 0-1.144-.256c-.445 0-.833.09-1.164.27-.332.18-.588.438-.767.774-.18.336-.27.736-.27 1.2h-2.919c0-.951.215-1.778.646-2.478.431-.701 1.035-1.243 1.811-1.627.777-.383 1.671-.575 2.685-.575 1.041 0 1.948.185 2.72.554.776.364 1.38.871 1.811 1.52.431.648.646 1.392.646 2.23 0 .549-.109 1.091-.326 1.626-.214.535-.595 1.13-1.144 1.783-.549.649-1.323 1.428-2.322 2.337l-2.124 2.081v.099h6.108v2.514h-10.369Zm12.065-2.557v-2.421l6.072-9.567h2.088v3.352h-1.236l-3.828 6.058v.114h8.63v2.464h-11.726Zm6.981 2.557v-3.295l.057-1.073v-10.177h2.884v14.545h-2.941Zm8.59-1.69a1.66 1.66 0 0 1-1.207-.497 1.647 1.647 0 0 1-.497-1.208c0-.464.166-.861.497-1.193a1.66 1.66 0 0 1 1.207-.497c.455 0 .853.166 1.194.497.341.332.511.729.511 1.193 0 .313-.081.599-.242.86a1.851 1.851 0 0 1-.617.618 1.635 1.635 0 0 1-.846.227Zm0-7.138a1.66 1.66 0 0 1-1.207-.497 1.645 1.645 0 0 1-.497-1.207c0-.464.166-.86.497-1.187a1.66 1.66 0 0 1 1.207-.497c.455 0 .853.166 1.194.497.341.327.511.723.511 1.187 0 .317-.081.606-.242.866a1.778 1.778 0 0 1-.617.611 1.635 1.635 0 0 1-.846.227Zm14.102 9.027c-1.004 0-1.899-.185-2.685-.554-.781-.369-1.401-.878-1.86-1.527-.46-.649-.699-1.392-.718-2.23h2.983c.033.563.27 1.02.71 1.371.441.35.964.525 1.57.525.483 0 .909-.106 1.278-.319a2.29 2.29 0 0 0 .874-.902c.213-.389.32-.834.32-1.335 0-.512-.109-.962-.327-1.35a2.31 2.31 0 0 0-.888-.909 2.614 2.614 0 0 0-1.3-.334c-.426 0-.84.088-1.243.263a2.25 2.25 0 0 0-.93.717l-2.734-.49.689-7.67h8.892v2.514h-6.357l-.376 3.643h.085c.256-.359.642-.658 1.158-.894a4.102 4.102 0 0 1 1.733-.356c.876 0 1.657.206 2.343.618a4.45 4.45 0 0 1 1.627 1.698c.397.715.594 1.539.589 2.471.005.98-.222 1.852-.682 2.614-.454.758-1.091 1.354-1.91 1.79-.815.431-1.761.646-2.841.646Zm8.906-.014a1.66 1.66 0 0 1-1.207-.497 1.657 1.657 0 0 1-.497-1.208c0-.464.165-.861.497-1.193a1.66 1.66 0 0 1 1.207-.497c.455 0 .852.166 1.193.497.341.332.512.729.512 1.193 0 .313-.081.599-.242.86a1.845 1.845 0 0 1-.618.618 1.629 1.629 0 0 1-.845.227Zm4.16-.185v-2.216l5.178-4.794c.44-.426.81-.809 1.108-1.15.303-.341.533-.675.689-1.002.156-.331.234-.689.234-1.072 0-.426-.097-.793-.291-1.101a1.909 1.909 0 0 0-.795-.717 2.491 2.491 0 0 0-1.144-.256c-.445 0-.833.09-1.165.27-.331.18-.587.438-.767.774-.18.336-.27.736-.27 1.2h-2.919c0-.951.216-1.778.647-2.478a4.317 4.317 0 0 1 1.811-1.627c.776-.383 1.671-.575 2.684-.575 1.042 0 1.949.185 2.721.554.776.364 1.38.871 1.811 1.52.431.648.646 1.392.646 2.23 0 .549-.109 1.091-.327 1.626-.213.535-.594 1.13-1.143 1.783-.549.649-1.324 1.428-2.323 2.337l-2.123 2.081v.099h6.108v2.514h-10.37Zm25.189-2.727v-.767c0-.582.123-1.118.369-1.605a2.918 2.918 0 0 1 1.087-1.179c.478-.298 1.06-.448 1.747-.448.696 0 1.28.147 1.754.441.478.293.838.686 1.08 1.179.246.487.369 1.025.369 1.612v.767c0 .582-.123 1.12-.369 1.612a2.883 2.883 0 0 1-1.087 1.172c-.478.298-1.061.447-1.747.447-.696 0-1.281-.149-1.755-.447a2.89 2.89 0 0 1-1.079-1.172 3.556 3.556 0 0 1-.369-1.612Zm2.066-.767v.767c0 .336.081.653.242.952.166.298.464.447.895.447s.724-.147.88-.44c.161-.294.242-.613.242-.959v-.767c0-.346-.076-.668-.227-.966-.152-.298-.45-.447-.895-.447-.426 0-.722.149-.888.447-.166.298-.249.62-.249.966Zm-9.531-7.557v-.767c0-.587.126-1.124.377-1.612.25-.493.613-.886 1.086-1.179.478-.294 1.056-.44 1.733-.44.701 0 1.288.146 1.761.44.474.293.834.686 1.08 1.179.246.488.369 1.025.369 1.612v.767c0 .587-.125 1.125-.376 1.612a2.864 2.864 0 0 1-1.087 1.172c-.473.289-1.056.433-1.747.433-.691 0-1.276-.146-1.754-.44a2.951 2.951 0 0 1-1.08-1.172 3.572 3.572 0 0 1-.362-1.605Zm2.081-.767v.767c0 .346.081.665.242.959.165.293.456.44.873.44.436 0 .732-.147.888-.44.161-.294.241-.613.241-.959v-.767c0-.346-.075-.668-.227-.966-.151-.298-.452-.447-.902-.447-.421 0-.712.151-.873.454a2.017 2.017 0 0 0-.242.959Zm-1.143 11.818 10-14.545h1.86l-10 14.545h-1.86Zm94.105 164.758v-2.216l5.178-4.794c.44-.426.81-.81 1.108-1.15.303-.341.533-.675.689-1.002.156-.331.234-.689.234-1.072 0-.426-.097-.793-.291-1.101a1.91 1.91 0 0 0-.795-.718 2.504 2.504 0 0 0-1.144-.255c-.445 0-.833.09-1.165.27-.331.18-.587.438-.767.774-.18.336-.27.736-.27 1.2h-2.919c0-.952.216-1.778.647-2.479a4.321 4.321 0 0 1 1.811-1.626c.776-.384 1.671-.575 2.684-.575 1.042 0 1.949.184 2.721.554.776.364 1.38.871 1.811 1.52.431.648.646 1.392.646 2.23 0 .549-.109 1.091-.327 1.626-.213.535-.594 1.129-1.143 1.783-.549.648-1.324 1.427-2.323 2.336l-2.123 2.081v.1h6.108v2.514h-10.37Zm17.911.199c-1.004 0-1.899-.185-2.685-.554-.781-.369-1.402-.878-1.861-1.527-.459-.649-.698-1.392-.717-2.23h2.983c.033.563.27 1.02.71 1.371.44.35.964.525 1.57.525.483 0 .909-.106 1.278-.319.374-.218.665-.519.874-.902.213-.389.319-.834.319-1.336 0-.511-.109-.961-.326-1.349a2.317 2.317 0 0 0-.888-.909 2.614 2.614 0 0 0-1.3-.334c-.426 0-.84.088-1.243.263-.398.175-.708.414-.93.717l-2.735-.49.689-7.67h8.892v2.514h-6.356l-.377 3.643h.086c.255-.36.641-.658 1.157-.895a4.12 4.12 0 0 1 1.733-.355c.876 0 1.657.206 2.344.618a4.44 4.44 0 0 1 1.626 1.698c.398.715.595 1.538.59 2.471.005.98-.223 1.852-.682 2.614a4.81 4.81 0 0 1-1.91 1.79c-.815.43-1.762.646-2.841.646Zm16.399-8.672v2.401h-10v-2.401h10Zm6.555 8.672c-1.06 0-2.005-.182-2.834-.547-.823-.369-1.475-.876-1.953-1.52-.473-.649-.717-1.397-.731-2.244h3.096c.019.355.135.667.348.937.218.265.507.471.867.618.36.147.764.22 1.214.22.469 0 .883-.082 1.243-.248a2.04 2.04 0 0 0 .845-.689c.204-.294.306-.632.306-1.016 0-.388-.109-.731-.327-1.03-.213-.303-.521-.539-.923-.71-.398-.17-.871-.255-1.421-.255h-1.356v-2.259h1.356c.464 0 .874-.08 1.229-.241.36-.161.639-.384.838-.668.199-.289.298-.625.298-1.009 0-.364-.087-.684-.262-.958a1.732 1.732 0 0 0-.725-.654 2.356 2.356 0 0 0-1.079-.234c-.417 0-.798.076-1.144.227a2.001 2.001 0 0 0-.831.632 1.673 1.673 0 0 0-.334.966h-2.947c.014-.838.253-1.577.717-2.216.464-.639 1.089-1.139 1.875-1.498.791-.365 1.683-.547 2.678-.547 1.004 0 1.882.182 2.635.547.753.364 1.337.857 1.754 1.477.421.615.63 1.307.625 2.074.005.814-.249 1.494-.76 2.038-.507.545-1.167.89-1.981 1.037v.114c1.07.137 1.884.509 2.443 1.115.563.601.843 1.354.838 2.258a3.547 3.547 0 0 1-.718 2.209c-.478.644-1.138 1.151-1.981 1.52-.843.369-1.809.554-2.898.554Zm7.587-2.756v-2.422l6.073-9.566h2.088v3.352h-1.236l-3.828 6.058v.114h8.629v2.464h-11.726Zm6.982 2.557v-3.295l.057-1.073v-10.177h2.883v14.545h-2.94Zm8.59-1.69a1.66 1.66 0 0 1-1.207-.497 1.644 1.644 0 0 1-.498-1.208c0-.464.166-.862.498-1.193a1.66 1.66 0 0 1 1.207-.497c.454 0 .852.166 1.193.497.341.331.511.729.511 1.193 0 .313-.08.599-.241.86a1.833 1.833 0 0 1-.618.617 1.623 1.623 0 0 1-.845.228Zm0-7.138a1.66 1.66 0 0 1-1.207-.497 1.644 1.644 0 0 1-.498-1.208c0-.464.166-.859.498-1.186a1.66 1.66 0 0 1 1.207-.497c.454 0 .852.166 1.193.497.341.327.511.722.511 1.186 0 .318-.08.606-.241.867a1.772 1.772 0 0 1-.618.611 1.631 1.631 0 0 1-.845.227Zm8.789 8.828v-2.216l5.178-4.794c.44-.426.809-.81 1.107-1.15a4.33 4.33 0 0 0 .689-1.002c.157-.331.235-.689.235-1.072 0-.426-.097-.793-.291-1.101a1.92 1.92 0 0 0-.796-.718 2.496 2.496 0 0 0-1.143-.255c-.445 0-.834.09-1.165.27-.332.18-.587.438-.767.774-.18.336-.27.736-.27 1.2h-2.919c0-.952.215-1.778.646-2.479a4.327 4.327 0 0 1 1.811-1.626c.777-.384 1.672-.575 2.685-.575 1.042 0 1.948.184 2.72.554.777.364 1.38.871 1.811 1.52.431.648.647 1.392.647 2.23 0 .549-.109 1.091-.327 1.626-.213.535-.594 1.129-1.144 1.783-.549.648-1.323 1.427-2.322 2.336l-2.124 2.081v.1h6.108v2.514h-10.369Zm17.86-14.744c.749 0 1.468.125 2.16.376a4.97 4.97 0 0 1 1.86 1.2c.55.55.983 1.279 1.3 2.188.322.904.485 2.015.49 3.331 0 1.236-.14 2.339-.419 3.31-.275.965-.67 1.787-1.186 2.464a5.182 5.182 0 0 1-1.868 1.548c-.729.351-1.543.526-2.443.526-.971 0-1.828-.187-2.571-.561a4.834 4.834 0 0 1-1.797-1.541 4.806 4.806 0 0 1-.817-2.202h3.033c.118.53.367.942.746 1.236.378.289.847.433 1.406.433.947 0 1.667-.412 2.159-1.236.492-.828.741-1.962.746-3.402h-.1a3.492 3.492 0 0 1-.88 1.101 4.11 4.11 0 0 1-1.272.703 4.533 4.533 0 0 1-1.512.249c-.858 0-1.622-.201-2.295-.604a4.323 4.323 0 0 1-1.59-1.662c-.389-.705-.583-1.51-.583-2.415-.005-.975.22-1.844.675-2.606a4.749 4.749 0 0 1 1.903-1.79c.819-.436 1.771-.651 2.855-.646Zm.022 2.414c-.478 0-.905.114-1.279.341a2.514 2.514 0 0 0-.88.917 2.544 2.544 0 0 0-.313 1.285c0 .478.104.909.313 1.293.213.379.502.682.866.909.369.222.791.334 1.264.334.355 0 .684-.067.988-.199a2.44 2.44 0 0 0 .788-.547c.227-.237.405-.509.533-.817a2.607 2.607 0 0 0-.135-2.244 2.493 2.493 0 0 0-.881-.923 2.342 2.342 0 0 0-1.264-.349Zm9.13 12.515c-.469 0-.872-.166-1.208-.497a1.663 1.663 0 0 1-.497-1.208c0-.464.166-.862.497-1.193a1.661 1.661 0 0 1 1.208-.497c.454 0 .852.166 1.193.497.341.331.511.729.511 1.193 0 .313-.08.599-.241.86a1.833 1.833 0 0 1-.618.617 1.625 1.625 0 0 1-.845.228Zm9.068.014c-1.061 0-2.006-.182-2.834-.547-.824-.369-1.475-.876-1.953-1.52-.474-.649-.718-1.397-.732-2.244h3.097c.019.355.135.667.348.937.217.265.506.471.866.618.36.147.765.22 1.215.22.468 0 .883-.082 1.243-.248.359-.166.641-.396.845-.689.203-.294.305-.632.305-1.016 0-.388-.109-.731-.327-1.03-.213-.303-.52-.539-.923-.71-.398-.17-.871-.255-1.42-.255h-1.357v-2.259h1.357c.464 0 .873-.08 1.228-.241.36-.161.64-.384.838-.668.199-.289.299-.625.299-1.009 0-.364-.088-.684-.263-.958a1.732 1.732 0 0 0-.725-.654 2.353 2.353 0 0 0-1.079-.234c-.417 0-.798.076-1.144.227a2.014 2.014 0 0 0-.831.632 1.665 1.665 0 0 0-.333.966h-2.948c.014-.838.254-1.577.718-2.216.464-.639 1.089-1.139 1.875-1.498.79-.365 1.683-.547 2.677-.547 1.004 0 1.882.182 2.635.547.753.364 1.338.857 1.754 1.477a3.54 3.54 0 0 1 .625 2.074c.005.814-.248 1.494-.76 2.038-.506.545-1.167.89-1.981 1.037v.114c1.07.137 1.884.509 2.443 1.115.563.601.843 1.354.838 2.258a3.547 3.547 0 0 1-.717 2.209c-.478.644-1.139 1.151-1.982 1.52s-1.808.554-2.897.554Zm20.397-2.926v-.767c0-.583.123-1.118.37-1.605a2.923 2.923 0 0 1 1.086-1.179c.478-.299 1.061-.448 1.747-.448.696 0 1.281.147 1.755.441.478.293.838.686 1.079 1.179.246.487.369 1.025.369 1.612v.767c0 .582-.123 1.12-.369 1.612a2.874 2.874 0 0 1-1.086 1.172c-.479.298-1.061.447-1.748.447-.696 0-1.28-.149-1.754-.447a2.89 2.89 0 0 1-1.079-1.172 3.543 3.543 0 0 1-.37-1.612Zm2.067-.767v.767c0 .336.08.653.241.951.166.299.464.448.895.448s.725-.147.881-.44c.161-.294.242-.614.242-.959v-.767c0-.346-.076-.668-.228-.966-.151-.298-.45-.448-.895-.448-.426 0-.722.15-.887.448-.166.298-.249.62-.249.966Zm-9.531-7.557v-.767c0-.587.125-1.125.376-1.612a2.918 2.918 0 0 1 1.087-1.179c.478-.294 1.056-.441 1.733-.441.701 0 1.288.147 1.761.441.474.293.833.686 1.08 1.179.246.487.369 1.025.369 1.612v.767a3.47 3.47 0 0 1-.376 1.612 2.883 2.883 0 0 1-1.087 1.172c-.474.289-1.056.433-1.747.433-.692 0-1.276-.147-1.754-.44a2.944 2.944 0 0 1-1.08-1.172 3.562 3.562 0 0 1-.362-1.605Zm2.081-.767v.767c0 .346.08.665.241.959.166.293.457.44.874.44.435 0 .731-.147.888-.44.161-.294.241-.613.241-.959v-.767c0-.346-.076-.668-.227-.966-.152-.298-.452-.447-.902-.447-.422 0-.713.151-.874.454a2.016 2.016 0 0 0-.241.959Zm-1.144 11.818 10-14.545h1.861l-10 14.545h-1.861ZM189.198 690.056c-1.061 0-2.005-.182-2.834-.547-.824-.369-1.475-.876-1.953-1.519-.473-.649-.717-1.397-.731-2.245h3.096c.019.355.135.668.348.938.218.265.507.471.867.618.359.146.764.22 1.214.22.469 0 .883-.083 1.243-.249.36-.166.642-.395.845-.689.204-.293.306-.632.306-1.015 0-.389-.109-.732-.327-1.03-.213-.303-.521-.54-.923-.71-.398-.171-.872-.256-1.421-.256h-1.356v-2.259h1.356c.464 0 .874-.08 1.229-.241.36-.161.639-.384.838-.668.199-.289.298-.625.298-1.008 0-.365-.087-.684-.263-.959a1.734 1.734 0 0 0-.724-.653c-.308-.157-.668-.235-1.08-.235-.416 0-.797.076-1.143.227a1.995 1.995 0 0 0-.831.633 1.66 1.66 0 0 0-.334.965h-2.947c.014-.838.253-1.576.717-2.215.464-.64 1.089-1.139 1.875-1.499.791-.365 1.683-.547 2.678-.547 1.003 0 1.882.182 2.635.547.752.365 1.337.857 1.754 1.477.421.616.63 1.307.625 2.074.005.815-.249 1.494-.76 2.038-.507.545-1.167.891-1.982 1.037v.114c1.07.137 1.885.509 2.444 1.115.563.601.842 1.354.838 2.259a3.553 3.553 0 0 1-.718 2.208c-.478.644-1.138 1.151-1.981 1.52-.843.37-1.809.554-2.898.554Zm13.12 0c-1.004 0-1.899-.184-2.685-.554-.781-.369-1.401-.878-1.861-1.527-.459-.648-.698-1.392-.717-2.23h2.983c.033.564.27 1.021.71 1.371.44.35.964.526 1.57.526a2.51 2.51 0 0 0 1.278-.32c.374-.218.665-.519.874-.902.213-.388.319-.833.319-1.335 0-.512-.109-.961-.326-1.35a2.31 2.31 0 0 0-.888-.909 2.614 2.614 0 0 0-1.3-.334c-.426 0-.84.088-1.243.263-.398.175-.708.414-.93.717l-2.735-.49.689-7.67h8.892v2.514h-6.356l-.377 3.644h.086c.255-.36.641-.659 1.157-.895a4.105 4.105 0 0 1 1.733-.355c.876 0 1.657.206 2.344.618a4.43 4.43 0 0 1 1.626 1.697c.398.715.595 1.539.59 2.472.005.98-.223 1.851-.682 2.613-.454.758-1.091 1.354-1.91 1.79-.815.431-1.762.646-2.841.646Zm16.399-8.672v2.401h-10v-2.401h10Zm6.491 8.672c-1.003 0-1.898-.184-2.684-.554-.782-.369-1.402-.878-1.861-1.527-.459-.648-.699-1.392-.717-2.23h2.983c.033.564.269 1.021.71 1.371.44.35.963.526 1.569.526.483 0 .909-.107 1.279-.32.374-.218.665-.519.873-.902.213-.388.32-.833.32-1.335 0-.512-.109-.961-.327-1.35a2.31 2.31 0 0 0-.888-.909 2.61 2.61 0 0 0-1.299-.334c-.426 0-.841.088-1.243.263a2.247 2.247 0 0 0-.931.717l-2.734-.49.689-7.67h8.892v2.514h-6.357l-.376 3.644h.085c.256-.36.642-.659 1.158-.895a4.105 4.105 0 0 1 1.733-.355c.876 0 1.657.206 2.344.618a4.445 4.445 0 0 1 1.626 1.697c.398.715.594 1.539.59 2.472.004.98-.223 1.851-.682 2.613a4.813 4.813 0 0 1-1.911 1.79c-.814.431-1.761.646-2.841.646Zm7.358-2.755v-2.422l6.073-9.567h2.088v3.352h-1.236l-3.828 6.058v.114h8.629v2.465h-11.726Zm6.982 2.556v-3.295l.057-1.072v-10.178h2.883v14.545h-2.94Zm8.59-1.69a1.66 1.66 0 0 1-1.207-.497 1.643 1.643 0 0 1-.498-1.207c0-.464.166-.862.498-1.194a1.66 1.66 0 0 1 1.207-.497c.455 0 .852.166 1.193.497.341.332.512.73.512 1.194 0 .312-.081.598-.242.859a1.827 1.827 0 0 1-.618.618 1.629 1.629 0 0 1-.845.227Zm0-7.138c-.469 0-.871-.165-1.207-.497a1.642 1.642 0 0 1-.498-1.207c0-.464.166-.86.498-1.186a1.655 1.655 0 0 1 1.207-.497c.455 0 .852.165 1.193.497.341.326.512.722.512 1.186 0 .317-.081.606-.242.866-.156.256-.362.46-.618.611a1.62 1.62 0 0 1-.845.227Zm8.569 6.272v-2.422l6.072-9.567h2.088v3.352h-1.235l-3.828 6.058v.114h8.629v2.465h-11.726Zm6.981 2.556v-3.295l.057-1.072v-10.178h2.884v14.545h-2.941Zm12.927-14.545v14.545h-3.076v-11.626h-.085l-3.331 2.088v-2.727l3.601-2.28h2.891Zm4.472 14.73a1.66 1.66 0 0 1-1.207-.497 1.657 1.657 0 0 1-.497-1.207c0-.464.165-.862.497-1.194a1.66 1.66 0 0 1 1.207-.497c.455 0 .853.166 1.193.497.341.332.512.73.512 1.194 0 .312-.081.598-.242.859a1.827 1.827 0 0 1-.618.618 1.629 1.629 0 0 1-.845.227Zm3.94-2.741v-2.422l6.073-9.567h2.088v3.352h-1.236l-3.828 6.058v.114h8.629v2.465h-11.726Zm6.982 2.556v-3.295l.057-1.072v-10.178h2.883v14.545h-2.94Zm19.384-2.727v-.767c0-.582.123-1.117.369-1.605a2.93 2.93 0 0 1 1.087-1.179c.478-.298 1.06-.447 1.747-.447.696 0 1.281.146 1.754.44.478.293.838.686 1.08 1.179.246.488.369 1.025.369 1.612v.767c0 .583-.123 1.12-.369 1.612a2.877 2.877 0 0 1-1.087 1.172c-.478.299-1.061.448-1.747.448-.696 0-1.281-.149-1.754-.448a2.88 2.88 0 0 1-1.08-1.172 3.553 3.553 0 0 1-.369-1.612Zm2.066-.767v.767c0 .336.081.654.242.952.166.298.464.447.895.447s.724-.146.88-.44c.161-.294.242-.613.242-.959v-.767c0-.346-.076-.668-.227-.966-.152-.298-.45-.447-.895-.447-.426 0-.722.149-.888.447-.166.298-.249.62-.249.966Zm-9.531-7.557v-.767c0-.587.126-1.124.377-1.612a2.935 2.935 0 0 1 1.086-1.179c.478-.294 1.056-.44 1.733-.44.701 0 1.288.146 1.762.44.473.294.833.687 1.079 1.179.246.488.369 1.025.369 1.612v.767c0 .587-.125 1.125-.376 1.613a2.867 2.867 0 0 1-1.087 1.171c-.473.289-1.056.434-1.747.434-.691 0-1.276-.147-1.754-.441a2.951 2.951 0 0 1-1.08-1.172 3.569 3.569 0 0 1-.362-1.605Zm2.081-.767v.767c0 .346.081.666.242.959.165.294.457.44.873.44.436 0 .732-.146.888-.44a1.96 1.96 0 0 0 .241-.959v-.767a2.1 2.1 0 0 0-.227-.966c-.151-.298-.452-.447-.902-.447-.421 0-.712.151-.873.454a2.017 2.017 0 0 0-.242.959Zm-1.143 11.818 10-14.545h1.86l-10 14.545h-1.86ZM124.49 259.016c-1.003 0-1.898-.185-2.684-.554-.782-.369-1.402-.878-1.861-1.527-.459-.649-.698-1.392-.717-2.23h2.983c.033.563.269 1.02.71 1.371.44.35.963.525 1.569.525.483 0 .909-.106 1.279-.319.374-.218.665-.519.873-.902.213-.389.32-.834.32-1.336 0-.511-.109-.961-.327-1.349a2.31 2.31 0 0 0-.888-.909 2.61 2.61 0 0 0-1.299-.334c-.426 0-.841.088-1.243.263a2.247 2.247 0 0 0-.931.717l-2.734-.49.689-7.67h8.892v2.514h-6.356l-.377 3.643h.085c.256-.36.642-.658 1.158-.895a4.12 4.12 0 0 1 1.733-.355c.876 0 1.657.206 2.344.618a4.455 4.455 0 0 1 1.626 1.698c.398.715.594 1.538.59 2.471.004.98-.223 1.851-.682 2.614a4.82 4.82 0 0 1-1.911 1.79c-.814.43-1.761.646-2.841.646Zm12.891 0c-1.004 0-1.899-.185-2.685-.554-.781-.369-1.401-.878-1.86-1.527-.46-.649-.699-1.392-.718-2.23h2.983c.033.563.27 1.02.71 1.371.441.35.964.525 1.57.525.483 0 .909-.106 1.278-.319a2.29 2.29 0 0 0 .874-.902c.213-.389.32-.834.32-1.336 0-.511-.109-.961-.327-1.349a2.31 2.31 0 0 0-.888-.909 2.614 2.614 0 0 0-1.3-.334c-.426 0-.84.088-1.243.263a2.25 2.25 0 0 0-.93.717l-2.734-.49.689-7.67h8.892v2.514h-6.357l-.376 3.643h.085c.256-.36.642-.658 1.158-.895a4.117 4.117 0 0 1 1.733-.355c.876 0 1.657.206 2.343.618a4.45 4.45 0 0 1 1.627 1.698c.397.715.594 1.538.589 2.471.005.98-.222 1.851-.682 2.614a4.81 4.81 0 0 1-1.91 1.79c-.814.43-1.761.646-2.841.646Zm11.925-2.415v-10.057h2.542v10.057h-2.542Zm-3.757-3.757v-2.543h10.056v2.543h-10.056Zm14.801 4.283c-.469 0-.871-.166-1.208-.497a1.647 1.647 0 0 1-.497-1.208c0-.464.166-.862.497-1.193a1.663 1.663 0 0 1 1.208-.497c.454 0 .852.166 1.193.497.341.331.511.729.511 1.193 0 .313-.08.599-.241.86a1.833 1.833 0 0 1-.618.617 1.623 1.623 0 0 1-.845.228Zm0-7.138c-.469 0-.871-.166-1.208-.497a1.647 1.647 0 0 1-.497-1.208c0-.464.166-.859.497-1.186a1.663 1.663 0 0 1 1.208-.497c.454 0 .852.166 1.193.497.341.327.511.722.511 1.186 0 .318-.08.606-.241.867a1.772 1.772 0 0 1-.618.611 1.631 1.631 0 0 1-.845.227Zm8.789 8.828v-2.216l5.177-4.794c.441-.426.81-.81 1.108-1.15.303-.341.533-.675.689-1.002.156-.331.235-.689.235-1.072 0-.426-.097-.793-.292-1.101a1.91 1.91 0 0 0-.795-.718 2.496 2.496 0 0 0-1.143-.255c-.446 0-.834.09-1.165.27-.332.18-.587.438-.767.774-.18.336-.27.736-.27 1.2h-2.919c0-.952.215-1.778.646-2.479a4.327 4.327 0 0 1 1.811-1.626c.777-.384 1.672-.575 2.685-.575 1.041 0 1.948.184 2.72.554.777.364 1.38.871 1.811 1.52.431.648.646 1.392.646 2.23 0 .549-.109 1.091-.326 1.626-.213.535-.595 1.129-1.144 1.783-.549.648-1.323 1.427-2.322 2.336l-2.124 2.081v.1h6.108v2.514h-10.369Zm12.065-2.557v-2.422l6.072-9.566h2.088v3.352h-1.235l-3.829 6.058v.114h8.63v2.464h-11.726Zm6.981 2.557v-3.295l.057-1.073v-10.177h2.884v14.545h-2.941Zm8.317.185a1.66 1.66 0 0 1-1.207-.497 1.659 1.659 0 0 1-.497-1.208c0-.464.165-.862.497-1.193a1.66 1.66 0 0 1 1.207-.497c.455 0 .852.166 1.193.497.341.331.512.729.512 1.193 0 .313-.081.599-.242.86a1.833 1.833 0 0 1-.618.617 1.62 1.62 0 0 1-.845.228Zm8.672-14.73v14.545h-3.075v-11.626h-.086l-3.331 2.088v-2.728l3.601-2.279h2.891Zm16.048 11.818v-.767c0-.583.123-1.118.369-1.605a2.918 2.918 0 0 1 1.087-1.179c.478-.299 1.06-.448 1.747-.448.696 0 1.28.147 1.754.441a2.81 2.81 0 0 1 1.079 1.178 3.52 3.52 0 0 1 .37 1.613v.767c0 .582-.123 1.12-.37 1.612a2.874 2.874 0 0 1-1.086 1.172c-.478.298-1.061.447-1.747.447-.696 0-1.281-.149-1.755-.447a2.89 2.89 0 0 1-1.079-1.172 3.556 3.556 0 0 1-.369-1.612Zm2.066-.767v.767c0 .336.081.653.242.951.166.299.464.448.895.448s.724-.147.88-.44c.161-.294.242-.614.242-.959v-.767c0-.346-.076-.668-.227-.966-.152-.299-.45-.448-.895-.448-.426 0-.722.149-.888.448-.166.298-.249.62-.249.966Zm-9.531-7.557v-.767c0-.587.126-1.125.376-1.612a2.925 2.925 0 0 1 1.087-1.179c.478-.294 1.056-.441 1.733-.441.701 0 1.288.147 1.761.441.474.293.834.686 1.08 1.179.246.487.369 1.025.369 1.612v.767a3.47 3.47 0 0 1-.376 1.612 2.877 2.877 0 0 1-1.087 1.172c-.473.289-1.056.433-1.747.433-.691 0-1.276-.147-1.754-.44a2.944 2.944 0 0 1-1.08-1.172 3.575 3.575 0 0 1-.362-1.605Zm2.081-.767v.767c0 .346.081.665.242.959.165.293.456.44.873.44.436 0 .732-.147.888-.44.161-.294.241-.613.241-.959v-.767c0-.346-.075-.668-.227-.966-.151-.298-.452-.448-.902-.448-.421 0-.713.152-.873.455a2.017 2.017 0 0 0-.242.959Zm-1.143 11.818 10-14.545h1.86l-10 14.545h-1.86Zm37.908 455.745v14.117h-2.984v-11.284h-.083l-3.233 2.027v-2.647l3.495-2.213h2.805Zm8.622 14.31c-1.062 0-2.006-.172-2.833-.517-.823-.349-1.468-.824-1.937-1.426a3.245 3.245 0 0 1-.703-2.048c0-.588.133-1.128.4-1.62a3.593 3.593 0 0 1 1.102-1.233 3.644 3.644 0 0 1 1.558-.635v-.096a3.061 3.061 0 0 1-1.833-1.096 3.151 3.151 0 0 1-.703-2.034c0-.73.213-1.38.641-1.95.427-.575 1.013-1.025 1.757-1.351.749-.331 1.6-.497 2.551-.497.951 0 1.799.166 2.543.497.749.331 1.338.783 1.765 1.358.427.569.643 1.217.648 1.943-.005.777-.244 1.455-.717 2.034a3.082 3.082 0 0 1-1.82 1.096v.096a3.571 3.571 0 0 1 1.537.635c.465.326.832.737 1.103 1.233.276.492.416 1.032.421 1.62a3.28 3.28 0 0 1-.71 2.048c-.469.602-1.117 1.077-1.944 1.426-.823.345-1.765.517-2.826.517Zm0-2.192c.473 0 .887-.085 1.241-.255a2.04 2.04 0 0 0 .827-.716c.202-.308.303-.662.303-1.062 0-.409-.103-.77-.31-1.082a2.14 2.14 0 0 0-.841-.745 2.62 2.62 0 0 0-1.22-.275c-.455 0-.862.092-1.22.275-.359.18-.641.428-.848.745a1.947 1.947 0 0 0-.303 1.082c0 .4.098.754.296 1.062.198.303.476.542.834.716.359.17.772.255 1.241.255Zm0-6.307c.395 0 .747-.08 1.054-.241.308-.161.55-.384.724-.669.175-.285.262-.613.262-.985a1.76 1.76 0 0 0-.979-1.62 2.23 2.23 0 0 0-1.061-.241c-.4 0-.754.08-1.062.241a1.771 1.771 0 0 0-.723.655 1.79 1.79 0 0 0-.256.965c0 .372.088.7.262.985.175.285.416.508.724.669.308.161.66.241 1.055.241Zm16.128.083v2.33h-9.706v-2.33h9.706Zm1.144 8.223v-2.15l5.025-4.653a19.08 19.08 0 0 0 1.076-1.117c.294-.331.517-.655.668-.972a2.4 2.4 0 0 0 .228-1.04c0-.414-.095-.77-.283-1.069a1.857 1.857 0 0 0-.772-.696 2.411 2.411 0 0 0-1.11-.248c-.432 0-.809.087-1.13.262-.322.174-.57.425-.745.751-.174.326-.262.715-.262 1.165h-2.833c0-.924.209-1.726.628-2.406a4.188 4.188 0 0 1 1.757-1.578c.754-.372 1.623-.559 2.606-.559 1.011 0 1.891.18 2.64.538.754.354 1.34.846 1.758 1.475.418.63.627 1.351.627 2.165 0 .533-.106 1.059-.317 1.578-.207.519-.577 1.096-1.11 1.73-.533.63-1.284 1.386-2.254 2.268l-2.061 2.02v.096h5.928v2.44h-10.064Zm11.71-2.481v-2.351l5.893-9.285h2.027v3.254h-1.199l-3.716 5.88v.11h8.375v2.392h-11.38Zm6.776 2.481v-3.198l.055-1.041v-9.878h2.798v14.117h-2.853Z"/><path fill="#E8E748" d="M233.994 721.003c0-5.361-4.345-9.706-9.705-9.706s-9.706 4.345-9.706 9.706c0 5.36 4.346 9.705 9.706 9.705 5.36 0 9.705-4.345 9.705-9.705Z"/><path fill="#000" d="M361.31 728.679v-2.15l5.025-4.653c.427-.414.785-.786 1.075-1.117.294-.331.517-.655.669-.972.151-.321.227-.668.227-1.04 0-.414-.094-.77-.283-1.069a1.851 1.851 0 0 0-.772-.696 2.41 2.41 0 0 0-1.109-.248c-.432 0-.809.087-1.131.262-.321.174-.57.425-.744.751-.175.326-.262.715-.262 1.165h-2.833c0-.924.209-1.726.627-2.406a4.185 4.185 0 0 1 1.758-1.578c.753-.372 1.622-.559 2.605-.559 1.011 0 1.891.18 2.64.538.754.354 1.34.846 1.758 1.475.418.63.627 1.351.627 2.165 0 .533-.105 1.059-.317 1.578-.206.519-.576 1.096-1.109 1.73-.534.63-1.285 1.386-2.255 2.268l-2.061 2.02v.096h5.929v2.44H361.31Zm17.382.193c-.974 0-1.843-.179-2.605-.537-.759-.359-1.361-.853-1.806-1.482-.446-.63-.678-1.351-.697-2.165h2.896c.032.547.261.991.689 1.331.427.34.935.51 1.523.51.469 0 .883-.104 1.241-.31.363-.212.646-.504.848-.876.207-.377.31-.809.31-1.296 0-.496-.106-.933-.317-1.309a2.246 2.246 0 0 0-.862-.883 2.542 2.542 0 0 0-1.261-.324c-.414 0-.816.085-1.206.255-.386.17-.687.402-.903.697l-2.654-.476.668-7.445h8.631v2.441h-6.17l-.365 3.536h.083c.248-.35.622-.639 1.123-.869a3.986 3.986 0 0 1 1.682-.344c.85 0 1.608.199 2.275.599a4.32 4.32 0 0 1 1.578 1.648c.386.694.577 1.493.572 2.398.005.952-.216 1.797-.661 2.537a4.67 4.67 0 0 1-1.855 1.737c-.79.418-1.709.627-2.757.627Zm15.916-8.416v2.33h-9.705v-2.33h9.705Zm6.363 8.416c-1.03 0-1.946-.176-2.751-.53-.799-.359-1.431-.85-1.895-1.475-.46-.63-.696-1.356-.71-2.179h3.005c.019.345.131.648.338.91.211.258.492.457.841.6.349.142.742.214 1.179.214a2.85 2.85 0 0 0 1.206-.242c.349-.16.623-.383.82-.668.198-.285.297-.614.297-.986 0-.377-.106-.71-.318-.999-.206-.295-.505-.524-.896-.69-.386-.165-.845-.248-1.378-.248h-1.317v-2.192h1.317c.45 0 .848-.078 1.192-.234.35-.157.621-.373.814-.648.193-.281.289-.607.289-.979a1.695 1.695 0 0 0-.958-1.565 2.295 2.295 0 0 0-1.048-.227 2.74 2.74 0 0 0-1.11.22 1.942 1.942 0 0 0-.806.614c-.202.266-.31.579-.324.937h-2.861c.014-.813.246-1.53.697-2.15.45-.621 1.057-1.106 1.819-1.455.768-.354 1.634-.531 2.599-.531.974 0 1.827.177 2.557.531.731.354 1.299.832 1.703 1.434.409.597.611 1.268.607 2.013.004.79-.242 1.45-.738 1.978-.492.528-1.133.864-1.923 1.006v.111c1.038.133 1.829.494 2.371 1.082.547.584.818 1.314.813 2.192a3.441 3.441 0 0 1-.696 2.144c-.464.625-1.105 1.116-1.923 1.475-.818.358-1.755.537-2.812.537Zm7.363-2.674v-2.351l5.894-9.285h2.026v3.254h-1.199l-3.715 5.88v.11h8.375v2.392h-11.381Zm6.776 2.481v-3.198l.055-1.041v-9.878h2.799v14.117h-2.854Z"/><path fill="#5F8301" d="M348.842 721.003c0-5.361-4.345-9.706-9.705-9.706s-9.706 4.345-9.706 9.706c0 5.36 4.346 9.705 9.706 9.705 5.36 0 9.705-4.345 9.705-9.705Z"/><path fill="#000" d="M481.376 728.872c-1.03 0-1.947-.176-2.751-.53-.799-.359-1.431-.85-1.895-1.475-.46-.63-.697-1.356-.71-2.179h3.005c.018.345.131.648.338.91.211.258.492.457.841.6.349.142.742.214 1.178.214.455 0 .858-.081 1.207-.242.349-.16.622-.383.82-.668.198-.285.296-.614.296-.986 0-.377-.105-.71-.317-.999-.206-.295-.505-.524-.896-.69-.386-.165-.845-.248-1.378-.248h-1.317v-2.192h1.317c.45 0 .848-.078 1.192-.234.349-.157.621-.373.814-.648.193-.281.289-.607.289-.979a1.695 1.695 0 0 0-.958-1.565 2.295 2.295 0 0 0-1.048-.227 2.74 2.74 0 0 0-1.11.22 1.942 1.942 0 0 0-.806.614c-.202.266-.31.579-.324.937h-2.861c.014-.813.246-1.53.696-2.15.451-.621 1.057-1.106 1.82-1.455.768-.354 1.634-.531 2.599-.531.974 0 1.827.177 2.557.531.731.354 1.298.832 1.703 1.434.409.597.611 1.268.606 2.013.005.79-.241 1.45-.737 1.978-.492.528-1.133.864-1.923 1.006v.111c1.038.133 1.829.494 2.371 1.082.547.584.818 1.314.813 2.192a3.441 3.441 0 0 1-.696 2.144c-.464.625-1.105 1.116-1.923 1.475-.818.358-1.755.537-2.812.537Zm12.733 0c-.974 0-1.843-.179-2.606-.537-.758-.359-1.36-.853-1.806-1.482a3.81 3.81 0 0 1-.696-2.165h2.895c.032.547.262.991.689 1.331.428.34.936.51 1.524.51.469 0 .882-.104 1.241-.31.363-.212.645-.504.847-.876.207-.377.311-.809.311-1.296 0-.496-.106-.933-.317-1.309a2.246 2.246 0 0 0-.862-.883 2.545 2.545 0 0 0-1.262-.324c-.413 0-.815.085-1.206.255-.386.17-.687.402-.903.697l-2.654-.476.669-7.445h8.63v2.441h-6.169l-.366 3.536h.083c.248-.35.623-.639 1.124-.869a3.983 3.983 0 0 1 1.682-.344c.85 0 1.608.199 2.274.599.667.4 1.193.949 1.579 1.648.386.694.577 1.493.572 2.398.005.952-.216 1.797-.662 2.537a4.668 4.668 0 0 1-1.854 1.737c-.79.418-1.709.627-2.757.627Zm15.916-8.416v2.33h-9.705v-2.33h9.705Zm6.3 8.416c-.974 0-1.842-.179-2.605-.537-.759-.359-1.361-.853-1.806-1.482-.446-.63-.678-1.351-.697-2.165h2.896c.032.547.262.991.689 1.331.427.34.935.51 1.523.51.469 0 .883-.104 1.241-.31.363-.212.646-.504.848-.876.207-.377.31-.809.31-1.296 0-.496-.106-.933-.317-1.309a2.246 2.246 0 0 0-.862-.883 2.542 2.542 0 0 0-1.261-.324c-.414 0-.816.085-1.206.255-.386.17-.687.402-.903.697l-2.654-.476.668-7.445h8.631v2.441h-6.17l-.365 3.536h.083c.248-.35.622-.639 1.123-.869a3.986 3.986 0 0 1 1.682-.344c.85 0 1.608.199 2.275.599a4.32 4.32 0 0 1 1.578 1.648c.386.694.577 1.493.572 2.398.005.952-.216 1.797-.661 2.537a4.67 4.67 0 0 1-1.855 1.737c-.79.418-1.709.627-2.757.627Zm7.141-2.674v-2.351l5.894-9.285h2.027v3.254h-1.2l-3.715 5.88v.11h8.375v2.392h-11.381Zm6.776 2.481v-3.198l.056-1.041v-9.878h2.798v14.117h-2.854Z"/><path fill="#642C87" d="M463.69 721.003c0-5.361-4.345-9.706-9.705-9.706s-9.706 4.345-9.706 9.706c0 5.36 4.346 9.705 9.706 9.705 5.36 0 9.705-4.345 9.705-9.705Z"/><path fill="#000" d="M596.162 728.872c-.975 0-1.843-.179-2.606-.537-.758-.359-1.36-.853-1.806-1.482-.446-.63-.678-1.351-.696-2.165h2.895c.032.547.262.991.689 1.331.428.34.935.51 1.524.51.468 0 .882-.104 1.24-.31.363-.212.646-.504.848-.876.207-.377.31-.809.31-1.296 0-.496-.105-.933-.317-1.309a2.25 2.25 0 0 0-.861-.883 2.545 2.545 0 0 0-1.262-.324c-.413 0-.815.085-1.206.255-.386.17-.687.402-.903.697l-2.654-.476.669-7.445h8.63v2.441h-6.169l-.366 3.536h.083c.248-.35.623-.639 1.123-.869a3.986 3.986 0 0 1 1.682-.344c.851 0 1.609.199 2.275.599.666.4 1.193.949 1.579 1.648.386.694.576 1.493.572 2.398.004.952-.216 1.797-.662 2.537a4.668 4.668 0 0 1-1.854 1.737c-.791.418-1.71.627-2.757.627Zm12.51 0c-.974 0-1.842-.179-2.605-.537-.758-.359-1.36-.853-1.806-1.482-.446-.63-.678-1.351-.696-2.165h2.895c.032.547.262.991.689 1.331.427.34.935.51 1.523.51.469 0 .883-.104 1.241-.31.363-.212.646-.504.848-.876.207-.377.31-.809.31-1.296 0-.496-.105-.933-.317-1.309a2.25 2.25 0 0 0-.861-.883 2.548 2.548 0 0 0-1.262-.324c-.413 0-.816.085-1.206.255-.386.17-.687.402-.903.697l-2.654-.476.669-7.445h8.63v2.441h-6.17l-.365 3.536h.083c.248-.35.623-.639 1.123-.869a3.986 3.986 0 0 1 1.682-.344c.85 0 1.609.199 2.275.599.666.4 1.193.949 1.579 1.648.386.694.576 1.493.572 2.398.004.952-.216 1.797-.662 2.537a4.668 4.668 0 0 1-1.854 1.737c-.791.418-1.71.627-2.758.627Zm11.574-2.343v-9.761h2.468v9.761h-2.468Zm-3.646-3.647v-2.467h9.76v2.467h-9.76Z"/><path fill="#EF8F21" d="M578.538 721.003c0-5.361-4.345-9.706-9.705-9.706s-9.706 4.345-9.706 9.706c0 5.36 4.346 9.705 9.706 9.705 5.36 0 9.705-4.345 9.705-9.705Z"/></svg>