<svg xmlns="http://www.w3.org/2000/svg" width="830" height="830" fill="none"><path fill="#fff" d="M0 0h830v830H0z"/><path stroke="#C9C9C9" stroke-width="1.092" d="M100.948 616.552h656.167m-656.167-60.876h656.167m-656.167-60.877h656.167m-656.167-59.79h656.167m-656.167-60.877h656.167m-656.167-61.964h656.167"/><path fill="#642C87" d="M249.781 362.718h-79.305v254.378h79.305V362.718Z"/><path fill="#5F8301" d="M469.228 440.988h-79.306v176.108h79.306V440.988Z"/><path fill="#EF8F21" d="M687.588 513.823h-79.305v103.273h79.305V513.823Z"/><path stroke="#000" stroke-width="1.092" d="M757.115 616.552H100.948V274"/><path fill="#000" d="M190.148 634.199h-1.762a3.641 3.641 0 0 0-.547-1.335 3.621 3.621 0 0 0-.937-.966 3.979 3.979 0 0 0-1.215-.597 4.835 4.835 0 0 0-1.392-.199c-.88 0-1.678.223-2.393.668-.71.445-1.276 1.101-1.698 1.967-.416.867-.625 1.93-.625 3.189 0 1.259.209 2.322.625 3.189.422.866.988 1.522 1.698 1.967a4.438 4.438 0 0 0 2.393.668c.483 0 .947-.066 1.392-.199.445-.133.85-.329 1.215-.589a3.726 3.726 0 0 0 1.484-2.309h1.762a5.88 5.88 0 0 1-.725 1.996 5.451 5.451 0 0 1-1.307 1.499 5.722 5.722 0 0 1-1.754.93 6.542 6.542 0 0 1-2.067.32c-1.24 0-2.343-.303-3.309-.909-.966-.607-1.726-1.468-2.28-2.586-.554-1.117-.831-2.443-.831-3.977 0-1.534.277-2.86.831-3.977.554-1.118 1.314-1.979 2.28-2.585.966-.607 2.069-.91 3.309-.91.734 0 1.423.107 2.067.32a5.636 5.636 0 0 1 1.754.938c.521.407.957.904 1.307 1.491.35.582.592 1.248.725 1.996Zm7.05 10.227c-.985 0-1.849-.234-2.592-.703-.739-.469-1.316-1.125-1.733-1.967-.412-.843-.618-1.828-.618-2.955 0-1.136.206-2.128.618-2.976.417-.847.994-1.506 1.733-1.974.743-.469 1.607-.703 2.592-.703.985 0 1.847.234 2.586.703.743.468 1.321 1.127 1.733 1.974.416.848.625 1.84.625 2.976 0 1.127-.209 2.112-.625 2.955-.412.842-.99 1.498-1.733 1.967-.739.469-1.601.703-2.586.703Zm0-1.506c.748 0 1.364-.191 1.847-.575.483-.383.84-.888 1.072-1.513a5.791 5.791 0 0 0 .348-2.031c0-.729-.116-1.409-.348-2.038-.232-.63-.589-1.139-1.072-1.527-.483-.389-1.099-.583-1.847-.583s-1.363.194-1.846.583a3.433 3.433 0 0 0-1.073 1.527 5.847 5.847 0 0 0-.348 2.038c0 .729.116 1.406.348 2.031a3.39 3.39 0 0 0 1.073 1.513c.483.384 1.098.575 1.846.575Zm14.377-3.181v-6.449h1.676v10.909h-1.676v-1.847h-.114c-.255.554-.653 1.025-1.193 1.413-.539.384-1.221.576-2.045.576-.682 0-1.288-.149-1.818-.448-.531-.303-.947-.757-1.25-1.363-.303-.611-.455-1.381-.455-2.309v-6.931h1.676v6.818c0 .795.223 1.43.668 1.903.45.474 1.023.71 1.719.71.416 0 .84-.106 1.271-.319.436-.213.8-.54 1.094-.98.298-.441.447-1.002.447-1.683Zm4.746 4.46V633.29h1.62v1.647h.113c.199-.539.559-.977 1.08-1.314a3.179 3.179 0 0 1 1.761-.504c.123 0 .277.003.462.007.184.005.324.012.419.022v1.704a5.397 5.397 0 0 0-.391-.064 3.858 3.858 0 0 0-.632-.049 2.97 2.97 0 0 0-1.42.333 2.527 2.527 0 0 0-.981.909 2.459 2.459 0 0 0-.355 1.314v6.904h-1.676Zm15.169-8.466-1.506.426a2.773 2.773 0 0 0-.419-.732 2.037 2.037 0 0 0-.738-.596c-.313-.156-.713-.235-1.201-.235-.667 0-1.224.154-1.669.462-.44.303-.66.689-.66 1.158 0 .416.151.746.454.987.303.241.777.443 1.421.604l1.619.397c.975.237 1.702.599 2.18 1.087.479.483.718 1.106.718 1.868 0 .625-.18 1.184-.54 1.676-.355.493-.852.881-1.492 1.165-.639.284-1.382.426-2.23.426-1.112 0-2.033-.241-2.762-.724-.73-.483-1.191-1.189-1.385-2.117l1.591-.398c.151.587.438 1.028.859 1.321.426.294.982.441 1.669.441.781 0 1.401-.166 1.861-.497.464-.337.696-.739.696-1.208a1.27 1.27 0 0 0-.398-.952c-.265-.26-.672-.454-1.222-.582l-1.818-.426c-.999-.237-1.733-.604-2.201-1.101-.464-.502-.696-1.129-.696-1.882 0-.616.172-1.16.518-1.634.35-.473.826-.845 1.428-1.115.606-.269 1.292-.404 2.059-.404 1.08 0 1.927.236 2.543.71.62.473 1.06 1.098 1.321 1.875Zm7.296 8.693c-1.051 0-1.958-.232-2.72-.696a4.672 4.672 0 0 1-1.755-1.96c-.407-.843-.611-1.823-.611-2.941 0-1.117.204-2.102.611-2.954.412-.857.985-1.525 1.719-2.003.739-.483 1.6-.724 2.585-.724.568 0 1.129.094 1.683.284a4.162 4.162 0 0 1 1.513.923c.455.421.817.98 1.087 1.676s.405 1.553.405 2.571v.71h-8.409v-1.448h6.704c0-.616-.123-1.165-.369-1.648a2.79 2.79 0 0 0-1.037-1.144c-.445-.279-.971-.419-1.577-.419-.667 0-1.245.166-1.733.497a3.275 3.275 0 0 0-1.115 1.279 3.758 3.758 0 0 0-.39 1.69v.966c0 .824.142 1.522.426 2.095.289.568.689 1.002 1.2 1.3.511.294 1.106.44 1.783.44.44 0 .838-.061 1.193-.184.36-.128.67-.318.93-.569.261-.255.462-.572.604-.951l1.619.454a3.58 3.58 0 0 1-.859 1.449c-.403.412-.9.734-1.492.966-.591.227-1.257.341-1.995.341Zm-81.228 9.227v14.546h-1.761v-14.546h1.761Zm4.98 7.983v6.563h-1.676V657.29h1.62v1.704h.142a3.113 3.113 0 0 1 1.164-1.335c.521-.341 1.194-.511 2.017-.511.739 0 1.385.151 1.939.454.554.298.985.753 1.293 1.364.308.606.462 1.373.462 2.301v6.932h-1.677v-6.818c0-.857-.222-1.525-.667-2.003-.445-.483-1.056-.725-1.833-.725-.535 0-1.013.116-1.434.348a2.486 2.486 0 0 0-.987 1.016c-.242.445-.363.985-.363 1.619Zm14.881-4.346v1.42h-5.88v-1.42h5.88Zm-4.119 10.909v-12.415c0-.625.147-1.146.44-1.563a2.733 2.733 0 0 1 1.144-.937 3.619 3.619 0 0 1 1.484-.313c.412 0 .748.034 1.009.1.26.066.454.128.582.185l-.483 1.448a7.8 7.8 0 0 0-.355-.106 2.138 2.138 0 0 0-.582-.064c-.554 0-.954.14-1.201.419-.241.279-.362.689-.362 1.229v12.017H173.3Zm10.451.227c-.985 0-1.849-.234-2.592-.703-.739-.469-1.317-1.125-1.733-1.967-.412-.843-.618-1.828-.618-2.955 0-1.136.206-2.128.618-2.976.416-.847.994-1.506 1.733-1.974.743-.469 1.607-.703 2.592-.703.985 0 1.847.234 2.585.703.744.468 1.321 1.127 1.733 1.974.417.848.625 1.84.625 2.976 0 1.127-.208 2.112-.625 2.955-.412.842-.989 1.498-1.733 1.967-.738.469-1.6.703-2.585.703Zm0-1.506c.748 0 1.364-.191 1.847-.575.483-.383.84-.888 1.072-1.513a5.791 5.791 0 0 0 .348-2.031c0-.729-.116-1.409-.348-2.038-.232-.63-.589-1.139-1.072-1.527-.483-.389-1.099-.583-1.847-.583s-1.364.194-1.847.583a3.44 3.44 0 0 0-1.072 1.527 5.847 5.847 0 0 0-.348 2.038c0 .729.116 1.406.348 2.031.232.625.59 1.13 1.072 1.513.483.384 1.099.575 1.847.575Zm7.502 1.279V657.29h1.619v1.647h.114c.199-.539.559-.977 1.079-1.314a3.18 3.18 0 0 1 1.762-.504c.123 0 .277.003.461.007.185.005.325.012.419.022v1.704a5.332 5.332 0 0 0-.39-.064 3.867 3.867 0 0 0-.632-.049c-.531 0-1.004.111-1.421.333a2.524 2.524 0 0 0-.98.909 2.45 2.45 0 0 0-.355 1.314v6.904h-1.676Zm7.441 0V657.29h1.62v1.704h.142a2.742 2.742 0 0 1 1.1-1.356c.507-.327 1.116-.49 1.826-.49.719 0 1.318.163 1.797.49.483.322.859.774 1.129 1.356h.114a3.173 3.173 0 0 1 1.257-1.342c.558-.336 1.228-.504 2.01-.504.975 0 1.773.305 2.393.916.62.606.93 1.55.93 2.834v7.301h-1.676v-7.301c0-.805-.22-1.381-.66-1.726-.441-.346-.959-.519-1.556-.519-.767 0-1.361.232-1.782.696-.422.46-.632 1.042-.632 1.747v7.103h-1.705v-7.472c0-.62-.201-1.12-.604-1.498-.402-.384-.921-.576-1.555-.576-.436 0-.843.116-1.222.348a2.628 2.628 0 0 0-.909.966c-.227.407-.341.879-.341 1.414v6.818h-1.676Zm20.593.255c-.691 0-1.318-.13-1.882-.39a3.23 3.23 0 0 1-1.342-1.144c-.332-.502-.497-1.108-.497-1.818 0-.625.123-1.131.369-1.52a2.6 2.6 0 0 1 .987-.923 5.18 5.18 0 0 1 1.364-.497 16.367 16.367 0 0 1 1.513-.27c.663-.085 1.2-.149 1.612-.192.417-.047.72-.125.909-.234.194-.109.291-.299.291-.568v-.057c0-.701-.192-1.245-.575-1.634-.379-.388-.954-.582-1.726-.582-.8 0-1.428.175-1.882.525-.455.351-.774.725-.959 1.123l-1.591-.569c.284-.662.663-1.179 1.137-1.548a4.262 4.262 0 0 1 1.562-.781 6.465 6.465 0 0 1 1.676-.227c.351 0 .753.042 1.208.127a3.87 3.87 0 0 1 1.328.505c.431.255.788.641 1.072 1.157.284.516.426 1.208.426 2.074v7.188h-1.676v-1.478h-.085c-.114.237-.303.491-.568.76-.265.27-.618.5-1.058.689-.441.19-.978.284-1.613.284Zm.256-1.505c.663 0 1.222-.13 1.676-.391.459-.26.805-.596 1.037-1.008a2.57 2.57 0 0 0 .355-1.3v-1.534c-.071.085-.227.163-.469.234a7.918 7.918 0 0 1-.823.178c-.308.047-.609.09-.902.128-.289.033-.524.061-.704.085a6.413 6.413 0 0 0-1.221.277c-.374.123-.677.31-.909.561-.228.246-.341.582-.341 1.008 0 .583.215 1.023.646 1.321.436.294.987.441 1.655.441Zm12.548-9.659v1.42h-5.653v-1.42h5.653Zm-4.006-2.614h1.676v10.398c0 .473.069.828.206 1.065.142.232.322.388.54.469.223.076.457.113.703.113.185 0 .336-.009.455-.028l.284-.057.341 1.506a3.41 3.41 0 0 1-.476.128 3.529 3.529 0 0 1-.774.071c-.474 0-.938-.102-1.392-.306a2.753 2.753 0 0 1-1.122-.93c-.294-.417-.441-.942-.441-1.577v-10.852Zm6.527 13.523V657.29h1.676v10.909h-1.676Zm.852-12.728c-.326 0-.608-.111-.845-.333a1.073 1.073 0 0 1-.348-.803c0-.312.116-.58.348-.802.237-.223.519-.334.845-.334.327 0 .607.111.839.334.236.222.355.49.355.802 0 .313-.119.58-.355.803a1.17 1.17 0 0 1-.839.333Zm8.326 12.955c-.985 0-1.849-.234-2.592-.703-.739-.469-1.316-1.125-1.733-1.967-.412-.843-.618-1.828-.618-2.955 0-1.136.206-2.128.618-2.976.417-.847.994-1.506 1.733-1.974.743-.469 1.607-.703 2.592-.703.985 0 1.847.234 2.585.703.744.468 1.321 1.127 1.733 1.974.417.848.625 1.84.625 2.976 0 1.127-.208 2.112-.625 2.955-.412.842-.989 1.498-1.733 1.967-.738.469-1.6.703-2.585.703Zm0-1.506c.748 0 1.364-.191 1.847-.575.483-.383.84-.888 1.072-1.513a5.791 5.791 0 0 0 .348-2.031c0-.729-.116-1.409-.348-2.038-.232-.63-.589-1.139-1.072-1.527-.483-.389-1.099-.583-1.847-.583s-1.364.194-1.846.583a3.433 3.433 0 0 0-1.073 1.527 5.847 5.847 0 0 0-.348 2.038c0 .729.116 1.406.348 2.031a3.39 3.39 0 0 0 1.073 1.513c.482.384 1.098.575 1.846.575Zm9.178-5.284v6.563h-1.676V657.29h1.619v1.704h.142a3.115 3.115 0 0 1 1.165-1.335c.521-.341 1.193-.511 2.017-.511.739 0 1.385.151 1.939.454.554.298.985.753 1.293 1.364.307.606.461 1.373.461 2.301v6.932h-1.676v-6.818c0-.857-.222-1.525-.667-2.003-.446-.483-1.056-.725-1.833-.725-.535 0-1.013.116-1.435.348a2.498 2.498 0 0 0-.987 1.016c-.241.445-.362.985-.362 1.619Zm11.245 6.676c-.351 0-.651-.125-.902-.376a1.232 1.232 0 0 1-.377-.902c0-.35.126-.651.377-.902s.551-.376.902-.376c.35 0 .651.125.902.376s.376.552.376.902c0 .232-.059.445-.177.639a1.33 1.33 0 0 1-.462.469c-.189.114-.403.17-.639.17Zm0-8.096a1.23 1.23 0 0 1-.902-.377 1.23 1.23 0 0 1-.377-.902c0-.35.126-.651.377-.902s.551-.376.902-.376c.35 0 .651.125.902.376s.376.552.376.902c0 .232-.059.445-.177.64-.114.194-.268.35-.462.468a1.215 1.215 0 0 1-.639.171Zm146.427-26.017h-1.762a3.641 3.641 0 0 0-.547-1.335 3.621 3.621 0 0 0-.937-.966 3.974 3.974 0 0 0-1.214-.597 4.847 4.847 0 0 0-1.393-.199c-.88 0-1.678.223-2.393.668-.71.445-1.276 1.101-1.697 1.967-.417.867-.625 1.93-.625 3.189 0 1.259.208 2.322.625 3.189.421.866.987 1.522 1.697 1.967a4.438 4.438 0 0 0 2.393.668c.483 0 .947-.066 1.393-.199a4.096 4.096 0 0 0 1.214-.589 3.726 3.726 0 0 0 1.484-2.309h1.762a5.86 5.86 0 0 1-.725 1.996 5.451 5.451 0 0 1-1.307 1.499 5.71 5.71 0 0 1-1.754.93 6.542 6.542 0 0 1-2.067.32c-1.24 0-2.343-.303-3.309-.909-.966-.607-1.726-1.468-2.28-2.586-.554-1.117-.831-2.443-.831-3.977 0-1.534.277-2.86.831-3.977.554-1.118 1.314-1.979 2.28-2.585.966-.607 2.069-.91 3.309-.91.734 0 1.423.107 2.067.32a5.625 5.625 0 0 1 1.754.938c.521.407.957.904 1.307 1.491.351.582.592 1.248.725 1.996Zm5.829 10.255c-.691 0-1.319-.13-1.882-.39a3.233 3.233 0 0 1-1.343-1.144c-.331-.502-.497-1.108-.497-1.818 0-.625.123-1.131.37-1.52a2.6 2.6 0 0 1 .987-.923 5.168 5.168 0 0 1 1.364-.497 16.346 16.346 0 0 1 1.512-.27 72.061 72.061 0 0 1 1.613-.192c.416-.047.719-.125.909-.234.194-.109.291-.299.291-.568v-.057c0-.701-.192-1.245-.575-1.634-.379-.388-.955-.582-1.726-.582-.801 0-1.428.175-1.882.525-.455.351-.775.725-.959 1.123l-1.591-.569c.284-.662.663-1.179 1.136-1.548a4.259 4.259 0 0 1 1.563-.781 6.465 6.465 0 0 1 1.676-.227c.35 0 .753.042 1.207.127.46.081.902.249 1.328.505.431.255.789.641 1.073 1.157.284.516.426 1.208.426 2.074v7.188h-1.676v-1.478h-.085c-.114.237-.303.491-.569.76-.265.27-.618.5-1.058.689-.44.19-.978.284-1.612.284Zm.256-1.505c.662 0 1.221-.13 1.676-.391.459-.26.805-.596 1.037-1.008a2.58 2.58 0 0 0 .355-1.3v-1.534c-.071.085-.227.163-.469.234a7.941 7.941 0 0 1-.824.178c-.308.047-.608.09-.902.128-.289.033-.523.061-.703.085a6.406 6.406 0 0 0-1.222.277c-.374.123-.677.31-.909.561-.227.246-.341.582-.341 1.008 0 .583.216 1.023.647 1.321.435.294.987.441 1.655.441Zm7.803 1.25V633.29h1.62v1.647h.113c.199-.539.559-.977 1.08-1.314a3.179 3.179 0 0 1 1.761-.504c.123 0 .277.003.462.007.184.005.324.012.419.022v1.704a5.397 5.397 0 0 0-.391-.064 3.858 3.858 0 0 0-.632-.049 2.97 2.97 0 0 0-1.42.333 2.527 2.527 0 0 0-.981.909 2.459 2.459 0 0 0-.355 1.314v6.904h-1.676Zm11.683.227c-1.051 0-1.957-.232-2.72-.696a4.677 4.677 0 0 1-1.754-1.96c-.407-.843-.611-1.823-.611-2.941 0-1.117.204-2.102.611-2.954.412-.857.985-1.525 1.719-2.003.738-.483 1.6-.724 2.585-.724.568 0 1.129.094 1.683.284a4.17 4.17 0 0 1 1.513.923c.455.421.817.98 1.087 1.676s.405 1.553.405 2.571v.71h-8.41v-1.448h6.705c0-.616-.123-1.165-.369-1.648a2.79 2.79 0 0 0-1.037-1.144c-.445-.279-.971-.419-1.577-.419-.668 0-1.245.166-1.733.497a3.267 3.267 0 0 0-1.115 1.279 3.76 3.76 0 0 0-.391 1.69v.966c0 .824.142 1.522.427 2.095a3.064 3.064 0 0 0 1.2 1.3c.511.294 1.105.44 1.782.44.441 0 .839-.061 1.194-.184.36-.128.67-.318.93-.569.26-.255.462-.572.604-.951l1.619.454a3.58 3.58 0 0 1-.859 1.449c-.403.412-.9.734-1.492.966-.592.227-1.257.341-1.996.341Zm11.641 0c-1.051 0-1.958-.232-2.72-.696-.758-.469-1.342-1.122-1.754-1.96-.408-.843-.611-1.823-.611-2.941 0-1.117.203-2.102.611-2.954.412-.857.985-1.525 1.718-2.003.739-.483 1.601-.724 2.586-.724.568 0 1.129.094 1.683.284a4.17 4.17 0 0 1 1.513.923c.454.421.816.98 1.086 1.676.27.696.405 1.553.405 2.571v.71h-8.409v-1.448h6.705c0-.616-.124-1.165-.37-1.648a2.784 2.784 0 0 0-1.037-1.144c-.445-.279-.97-.419-1.576-.419-.668 0-1.246.166-1.733.497a3.267 3.267 0 0 0-1.115 1.279 3.746 3.746 0 0 0-.391 1.69v.966c0 .824.142 1.522.426 2.095.289.568.689 1.002 1.2 1.3.512.294 1.106.44 1.783.44.44 0 .838-.061 1.193-.184.36-.128.67-.318.931-.569.26-.255.461-.572.603-.951l1.62.454a3.583 3.583 0 0 1-.86 1.449 4.18 4.18 0 0 1-1.491.966c-.592.227-1.257.341-1.996.341Zm7.067-.227V633.29h1.619v1.647h.114c.199-.539.559-.977 1.079-1.314a3.18 3.18 0 0 1 1.762-.504c.123 0 .277.003.461.007.185.005.325.012.419.022v1.704a5.332 5.332 0 0 0-.39-.064 3.867 3.867 0 0 0-.632-.049c-.531 0-1.004.111-1.421.333a2.524 2.524 0 0 0-.98.909 2.45 2.45 0 0 0-.355 1.314v6.904h-1.676Zm-79.9 24v-14.546h8.779v1.563h-7.017v4.915h6.562v1.562h-6.562v4.943h7.13v1.563h-8.892Zm12.976-10.909 2.614 4.46 2.613-4.46h1.932l-3.523 5.454 3.523 5.455h-1.932l-2.613-4.233-2.614 4.233h-1.932l3.466-5.455-3.466-5.454h1.932Zm9.551 15v-15h1.619v1.733h.199c.123-.19.294-.431.511-.725.223-.298.54-.563.952-.795.417-.237.98-.355 1.69-.355.919 0 1.729.229 2.429.689.701.459 1.248 1.11 1.641 1.953.393.842.589 1.837.589 2.983 0 1.155-.196 2.156-.589 3.004-.393.843-.937 1.496-1.634 1.96-.696.459-1.498.689-2.407.689-.701 0-1.262-.116-1.683-.348-.422-.237-.746-.504-.973-.803a10.706 10.706 0 0 1-.526-.752h-.142v5.767h-1.676Zm1.648-9.546c0 .824.12 1.551.362 2.181.241.625.594 1.115 1.058 1.47.464.35 1.032.525 1.705.525.7 0 1.285-.184 1.754-.554.473-.374.828-.876 1.065-1.505.242-.635.362-1.34.362-2.117 0-.767-.118-1.458-.355-2.074-.232-.62-.585-1.11-1.058-1.47-.469-.364-1.058-.547-1.768-.547-.682 0-1.255.173-1.719.519-.464.341-.815.819-1.051 1.434-.237.611-.355 1.324-.355 2.138Zm12.215-9.091v14.546h-1.676v-14.546h1.676Zm7.502 14.773c-.985 0-1.849-.234-2.592-.703-.739-.469-1.316-1.125-1.733-1.967-.412-.843-.618-1.828-.618-2.955 0-1.136.206-2.128.618-2.976.417-.847.994-1.506 1.733-1.974.743-.469 1.607-.703 2.592-.703.985 0 1.847.234 2.585.703.744.468 1.321 1.127 1.733 1.974.417.848.625 1.84.625 2.976 0 1.127-.208 2.112-.625 2.955-.412.842-.989 1.498-1.733 1.967-.738.469-1.6.703-2.585.703Zm0-1.506c.748 0 1.364-.191 1.847-.575.483-.383.84-.888 1.072-1.513a5.791 5.791 0 0 0 .348-2.031c0-.729-.116-1.409-.348-2.038-.232-.63-.589-1.139-1.072-1.527-.483-.389-1.099-.583-1.847-.583s-1.363.194-1.846.583a3.433 3.433 0 0 0-1.073 1.527 5.847 5.847 0 0 0-.348 2.038c0 .729.116 1.406.348 2.031a3.39 3.39 0 0 0 1.073 1.513c.483.384 1.098.575 1.846.575Zm7.502 1.279V657.29h1.619v1.647h.114c.199-.539.559-.977 1.079-1.314a3.18 3.18 0 0 1 1.762-.504c.123 0 .277.003.462.007.184.005.324.012.419.022v1.704a5.397 5.397 0 0 0-.391-.064 3.867 3.867 0 0 0-.632-.049c-.53 0-1.004.111-1.421.333a2.524 2.524 0 0 0-.98.909 2.459 2.459 0 0 0-.355 1.314v6.904h-1.676Zm10.652.255c-.692 0-1.319-.13-1.882-.39a3.233 3.233 0 0 1-1.343-1.144c-.331-.502-.497-1.108-.497-1.818 0-.625.123-1.131.369-1.52a2.61 2.61 0 0 1 .988-.923 5.174 5.174 0 0 1 1.363-.497 16.367 16.367 0 0 1 1.513-.27c.663-.085 1.2-.149 1.612-.192.417-.047.72-.125.909-.234.194-.109.291-.299.291-.568v-.057c0-.701-.191-1.245-.575-1.634-.379-.388-.954-.582-1.726-.582-.8 0-1.427.175-1.882.525-.454.351-.774.725-.959 1.123l-1.59-.569c.284-.662.662-1.179 1.136-1.548a4.262 4.262 0 0 1 1.562-.781 6.473 6.473 0 0 1 1.677-.227c.35 0 .752.042 1.207.127a3.87 3.87 0 0 1 1.328.505c.431.255.788.641 1.072 1.157.285.516.427 1.208.427 2.074v7.188h-1.677v-1.478h-.085c-.113.237-.303.491-.568.76-.265.27-.618.5-1.058.689-.44.19-.978.284-1.612.284Zm.255-1.505c.663 0 1.222-.13 1.676-.391.46-.26.805-.596 1.037-1.008a2.57 2.57 0 0 0 .355-1.3v-1.534c-.071.085-.227.163-.468.234a7.999 7.999 0 0 1-.824.178c-.308.047-.609.09-.902.128-.289.033-.523.061-.703.085a6.406 6.406 0 0 0-1.222.277c-.374.123-.677.31-.909.561-.227.246-.341.582-.341 1.008 0 .583.216 1.023.646 1.321.436.294.988.441 1.655.441Zm12.548-9.659v1.42h-5.653v-1.42h5.653Zm-4.005-2.614h1.676v10.398c0 .473.068.828.206 1.065.142.232.322.388.539.469.223.076.457.113.704.113.184 0 .336-.009.454-.028l.284-.057.341 1.506a3.41 3.41 0 0 1-.476.128 3.516 3.516 0 0 1-.774.071c-.473 0-.937-.102-1.392-.306a2.753 2.753 0 0 1-1.122-.93c-.294-.417-.44-.942-.44-1.577v-10.852Zm6.527 13.523V657.29h1.676v10.909h-1.676Zm.852-12.728c-.327 0-.609-.111-.845-.333a1.073 1.073 0 0 1-.348-.803c0-.312.116-.58.348-.802.236-.223.518-.334.845-.334.327 0 .606.111.838.334.237.222.355.49.355.802 0 .313-.118.58-.355.803a1.168 1.168 0 0 1-.838.333Zm8.325 12.955c-.984 0-1.848-.234-2.592-.703-.738-.469-1.316-1.125-1.733-1.967-.412-.843-.618-1.828-.618-2.955 0-1.136.206-2.128.618-2.976.417-.847.995-1.506 1.733-1.974.744-.469 1.608-.703 2.592-.703.985 0 1.847.234 2.586.703.743.468 1.321 1.127 1.733 1.974.416.848.625 1.84.625 2.976 0 1.127-.209 2.112-.625 2.955-.412.842-.99 1.498-1.733 1.967-.739.469-1.601.703-2.586.703Zm0-1.506c.749 0 1.364-.191 1.847-.575.483-.383.84-.888 1.073-1.513a5.791 5.791 0 0 0 .348-2.031c0-.729-.116-1.409-.348-2.038-.233-.63-.59-1.139-1.073-1.527-.483-.389-1.098-.583-1.847-.583-.748 0-1.363.194-1.846.583a3.433 3.433 0 0 0-1.073 1.527 5.847 5.847 0 0 0-.348 2.038c0 .729.116 1.406.348 2.031a3.39 3.39 0 0 0 1.073 1.513c.483.384 1.098.575 1.846.575Zm9.178-5.284v6.563h-1.676V657.29h1.62v1.704h.142a3.113 3.113 0 0 1 1.164-1.335c.521-.341 1.194-.511 2.017-.511.739 0 1.385.151 1.939.454.554.298.985.753 1.293 1.364.308.606.462 1.373.462 2.301v6.932h-1.677v-6.818c0-.857-.222-1.525-.667-2.003-.445-.483-1.056-.725-1.833-.725-.535 0-1.013.116-1.434.348a2.486 2.486 0 0 0-.987 1.016c-.242.445-.363.985-.363 1.619Zm11.245 6.676a1.23 1.23 0 0 1-.902-.376 1.23 1.23 0 0 1-.376-.902c0-.35.125-.651.376-.902a1.23 1.23 0 0 1 .902-.376c.35 0 .651.125.902.376s.376.552.376.902c0 .232-.059.445-.177.639a1.33 1.33 0 0 1-.462.469c-.189.114-.402.17-.639.17Zm0-8.096c-.35 0-.651-.126-.902-.377a1.229 1.229 0 0 1-.376-.902c0-.35.125-.651.376-.902a1.23 1.23 0 0 1 .902-.376c.35 0 .651.125.902.376s.376.552.376.902c0 .232-.059.445-.177.64-.114.194-.268.35-.462.468a1.213 1.213 0 0 1-.639.171Zm114.861-16.017v-14.546h4.915c1.136 0 2.069.194 2.798.583.729.383 1.269.911 1.62 1.583.35.673.525 1.437.525 2.295 0 .857-.175 1.616-.525 2.279-.351.663-.888 1.184-1.613 1.563-.724.374-1.65.561-2.777.561h-3.977v-1.591h3.921c.776 0 1.401-.114 1.875-.341.478-.227.823-.549 1.037-.966.217-.421.326-.923.326-1.505 0-.583-.109-1.092-.326-1.527-.218-.436-.566-.772-1.045-1.009-.478-.241-1.11-.362-1.896-.362h-3.096v12.983h-1.762Zm6.847-6.534 3.579 6.534h-2.045l-3.523-6.534h1.989Zm10.176 6.761c-1.052 0-1.958-.232-2.721-.696a4.677 4.677 0 0 1-1.754-1.96c-.407-.843-.611-1.823-.611-2.941 0-1.117.204-2.102.611-2.954.412-.857.985-1.525 1.719-2.003.739-.483 1.6-.724 2.585-.724.568 0 1.129.094 1.683.284a4.162 4.162 0 0 1 1.513.923c.455.421.817.98 1.087 1.676s.405 1.553.405 2.571v.71h-8.409v-1.448h6.704c0-.616-.123-1.165-.369-1.648a2.79 2.79 0 0 0-1.037-1.144c-.445-.279-.971-.419-1.577-.419-.667 0-1.245.166-1.733.497a3.275 3.275 0 0 0-1.115 1.279 3.76 3.76 0 0 0-.391 1.69v.966c0 .824.143 1.522.427 2.095a3.07 3.07 0 0 0 1.2 1.3c.511.294 1.105.44 1.783.44.44 0 .838-.061 1.193-.184.36-.128.67-.318.93-.569.261-.255.462-.572.604-.951l1.619.454a3.58 3.58 0 0 1-.859 1.449c-.403.412-.9.734-1.492.966-.592.227-1.257.341-1.995.341Zm14.794-8.693-1.506.426a2.801 2.801 0 0 0-.419-.732 2.033 2.033 0 0 0-.739-.596c-.312-.156-.712-.235-1.2-.235-.668 0-1.224.154-1.669.462-.44.303-.661.689-.661 1.158 0 .416.152.746.455.987.303.241.776.443 1.42.604l1.62.397c.975.237 1.702.599 2.18 1.087.478.483.717 1.106.717 1.868 0 .625-.179 1.184-.539 1.676-.355.493-.853.881-1.492 1.165-.639.284-1.382.426-2.23.426-1.113 0-2.034-.241-2.763-.724-.729-.483-1.19-1.189-1.385-2.117l1.591-.398c.152.587.438 1.028.86 1.321.426.294.982.441 1.669.441.781 0 1.401-.166 1.861-.497.464-.337.696-.739.696-1.208a1.27 1.27 0 0 0-.398-.952c-.265-.26-.673-.454-1.222-.582l-1.818-.426c-.999-.237-1.733-.604-2.202-1.101-.464-.502-.696-1.129-.696-1.882 0-.616.173-1.16.519-1.634.35-.473.826-.845 1.427-1.115.606-.269 1.293-.404 2.06-.404 1.08 0 1.927.236 2.543.71.62.473 1.06 1.098 1.321 1.875Zm7.153 8.693c-.984 0-1.849-.234-2.592-.703-.739-.469-1.316-1.125-1.733-1.967-.412-.843-.618-1.828-.618-2.955 0-1.136.206-2.128.618-2.976.417-.847.994-1.506 1.733-1.974.743-.469 1.608-.703 2.592-.703.985 0 1.847.234 2.586.703.743.468 1.321 1.127 1.733 1.974.416.848.625 1.84.625 2.976 0 1.127-.209 2.112-.625 2.955-.412.842-.99 1.498-1.733 1.967-.739.469-1.601.703-2.586.703Zm0-1.506c.748 0 1.364-.191 1.847-.575.483-.383.84-.888 1.072-1.513a5.791 5.791 0 0 0 .348-2.031c0-.729-.116-1.409-.348-2.038-.232-.63-.589-1.139-1.072-1.527-.483-.389-1.099-.583-1.847-.583s-1.363.194-1.846.583a3.433 3.433 0 0 0-1.073 1.527 5.847 5.847 0 0 0-.348 2.038c0 .729.116 1.406.348 2.031a3.39 3.39 0 0 0 1.073 1.513c.483.384 1.098.575 1.846.575Zm14.377-3.181v-6.449h1.676v10.909h-1.676v-1.847h-.113a3.579 3.579 0 0 1-1.194 1.413c-.539.384-1.221.576-2.045.576-.682 0-1.288-.149-1.818-.448-.531-.303-.947-.757-1.25-1.363-.303-.611-.455-1.381-.455-2.309v-6.931h1.676v6.818c0 .795.223 1.43.668 1.903.45.474 1.023.71 1.719.71.416 0 .84-.106 1.271-.319.436-.213.8-.54 1.094-.98.298-.441.447-1.002.447-1.683Zm4.746 4.46V633.29h1.62v1.647h.113c.199-.539.559-.977 1.08-1.314a3.179 3.179 0 0 1 1.761-.504c.123 0 .277.003.462.007.184.005.324.012.419.022v1.704a5.397 5.397 0 0 0-.391-.064 3.858 3.858 0 0 0-.632-.049 2.97 2.97 0 0 0-1.42.333 2.527 2.527 0 0 0-.981.909 2.459 2.459 0 0 0-.355 1.314v6.904h-1.676Zm11.541.227c-1.022 0-1.903-.241-2.642-.724-.738-.483-1.306-1.149-1.704-1.996-.398-.848-.597-1.816-.597-2.905 0-1.108.204-2.086.611-2.933.412-.853.985-1.518 1.719-1.996.738-.483 1.6-.724 2.585-.724.767 0 1.458.142 2.074.426.615.284 1.12.682 1.513 1.193.393.511.637 1.108.731 1.79h-1.676c-.128-.497-.412-.938-.852-1.321-.436-.389-1.023-.583-1.762-.583-.653 0-1.226.171-1.718.512-.488.336-.869.812-1.144 1.427-.27.611-.405 1.328-.405 2.152 0 .843.133 1.577.398 2.202.27.625.649 1.11 1.136 1.456.493.345 1.071.518 1.733.518a2.99 2.99 0 0 0 1.187-.227c.355-.151.655-.369.902-.653.246-.284.421-.625.525-1.023h1.676a3.874 3.874 0 0 1-.703 1.74 3.929 3.929 0 0 1-1.47 1.222c-.606.298-1.312.447-2.117.447Zm11.314 0c-1.051 0-1.957-.232-2.72-.696a4.677 4.677 0 0 1-1.754-1.96c-.407-.843-.611-1.823-.611-2.941 0-1.117.204-2.102.611-2.954.412-.857.985-1.525 1.719-2.003.738-.483 1.6-.724 2.585-.724.568 0 1.129.094 1.683.284a4.17 4.17 0 0 1 1.513.923c.454.421.817.98 1.087 1.676.269.696.404 1.553.404 2.571v.71h-8.409v-1.448h6.705c0-.616-.123-1.165-.369-1.648a2.797 2.797 0 0 0-1.037-1.144c-.445-.279-.971-.419-1.577-.419-.668 0-1.245.166-1.733.497a3.267 3.267 0 0 0-1.115 1.279 3.746 3.746 0 0 0-.391 1.69v.966c0 .824.142 1.522.426 2.095.289.568.689 1.002 1.201 1.3.511.294 1.105.44 1.782.44.441 0 .838-.061 1.194-.184a2.56 2.56 0 0 0 .93-.569c.26-.255.462-.572.604-.951l1.619.454a3.592 3.592 0 0 1-.859 1.449c-.403.412-.9.734-1.492.966-.592.227-1.257.341-1.996.341Zm14.794-8.693-1.505.426a2.83 2.83 0 0 0-.419-.732 2.033 2.033 0 0 0-.739-.596c-.312-.156-.713-.235-1.2-.235-.668 0-1.224.154-1.669.462-.441.303-.661.689-.661 1.158 0 .416.152.746.455.987.303.241.776.443 1.42.604l1.62.397c.975.237 1.702.599 2.18 1.087.478.483.717 1.106.717 1.868 0 .625-.18 1.184-.54 1.676-.355.493-.852.881-1.491 1.165-.639.284-1.383.426-2.23.426-1.113 0-2.034-.241-2.763-.724-.729-.483-1.191-1.189-1.385-2.117l1.591-.398c.152.587.438 1.028.859 1.321.427.294.983.441 1.669.441.782 0 1.402-.166 1.861-.497.464-.337.696-.739.696-1.208a1.27 1.27 0 0 0-.397-.952c-.266-.26-.673-.454-1.222-.582l-1.818-.426c-.999-.237-1.733-.604-2.202-1.101-.464-.502-.696-1.129-.696-1.882 0-.616.173-1.16.519-1.634.35-.473.826-.845 1.427-1.115.606-.269 1.293-.404 2.06-.404 1.079 0 1.927.236 2.542.71.621.473 1.061 1.098 1.321 1.875Zm7.864-6.762-4.687 17.415h-1.534l4.687-17.415h1.534Zm-136.315 29.228h-1.762a3.641 3.641 0 0 0-.547-1.335 3.621 3.621 0 0 0-.937-.966 3.968 3.968 0 0 0-1.215-.597 4.835 4.835 0 0 0-1.392-.199c-.88 0-1.678.223-2.393.668-.71.445-1.276 1.101-1.697 1.967-.417.867-.625 1.93-.625 3.189 0 1.259.208 2.322.625 3.189.421.866.987 1.522 1.697 1.967a4.438 4.438 0 0 0 2.393.668c.483 0 .947-.066 1.392-.199a4.09 4.09 0 0 0 1.215-.589 3.726 3.726 0 0 0 1.484-2.309h1.762a5.86 5.86 0 0 1-.725 1.996 5.451 5.451 0 0 1-1.307 1.499 5.71 5.71 0 0 1-1.754.93 6.542 6.542 0 0 1-2.067.32c-1.24 0-2.343-.303-3.309-.909-.966-.607-1.726-1.468-2.28-2.586-.554-1.117-.831-2.443-.831-3.977 0-1.534.277-2.86.831-3.977.554-1.118 1.314-1.979 2.28-2.585.966-.607 2.069-.91 3.309-.91.734 0 1.423.107 2.067.32a5.625 5.625 0 0 1 1.754.938c.521.407.957.904 1.307 1.491.351.582.592 1.248.725 1.996Zm7.05 10.227c-.984 0-1.848-.234-2.592-.703-.738-.469-1.316-1.125-1.733-1.967-.412-.843-.618-1.828-.618-2.955 0-1.136.206-2.128.618-2.976.417-.847.995-1.506 1.733-1.974.744-.469 1.608-.703 2.592-.703.985 0 1.847.234 2.586.703.743.468 1.321 1.127 1.733 1.974.416.848.625 1.84.625 2.976 0 1.127-.209 2.112-.625 2.955-.412.842-.99 1.498-1.733 1.967-.739.469-1.601.703-2.586.703Zm0-1.506c.749 0 1.364-.191 1.847-.575.483-.383.84-.888 1.073-1.513a5.791 5.791 0 0 0 .348-2.031c0-.729-.116-1.409-.348-2.038-.233-.63-.59-1.139-1.073-1.527-.483-.389-1.098-.583-1.847-.583-.748 0-1.363.194-1.846.583a3.433 3.433 0 0 0-1.073 1.527 5.847 5.847 0 0 0-.348 2.038c0 .729.116 1.406.348 2.031a3.39 3.39 0 0 0 1.073 1.513c.483.384 1.098.575 1.846.575Zm7.502 1.279V657.29h1.62v1.704h.142a2.742 2.742 0 0 1 1.1-1.356c.507-.327 1.116-.49 1.826-.49.719 0 1.318.163 1.797.49.483.322.859.774 1.129 1.356h.114a3.173 3.173 0 0 1 1.257-1.342c.558-.336 1.228-.504 2.01-.504.975 0 1.773.305 2.393.916.62.606.93 1.55.93 2.834v7.301h-1.676v-7.301c0-.805-.22-1.381-.66-1.726-.441-.346-.959-.519-1.556-.519-.767 0-1.361.232-1.782.696-.422.46-.632 1.042-.632 1.747v7.103h-1.705v-7.472c0-.62-.201-1.12-.604-1.498-.402-.384-.921-.576-1.555-.576-.436 0-.843.116-1.222.348a2.628 2.628 0 0 0-.909.966c-.227.407-.341.879-.341 1.414v6.818h-1.676Zm17.383 0V657.29h1.619v1.704h.142a2.75 2.75 0 0 1 1.101-1.356c.507-.327 1.115-.49 1.826-.49.719 0 1.318.163 1.796.49.483.322.86.774 1.13 1.356h.113a3.185 3.185 0 0 1 1.257-1.342c.559-.336 1.229-.504 2.01-.504.976 0 1.774.305 2.394.916.62.606.93 1.55.93 2.834v7.301h-1.676v-7.301c0-.805-.22-1.381-.66-1.726-.441-.346-.959-.519-1.556-.519-.767 0-1.361.232-1.782.696-.422.46-.633 1.042-.633 1.747v7.103h-1.704v-7.472c0-.62-.201-1.12-.604-1.498-.402-.384-.921-.576-1.555-.576-.436 0-.843.116-1.222.348a2.628 2.628 0 0 0-.909.966c-.227.407-.341.879-.341 1.414v6.818h-1.676Zm24.258-4.46v-6.449h1.676v10.909h-1.676v-1.847h-.114c-.255.554-.653 1.025-1.193 1.413-.54.384-1.222.576-2.045.576-.682 0-1.288-.149-1.819-.448-.53-.303-.947-.757-1.25-1.363-.303-.611-.454-1.381-.454-2.309v-6.931h1.676v6.818c0 .795.223 1.43.668 1.903.449.474 1.022.71 1.718.71.417 0 .841-.106 1.272-.319.435-.213.8-.54 1.093-.98.299-.441.448-1.002.448-1.683Zm6.422-2.103v6.563h-1.676V657.29h1.619v1.704h.142a3.115 3.115 0 0 1 1.165-1.335c.521-.341 1.193-.511 2.017-.511.739 0 1.385.151 1.939.454.554.298.985.753 1.293 1.364.307.606.461 1.373.461 2.301v6.932h-1.676v-6.818c0-.857-.222-1.525-.667-2.003-.445-.483-1.056-.725-1.833-.725-.535 0-1.013.116-1.434.348a2.494 2.494 0 0 0-.988 1.016c-.241.445-.362.985-.362 1.619Zm10.023 6.563V657.29h1.676v10.909h-1.676Zm.852-12.728c-.326 0-.608-.111-.845-.333a1.073 1.073 0 0 1-.348-.803c0-.312.116-.58.348-.802.237-.223.519-.334.845-.334.327 0 .607.111.839.334.236.222.355.49.355.802 0 .313-.119.58-.355.803a1.17 1.17 0 0 1-.839.333Zm8.639 1.819v1.42h-5.654v-1.42h5.654Zm-4.006-2.614h1.676v10.398c0 .473.069.828.206 1.065.142.232.322.388.54.469.222.076.457.113.703.113.185 0 .336-.009.454-.028l.285-.057.34 1.506a3.389 3.389 0 0 1-.475.128 3.533 3.533 0 0 1-.775.071c-.473 0-.937-.102-1.392-.306a2.766 2.766 0 0 1-1.122-.93c-.293-.417-.44-.942-.44-1.577v-10.852Zm7.606 17.614c-.284 0-.537-.024-.759-.071a2.05 2.05 0 0 1-.462-.128l.426-1.477c.407.104.767.142 1.08.113.312-.028.589-.168.831-.419.246-.246.471-.646.674-1.2l.313-.852-4.034-10.966h1.818l3.011 8.693h.114l3.011-8.693h1.818l-4.63 12.5c-.209.563-.467 1.029-.774 1.399a2.908 2.908 0 0 1-1.073.831c-.402.18-.857.27-1.364.27Zm23.861-15a2.23 2.23 0 0 0-1.037-1.676c-.606-.398-1.35-.597-2.231-.597-.643 0-1.207.104-1.69.312-.478.209-.852.495-1.122.86a2.06 2.06 0 0 0-.398 1.243c0 .388.093.722.277 1.001.19.275.431.504.725.689.293.18.601.329.923.447.322.114.618.206.888.277l1.477.398c.379.1.8.237 1.264.412.469.175.916.414 1.343.717.43.299.786.682 1.065 1.151.279.469.419 1.044.419 1.726a3.83 3.83 0 0 1-.618 2.131c-.407.634-1.004 1.138-1.79 1.512-.781.374-1.73.561-2.848.561-1.041 0-1.943-.168-2.706-.504-.757-.336-1.354-.805-1.789-1.406-.431-.601-.675-1.3-.732-2.095h1.818c.048.549.232 1.004.554 1.363.327.355.739.621 1.236.796.502.17 1.042.256 1.619.256.673 0 1.276-.109 1.811-.327.535-.223.959-.531 1.272-.923.312-.398.468-.862.468-1.393 0-.482-.135-.875-.404-1.179a2.963 2.963 0 0 0-1.066-.738c-.44-.19-.916-.355-1.427-.497l-1.79-.512c-1.136-.326-2.036-.793-2.699-1.399-.663-.606-.994-1.399-.994-2.379 0-.814.22-1.525.66-2.131.445-.611 1.042-1.084 1.79-1.42.753-.341 1.593-.512 2.521-.512.938 0 1.771.168 2.5.505.729.331 1.307.786 1.733 1.363a3.4 3.4 0 0 1 .682 1.968h-1.704Zm9.145 11.136c-1.051 0-1.957-.232-2.72-.696a4.677 4.677 0 0 1-1.754-1.96c-.407-.843-.611-1.823-.611-2.941 0-1.117.204-2.102.611-2.954.412-.857.985-1.525 1.719-2.003.738-.483 1.6-.724 2.585-.724.568 0 1.129.094 1.683.284a4.162 4.162 0 0 1 1.513.923c.455.421.817.98 1.087 1.676s.405 1.553.405 2.571v.71h-8.41v-1.448h6.705c0-.616-.123-1.165-.369-1.648a2.79 2.79 0 0 0-1.037-1.144c-.445-.279-.971-.419-1.577-.419-.668 0-1.245.166-1.733.497a3.267 3.267 0 0 0-1.115 1.279 3.76 3.76 0 0 0-.391 1.69v.966c0 .824.142 1.522.427 2.095a3.064 3.064 0 0 0 1.2 1.3c.511.294 1.105.44 1.782.44.441 0 .839-.061 1.194-.184.36-.128.67-.318.93-.569.26-.255.462-.572.604-.951l1.619.454a3.58 3.58 0 0 1-.859 1.449c-.403.412-.9.734-1.492.966-.592.227-1.257.341-1.996.341Zm7.067-.227V657.29h1.62v1.647h.113c.199-.539.559-.977 1.08-1.314a3.179 3.179 0 0 1 1.761-.504c.123 0 .277.003.462.007.184.005.324.012.419.022v1.704a5.397 5.397 0 0 0-.391-.064 3.858 3.858 0 0 0-.632-.049 2.97 2.97 0 0 0-1.42.333 2.527 2.527 0 0 0-.981.909 2.459 2.459 0 0 0-.355 1.314v6.904h-1.676Zm16.694-10.909-4.034 10.909H700.9l-4.035-10.909h1.819l3.011 8.693h.114l3.011-8.693h1.818Zm2.212 10.909V657.29h1.677v10.909h-1.677Zm.853-12.728c-.327 0-.609-.111-.845-.333a1.073 1.073 0 0 1-.348-.803c0-.312.116-.58.348-.802.236-.223.518-.334.845-.334.326 0 .606.111.838.334.237.222.355.49.355.802 0 .313-.118.58-.355.803a1.17 1.17 0 0 1-.838.333Zm8.325 12.955c-1.022 0-1.903-.241-2.642-.724-.738-.483-1.306-1.149-1.704-1.996-.398-.848-.597-1.816-.597-2.905 0-1.108.204-2.086.611-2.933.412-.853.985-1.518 1.719-1.996.738-.483 1.6-.724 2.585-.724.767 0 1.458.142 2.074.426.615.284 1.12.682 1.513 1.193.393.511.636 1.108.731 1.79h-1.676c-.128-.497-.412-.938-.852-1.321-.436-.389-1.023-.583-1.762-.583-.653 0-1.226.171-1.718.512-.488.336-.869.812-1.144 1.427-.27.611-.405 1.328-.405 2.152 0 .843.133 1.577.398 2.202.27.625.649 1.11 1.136 1.456.493.345 1.071.518 1.733.518.436 0 .831-.075 1.186-.227a2.432 2.432 0 0 0 1.428-1.676h1.676a3.886 3.886 0 0 1-.703 1.74 3.929 3.929 0 0 1-1.47 1.222c-.606.298-1.312.447-2.117.447Zm11.314 0c-1.051 0-1.958-.232-2.72-.696a4.677 4.677 0 0 1-1.754-1.96c-.407-.843-.611-1.823-.611-2.941 0-1.117.204-2.102.611-2.954.412-.857.985-1.525 1.719-2.003.738-.483 1.6-.724 2.585-.724.568 0 1.129.094 1.683.284a4.17 4.17 0 0 1 1.513.923c.454.421.817.98 1.087 1.676.269.696.404 1.553.404 2.571v.71h-8.409v-1.448h6.705c0-.616-.123-1.165-.369-1.648a2.797 2.797 0 0 0-1.037-1.144c-.445-.279-.971-.419-1.577-.419-.668 0-1.245.166-1.733.497a3.267 3.267 0 0 0-1.115 1.279 3.746 3.746 0 0 0-.391 1.69v.966c0 .824.142 1.522.426 2.095.289.568.689 1.002 1.201 1.3.511.294 1.105.44 1.782.44.441 0 .838-.061 1.194-.184.359-.128.669-.318.93-.569.26-.255.462-.572.604-.951l1.619.454a3.592 3.592 0 0 1-.859 1.449c-.403.412-.9.734-1.492.966-.592.227-1.257.341-1.996.341Zm14.794-8.693-1.505.426a2.83 2.83 0 0 0-.419-.732 2.033 2.033 0 0 0-.739-.596c-.312-.156-.713-.235-1.2-.235-.668 0-1.224.154-1.669.462-.441.303-.661.689-.661 1.158 0 .416.152.746.455.987.303.241.776.443 1.42.604l1.62.397c.975.237 1.702.599 2.18 1.087.478.483.717 1.106.717 1.868 0 .625-.18 1.184-.54 1.676-.355.493-.852.881-1.491 1.165-.639.284-1.383.426-2.23.426-1.113 0-2.034-.241-2.763-.724-.729-.483-1.191-1.189-1.385-2.117l1.591-.398c.152.587.438 1.028.859 1.321.427.294.983.441 1.669.441.782 0 1.402-.166 1.861-.497.464-.337.696-.739.696-1.208a1.27 1.27 0 0 0-.397-.952c-.266-.26-.673-.454-1.222-.582l-1.818-.426c-.999-.237-1.733-.604-2.202-1.101-.464-.502-.696-1.129-.696-1.882 0-.616.173-1.16.519-1.634.35-.473.826-.845 1.427-1.115.606-.269 1.293-.404 2.06-.404 1.079 0 1.927.236 2.542.71.621.473 1.061 1.098 1.321 1.875Z"/><path fill="#666" d="M87.228 627.27c-1.222-.005-2.273-.306-3.153-.902-.876-.597-1.551-1.461-2.025-2.593-.468-1.131-.7-2.492-.696-4.083 0-1.587.235-2.938.704-4.056.473-1.117 1.148-1.967 2.024-2.549.88-.588 1.93-.881 3.146-.881 1.217 0 2.263.293 3.14.881.88.587 1.557 1.439 2.03 2.556.474 1.113.708 2.462.704 4.049 0 1.595-.237 2.959-.71 4.091-.47 1.131-1.142 1.995-2.018 2.592-.876.597-1.924.895-3.146.895Zm0-2.55c.833 0 1.499-.419 1.996-1.257.497-.838.743-2.095.738-3.771 0-1.104-.113-2.022-.34-2.756-.223-.734-.54-1.286-.952-1.655a2.077 2.077 0 0 0-1.442-.554c-.829 0-1.491.414-1.989 1.243-.497.829-.748 2.069-.752 3.722 0 1.117.11 2.05.333 2.798.228.743.547 1.302.96 1.676.411.369.894.554 1.448.554Zm-9.16-71.315v14.545h-3.075v-11.626h-.086l-3.33 2.088v-2.727l3.6-2.28h2.89Zm9.16 14.865c-1.222-.005-2.273-.306-3.153-.902-.876-.597-1.551-1.461-2.025-2.593-.468-1.131-.7-2.492-.696-4.083 0-1.587.235-2.938.704-4.056.473-1.117 1.148-1.967 2.024-2.549.88-.588 1.93-.881 3.146-.881 1.217 0 2.263.293 3.14.881.88.587 1.557 1.439 2.03 2.556.474 1.113.708 2.462.704 4.049 0 1.595-.237 2.959-.71 4.091-.47 1.131-1.142 1.995-2.018 2.592-.876.597-1.924.895-3.146.895Zm0-2.55c.833 0 1.499-.419 1.996-1.257.497-.838.743-2.095.738-3.771 0-1.104-.113-2.022-.34-2.756-.223-.734-.54-1.286-.952-1.655a2.077 2.077 0 0 0-1.442-.554c-.829 0-1.491.414-1.989 1.243-.497.829-.748 2.069-.752 3.722 0 1.117.11 2.05.333 2.798.228.743.547 1.302.96 1.676.411.369.894.554 1.448.554Zm-18.301-58.77v-2.216l5.178-4.794a19.5 19.5 0 0 0 1.108-1.15c.303-.341.532-.675.689-1.002.156-.331.234-.689.234-1.072 0-.426-.097-.793-.291-1.101a1.903 1.903 0 0 0-.796-.717 2.486 2.486 0 0 0-1.143-.256c-.445 0-.833.09-1.165.27a1.86 1.86 0 0 0-.767.774c-.18.336-.27.736-.27 1.2h-2.919c0-.951.216-1.778.647-2.478.43-.701 1.034-1.243 1.81-1.627.777-.383 1.672-.575 2.685-.575 1.042 0 1.949.185 2.72.554.777.364 1.38.871 1.811 1.52.431.648.647 1.392.647 2.23 0 .549-.11 1.091-.327 1.626-.213.535-.594 1.13-1.143 1.783-.55.649-1.324 1.428-2.323 2.337l-2.123 2.081v.099h6.108v2.514h-10.37Zm18.301.32c-1.222-.005-2.273-.306-3.153-.902-.876-.597-1.551-1.461-2.025-2.593-.468-1.131-.7-2.492-.696-4.083 0-1.587.235-2.938.704-4.056.473-1.117 1.148-1.967 2.024-2.549.88-.588 1.93-.881 3.146-.881 1.217 0 2.263.293 3.14.881.88.587 1.557 1.439 2.03 2.556.474 1.113.708 2.462.704 4.049 0 1.595-.237 2.959-.71 4.091-.47 1.131-1.142 1.995-2.018 2.592-.876.597-1.924.895-3.146.895Zm0-2.55c.833 0 1.499-.419 1.996-1.257.497-.838.743-2.095.738-3.771 0-1.104-.113-2.022-.34-2.756-.223-.734-.54-1.286-.952-1.655a2.077 2.077 0 0 0-1.442-.554c-.829 0-1.491.414-1.989 1.243-.497.829-.748 2.069-.752 3.722 0 1.117.11 2.05.333 2.798.228.743.547 1.302.96 1.676.411.369.894.554 1.448.554Zm-13.51-58.571c-1.06 0-2.005-.182-2.834-.547-.824-.369-1.475-.876-1.953-1.52-.474-.648-.718-1.396-.732-2.244h3.097c.019.355.135.668.348.937.218.266.506.472.866.618.36.147.765.221 1.215.221.469 0 .883-.083 1.243-.249a2.04 2.04 0 0 0 .845-.689 1.74 1.74 0 0 0 .305-1.016c0-.388-.109-.731-.326-1.029-.213-.303-.521-.54-.924-.711-.397-.17-.87-.255-1.42-.255H72.09v-2.259h1.357c.464 0 .873-.08 1.229-.241.36-.161.639-.384.838-.668a1.74 1.74 0 0 0 .298-1.008c0-.365-.088-.685-.263-.959a1.737 1.737 0 0 0-.724-.654 2.358 2.358 0 0 0-1.08-.234c-.416 0-.798.076-1.143.227a2.005 2.005 0 0 0-.831.632 1.66 1.66 0 0 0-.334.966H68.49c.015-.838.254-1.576.718-2.216.464-.639 1.089-1.138 1.875-1.498.79-.365 1.683-.547 2.677-.547 1.004 0 1.882.182 2.635.547.753.364 1.338.857 1.755 1.477.42.616.63 1.307.624 2.074.005.814-.248 1.494-.76 2.038-.506.545-1.166.89-1.98 1.037v.114c1.07.137 1.883.509 2.442 1.115.564.601.843 1.354.838 2.258a3.55 3.55 0 0 1-.717 2.209c-.478.644-1.139 1.151-1.982 1.52-.842.369-1.808.554-2.897.554Zm13.51.121c-1.222-.005-2.273-.306-3.153-.902-.876-.597-1.551-1.461-2.025-2.593-.468-1.131-.7-2.492-.696-4.083 0-1.587.235-2.938.704-4.056.473-1.117 1.148-1.967 2.024-2.549.88-.588 1.93-.881 3.146-.881 1.217 0 2.263.293 3.14.881.88.587 1.557 1.439 2.03 2.556.474 1.113.708 2.462.704 4.049 0 1.595-.237 2.959-.71 4.091-.47 1.131-1.142 1.995-2.018 2.592-.876.597-1.924.895-3.146.895Zm0-2.55c.833 0 1.499-.419 1.996-1.257.497-.838.743-2.095.738-3.771 0-1.104-.113-2.022-.34-2.756-.223-.734-.54-1.286-.952-1.655a2.077 2.077 0 0 0-1.442-.554c-.829 0-1.491.414-1.989 1.243-.497.829-.748 2.069-.752 3.722 0 1.117.11 2.05.333 2.798.228.743.547 1.302.96 1.676.411.369.894.554 1.448.554ZM67.75 382.393v-2.421l6.073-9.567h2.088v3.352h-1.236l-3.828 6.058v.114h8.629v2.464H67.75Zm6.982 2.557v-3.295l.056-1.073v-10.177h2.884v14.545h-2.94Zm12.496.32c-1.222-.005-2.273-.306-3.153-.902-.876-.597-1.551-1.461-2.025-2.593-.468-1.131-.7-2.492-.696-4.083 0-1.587.235-2.938.704-4.056.473-1.117 1.148-1.967 2.024-2.549.88-.588 1.93-.881 3.146-.881 1.217 0 2.263.293 3.14.881.88.587 1.557 1.439 2.03 2.556.474 1.113.708 2.462.704 4.049 0 1.595-.237 2.959-.71 4.091-.47 1.131-1.142 1.995-2.018 2.592-.876.597-1.924.895-3.146.895Zm0-2.55c.833 0 1.499-.419 1.996-1.257.497-.838.743-2.095.738-3.771 0-1.104-.113-2.022-.34-2.756-.223-.734-.54-1.286-.952-1.655a2.077 2.077 0 0 0-1.442-.554c-.829 0-1.491.414-1.989 1.243-.497.829-.748 2.069-.752 3.722 0 1.117.11 2.05.333 2.798.228.743.547 1.302.96 1.676.411.369.894.554 1.448.554Zm-13.281-61.571c-1.004 0-1.899-.185-2.685-.554-.781-.369-1.401-.878-1.86-1.527-.46-.649-.7-1.392-.718-2.23h2.983c.033.563.27 1.02.71 1.371.44.35.964.525 1.57.525.483 0 .909-.106 1.278-.319.374-.218.665-.519.874-.902.213-.389.32-.834.32-1.336 0-.511-.11-.961-.327-1.349a2.312 2.312 0 0 0-.888-.909 2.614 2.614 0 0 0-1.3-.334c-.426 0-.84.088-1.243.263-.398.175-.708.414-.93.717l-2.734-.49.688-7.67h8.892v2.514h-6.356l-.377 3.643h.086c.255-.359.641-.658 1.157-.894a4.105 4.105 0 0 1 1.733-.356c.876 0 1.658.206 2.344.618a4.449 4.449 0 0 1 1.626 1.698c.398.715.595 1.539.59 2.471.005.98-.222 1.852-.682 2.614a4.809 4.809 0 0 1-1.91 1.79c-.815.431-1.762.646-2.841.646Zm13.281.121c-1.222-.005-2.273-.306-3.153-.902-.876-.597-1.551-1.461-2.025-2.593-.468-1.131-.7-2.492-.696-4.083 0-1.587.235-2.938.704-4.056.473-1.117 1.148-1.967 2.024-2.549.88-.588 1.93-.881 3.146-.881 1.217 0 2.263.293 3.14.881.88.587 1.557 1.439 2.03 2.556.474 1.113.708 2.462.704 4.049 0 1.595-.237 2.959-.71 4.091-.47 1.131-1.142 1.995-2.018 2.592-.876.597-1.924.895-3.146.895Zm0-2.55c.833 0 1.499-.419 1.996-1.257.497-.838.743-2.095.738-3.771 0-1.104-.113-2.022-.34-2.756-.223-.734-.54-1.286-.952-1.655a2.077 2.077 0 0 0-1.442-.554c-.829 0-1.491.414-1.989 1.243-.497.829-.748 2.069-.752 3.722 0 1.117.11 2.05.333 2.798.228.743.547 1.302.96 1.676.411.369.894.554 1.448.554Z"/><path fill="#000" d="M107.052 73.985v-3.803h17.919v3.803h-6.68V92h-4.559V73.985h-6.68Zm25.805 18.335c-1.655 0-3.086-.352-4.293-1.055a7.224 7.224 0 0 1-2.781-2.962c-.653-1.271-.98-2.745-.98-4.42 0-1.691.327-3.168.98-4.433.654-1.271 1.581-2.258 2.781-2.961 1.207-.71 2.638-1.066 4.293-1.066 1.655 0 3.083.355 4.283 1.066a7.112 7.112 0 0 1 2.791 2.961c.654 1.264.98 2.742.98 4.432 0 1.676-.326 3.15-.98 4.421a7.196 7.196 0 0 1-2.791 2.962c-1.2.703-2.628 1.055-4.283 1.055Zm.022-3.516c.752 0 1.381-.213 1.885-.64.504-.433.884-1.022 1.14-1.768.263-.745.394-1.594.394-2.546 0-.952-.131-1.8-.394-2.546-.256-.746-.636-1.335-1.14-1.769-.504-.433-1.133-.65-1.885-.65-.76 0-1.4.217-1.918.65-.511.434-.898 1.023-1.161 1.769-.256.746-.384 1.594-.384 2.546 0 .952.128 1.8.384 2.546.263.746.65 1.335 1.161 1.769.518.426 1.158.639 1.918.639Zm10.983 9.332v-22.5h4.475v2.749h.202c.199-.44.487-.888.863-1.342.384-.462.881-.846 1.491-1.151.618-.313 1.385-.469 2.302-.469 1.193 0 2.294.313 3.302.938 1.009.618 1.815 1.552 2.418 2.802.604 1.243.906 2.802.906 4.677 0 1.825-.295 3.366-.884 4.623-.583 1.25-1.378 2.198-2.387 2.845-1.001.639-2.123.958-3.366.958-.881 0-1.63-.145-2.248-.437-.611-.29-1.111-.656-1.502-1.097a5.563 5.563 0 0 1-.895-1.353h-.138v8.757h-4.539Zm4.443-14.318c0 .973.135 1.822.405 2.546.269.725.66 1.29 1.171 1.694.512.398 1.133.597 1.865.597.738 0 1.363-.203 1.875-.607.511-.412.898-.98 1.161-1.705.27-.731.405-1.573.405-2.525 0-.944-.132-1.775-.394-2.493-.263-.717-.65-1.278-1.162-1.683-.511-.405-1.14-.607-1.885-.607-.739 0-1.364.195-1.875.586-.505.39-.892.944-1.161 1.662-.27.717-.405 1.562-.405 2.535Zm26.183-13.636V92h-4.613V70.182h4.613Zm8.249 12.358V92h-4.539V75.636h4.325v2.887h.192a4.566 4.566 0 0 1 1.822-2.258c.852-.561 1.886-.842 3.1-.842 1.136 0 2.127.249 2.972.746.846.497 1.503 1.207 1.971 2.13.469.917.703 2.01.703 3.282V92h-4.538v-9.61c.007-1-.249-1.782-.767-2.343-.518-.568-1.232-.852-2.141-.852-.611 0-1.151.131-1.62.394a2.745 2.745 0 0 0-1.086 1.15c-.256.498-.387 1.098-.394 1.8Zm22.923-6.904v3.41h-10.099v-3.41h10.099ZM197.872 92V74.454c0-1.186.231-2.17.693-2.951a4.453 4.453 0 0 1 1.917-1.758c.81-.39 1.73-.586 2.76-.586.696 0 1.331.053 1.907.16a13.16 13.16 0 0 1 1.299.287l-.809 3.41a5.695 5.695 0 0 0-.661-.16 4.12 4.12 0 0 0-.788-.075c-.668 0-1.133.156-1.396.469-.263.305-.394.735-.394 1.29V92h-4.528Zm17.368.32c-1.655 0-3.086-.352-4.293-1.055a7.217 7.217 0 0 1-2.781-2.962c-.653-1.271-.98-2.745-.98-4.42 0-1.691.327-3.168.98-4.433.654-1.271 1.58-2.258 2.781-2.961 1.207-.71 2.638-1.066 4.293-1.066 1.655 0 3.082.355 4.283 1.066a7.112 7.112 0 0 1 2.791 2.961c.653 1.264.98 2.742.98 4.432 0 1.676-.327 3.15-.98 4.421a7.196 7.196 0 0 1-2.791 2.962c-1.201.703-2.628 1.055-4.283 1.055Zm.021-3.516c.753 0 1.382-.213 1.886-.64.504-.433.884-1.022 1.14-1.768.263-.745.394-1.594.394-2.546 0-.952-.131-1.8-.394-2.546-.256-.746-.636-1.335-1.14-1.769-.504-.433-1.133-.65-1.886-.65-.76 0-1.399.217-1.917.65-.512.434-.899 1.023-1.161 1.769-.256.746-.384 1.594-.384 2.546 0 .952.128 1.8.384 2.546.262.746.649 1.335 1.161 1.769.518.426 1.157.639 1.917.639ZM226.245 92V75.636h4.4v2.856h.17c.299-1.016.799-1.783 1.502-2.302.704-.525 1.513-.788 2.429-.788a6.729 6.729 0 0 1 1.428.16v4.027a5.934 5.934 0 0 0-.884-.17 7.955 7.955 0 0 0-1.034-.075c-.667 0-1.264.145-1.789.437a3.21 3.21 0 0 0-1.236 1.193c-.298.511-.448 1.1-.448 1.768V92h-4.538Zm12.275 0V75.636h4.326v2.887h.191c.341-.958.91-1.715 1.705-2.269s1.747-.83 2.855-.83c1.122 0 2.078.28 2.866.84.788.555 1.314 1.308 1.577 2.26h.17c.334-.938.938-1.687 1.811-2.248.881-.569 1.921-.853 3.122-.853 1.527 0 2.766.487 3.718 1.46.958.966 1.438 2.337 1.438 4.112V92h-4.528V81.89c0-.91-.241-1.591-.724-2.046-.483-.454-1.087-.681-1.811-.681-.824 0-1.467.262-1.929.788-.461.519-.692 1.204-.692 2.056V92h-4.4V81.794c0-.802-.231-1.442-.692-1.918-.455-.475-1.055-.713-1.801-.713a2.5 2.5 0 0 0-1.364.383c-.397.249-.713.6-.948 1.055-.234.447-.351.973-.351 1.577V92h-4.539Zm32.03.309c-1.044 0-1.975-.181-2.791-.543a4.493 4.493 0 0 1-1.939-1.63c-.469-.725-.703-1.627-.703-2.706 0-.91.167-1.673.5-2.29a4.06 4.06 0 0 1 1.364-1.492 6.614 6.614 0 0 1 1.96-.852 14.954 14.954 0 0 1 2.323-.405c.951-.1 1.718-.192 2.301-.277.582-.093 1.005-.228 1.268-.405.262-.178.394-.44.394-.788v-.065c0-.674-.213-1.196-.639-1.566-.419-.369-1.016-.553-1.79-.553-.817 0-1.467.18-1.95.543a2.504 2.504 0 0 0-.959 1.342l-4.197-.34c.213-.995.632-1.854 1.257-2.579.625-.731 1.431-1.293 2.418-1.683.995-.398 2.145-.597 3.452-.597.909 0 1.779.107 2.61.32.838.213 1.58.543 2.227.99a4.813 4.813 0 0 1 1.544 1.727c.377.696.565 1.53.565 2.503V92h-4.304v-2.27h-.128a4.608 4.608 0 0 1-1.054 1.354 4.89 4.89 0 0 1-1.588.905c-.618.213-1.331.32-2.141.32Zm1.3-3.132c.667 0 1.257-.132 1.768-.394.511-.27.913-.632 1.204-1.087.291-.454.437-.97.437-1.545v-1.736a2.446 2.446 0 0 1-.586.255 10.75 10.75 0 0 1-.821.203c-.305.057-.61.11-.916.16l-.831.117a5.61 5.61 0 0 0-1.395.373c-.398.17-.707.401-.927.692-.22.284-.33.64-.33 1.066 0 .617.223 1.09.671 1.416.454.32 1.03.48 1.726.48Zm20.14-13.54v3.409h-9.855v-3.41h9.855Zm-7.617-3.921h4.538v15.256c0 .419.064.745.192.98.128.227.305.387.532.48.235.091.505.138.81.138.213 0 .426-.018.639-.054l.49-.096.714 3.378c-.227.07-.547.152-.959.245-.412.099-.912.16-1.502.18-1.094.043-2.052-.102-2.876-.436-.817-.334-1.453-.852-1.907-1.556-.455-.703-.678-1.59-.671-2.663V71.716ZM294.946 92V75.636h4.539V92h-4.539Zm2.28-18.473a2.462 2.462 0 0 1-1.736-.671c-.476-.455-.714-.998-.714-1.63 0-.625.238-1.161.714-1.609a2.441 2.441 0 0 1 1.736-.682c.675 0 1.25.228 1.726.682.483.448.724.984.724 1.609 0 .632-.241 1.175-.724 1.63-.476.447-1.051.671-1.726.671Zm13.288 18.793c-1.655 0-3.086-.352-4.294-1.055a7.215 7.215 0 0 1-2.78-2.962c-.654-1.271-.98-2.745-.98-4.42 0-1.691.326-3.168.98-4.433.653-1.271 1.58-2.258 2.78-2.961 1.208-.71 2.639-1.066 4.294-1.066 1.654 0 3.082.355 4.282 1.066 1.208.703 2.138 1.69 2.791 2.961.654 1.264.98 2.742.98 4.432 0 1.676-.326 3.15-.98 4.421a7.19 7.19 0 0 1-2.791 2.962c-1.2.703-2.628 1.055-4.282 1.055Zm.021-3.516c.753 0 1.381-.213 1.885-.64.505-.433.885-1.022 1.14-1.768.263-.745.395-1.594.395-2.546 0-.952-.132-1.8-.395-2.546-.255-.746-.635-1.335-1.14-1.769-.504-.433-1.132-.65-1.885-.65-.76 0-1.399.217-1.918.65-.511.434-.898 1.023-1.161 1.769-.256.746-.384 1.594-.384 2.546 0 .952.128 1.8.384 2.546.263.746.65 1.335 1.161 1.769.519.426 1.158.639 1.918.639Zm15.522-6.264V92h-4.539V75.636h4.326v2.887h.192a4.564 4.564 0 0 1 1.821-2.258c.853-.561 1.886-.842 3.1-.842 1.137 0 2.128.249 2.973.746.845.497 1.502 1.207 1.971 2.13.468.917.703 2.01.703 3.282V92h-4.539v-9.61c.007-1-.248-1.782-.767-2.343-.518-.568-1.232-.852-2.141-.852-.611 0-1.151.131-1.619.394a2.747 2.747 0 0 0-1.087 1.15c-.256.498-.387 1.098-.394 1.8Zm39.401-12.358V92h-3.984l-9.492-13.732h-.16V92h-4.613V70.182h4.048l9.418 13.721h.192V70.182h4.591Zm11.184 22.138c-1.683 0-3.132-.341-4.347-1.023a7.01 7.01 0 0 1-2.791-2.92c-.653-1.263-.98-2.758-.98-4.484 0-1.683.327-3.16.98-4.432.654-1.271 1.573-2.262 2.759-2.972 1.194-.71 2.593-1.066 4.198-1.066 1.079 0 2.084.174 3.015.522a6.69 6.69 0 0 1 2.45 1.545c.703.689 1.25 1.556 1.641 2.6.39 1.036.586 2.25.586 3.643v1.246h-13.818v-2.812h9.546c0-.654-.143-1.232-.427-1.737a3.052 3.052 0 0 0-1.182-1.182c-.497-.291-1.076-.437-1.737-.437-.689 0-1.299.16-1.832.48a3.357 3.357 0 0 0-1.236 1.267 3.582 3.582 0 0 0-.458 1.758v2.674c0 .81.149 1.51.448 2.099.305.59.735 1.044 1.289 1.363.554.32 1.211.48 1.97.48a4.29 4.29 0 0 0 1.385-.213 2.873 2.873 0 0 0 1.076-.64c.299-.283.526-.632.682-1.043l4.198.276a5.727 5.727 0 0 1-1.311 2.642c-.653.746-1.498 1.329-2.535 1.748-1.03.412-2.22.618-3.569.618Zm17.93 0c-1.684 0-3.133-.341-4.347-1.023a7.004 7.004 0 0 1-2.791-2.92c-.654-1.263-.98-2.758-.98-4.484 0-1.683.326-3.16.98-4.432.653-1.271 1.573-2.262 2.759-2.972 1.193-.71 2.592-1.066 4.197-1.066 1.08 0 2.085.174 3.015.522a6.687 6.687 0 0 1 2.451 1.545c.703.689 1.25 1.556 1.64 2.6.391 1.036.586 2.25.586 3.643v1.246h-13.817v-2.812h9.545c0-.654-.142-1.232-.426-1.737a3.052 3.052 0 0 0-1.182-1.182c-.498-.291-1.076-.437-1.737-.437-.689 0-1.3.16-1.832.48a3.357 3.357 0 0 0-1.236 1.267 3.582 3.582 0 0 0-.458 1.758v2.674c0 .81.149 1.51.447 2.099a3.27 3.27 0 0 0 1.289 1.363c.554.32 1.211.48 1.971.48.504 0 .966-.071 1.385-.213a2.873 2.873 0 0 0 1.076-.64 2.78 2.78 0 0 0 .682-1.043l4.197.276a5.735 5.735 0 0 1-1.31 2.642c-.653.746-1.499 1.329-2.536 1.748-1.029.412-2.219.618-3.568.618Zm16.502-.054c-1.243 0-2.369-.32-3.377-.959-1.002-.646-1.797-1.594-2.387-2.844-.582-1.257-.873-2.798-.873-4.623 0-1.876.301-3.434.905-4.677.604-1.25 1.406-2.184 2.408-2.802a6.168 6.168 0 0 1 3.313-.938c.916 0 1.68.156 2.291.469.617.305 1.115.689 1.491 1.15.384.455.675.903.874 1.343h.138v-8.203h4.528V92h-4.475v-2.62h-.191a5.838 5.838 0 0 1-.906 1.352c-.383.44-.884.806-1.502 1.097-.611.292-1.357.437-2.237.437Zm1.438-3.611c.731 0 1.349-.199 1.854-.597.511-.405.902-.97 1.171-1.694.277-.724.416-1.573.416-2.546 0-.973-.135-1.818-.405-2.535-.27-.718-.66-1.272-1.172-1.662-.511-.39-1.133-.586-1.864-.586-.746 0-1.374.202-1.886.607-.511.405-.898.966-1.161 1.683-.263.718-.394 1.549-.394 2.493 0 .952.131 1.794.394 2.525.27.724.657 1.293 1.161 1.705.512.404 1.14.607 1.886.607Zm25.219-8.352-4.155.255a2.14 2.14 0 0 0-.458-.959 2.425 2.425 0 0 0-.927-.692c-.376-.178-.827-.266-1.353-.266-.703 0-1.296.149-1.779.447-.483.291-.724.682-.724 1.172 0 .39.156.72.469.99.312.27.848.487 1.608.65l2.962.597c1.591.327 2.777.852 3.558 1.577.781.724 1.172 1.676 1.172 2.855 0 1.072-.316 2.013-.948 2.823-.625.81-1.484 1.442-2.578 1.896-1.087.448-2.34.672-3.761.672-2.166 0-3.892-.451-5.177-1.353-1.279-.91-2.028-2.145-2.248-3.708l4.463-.234c.135.66.462 1.165.981 1.513.518.34 1.182.511 1.992.511.795 0 1.434-.153 1.917-.458.49-.313.739-.714.746-1.204-.007-.412-.181-.75-.522-1.012-.341-.27-.866-.476-1.577-.618l-2.833-.565c-1.598-.32-2.788-.873-3.569-1.661-.774-.789-1.162-1.794-1.162-3.015 0-1.052.285-1.957.853-2.717.575-.76 1.381-1.346 2.418-1.758 1.044-.412 2.266-.618 3.665-.618 2.067 0 3.693.437 4.879 1.31 1.193.874 1.889 2.064 2.088 3.57Zm14.872-10.121V92h-4.613V70.182h4.613Zm9.74 22.084c-1.243 0-2.368-.32-3.377-.959-1.001-.646-1.797-1.594-2.386-2.844-.583-1.257-.874-2.798-.874-4.623 0-1.876.302-3.434.906-4.677.603-1.25 1.406-2.184 2.407-2.802a6.171 6.171 0 0 1 3.314-.938c.916 0 1.679.156 2.29.469.618.305 1.115.689 1.492 1.15.383.455.674.903.873 1.343h.139v-8.203h4.527V92h-4.474v-2.62h-.192a5.864 5.864 0 0 1-.905 1.352c-.384.44-.885.806-1.503 1.097-.61.292-1.356.437-2.237.437Zm1.438-3.611c.732 0 1.35-.199 1.854-.597.511-.405.902-.97 1.172-1.694.277-.724.415-1.573.415-2.546 0-.973-.134-1.818-.404-2.535-.27-.718-.661-1.272-1.172-1.662-.512-.39-1.133-.586-1.865-.586-.745 0-1.374.202-1.885.607-.512.405-.899.966-1.161 1.683-.263.718-.395 1.549-.395 2.493 0 .952.132 1.794.395 2.525.269.724.657 1.293 1.161 1.705.511.404 1.14.607 1.885.607Zm19.062 3.665c-1.683 0-3.132-.341-4.347-1.023a7.01 7.01 0 0 1-2.791-2.92c-.653-1.263-.98-2.758-.98-4.484 0-1.683.327-3.16.98-4.432.654-1.271 1.573-2.262 2.76-2.972 1.193-.71 2.592-1.066 4.197-1.066 1.079 0 2.084.174 3.015.522a6.69 6.69 0 0 1 2.45 1.545c.703.689 1.25 1.556 1.641 2.6.39 1.036.586 2.25.586 3.643v1.246h-13.818v-2.812h9.546c0-.654-.142-1.232-.426-1.737a3.061 3.061 0 0 0-1.183-1.182c-.497-.291-1.076-.437-1.736-.437-.689 0-1.3.16-1.833.48a3.371 3.371 0 0 0-1.236 1.267 3.582 3.582 0 0 0-.458 1.758v2.674c0 .81.149 1.51.448 2.099.305.59.735 1.044 1.289 1.363.554.32 1.211.48 1.971.48.504 0 .966-.071 1.385-.213a2.881 2.881 0 0 0 1.076-.64c.298-.283.525-.632.681-1.043l4.198.276a5.727 5.727 0 0 1-1.311 2.642c-.653.746-1.498 1.329-2.535 1.748-1.03.412-2.22.618-3.569.618Zm15.011-9.78V92h-4.539V75.636h4.326v2.887h.191a4.571 4.571 0 0 1 1.822-2.258c.852-.561 1.886-.842 3.1-.842 1.137 0 2.127.249 2.973.746.845.497 1.502 1.207 1.97 2.13.469.917.704 2.01.704 3.282V92h-4.539v-9.61c.007-1-.248-1.782-.767-2.343-.518-.568-1.232-.852-2.141-.852-.611 0-1.151.131-1.619.394a2.747 2.747 0 0 0-1.087 1.15c-.256.498-.387 1.098-.394 1.8Zm22.827-6.904v3.41h-9.854v-3.41h9.854Zm-7.617-3.92h4.538v15.256c0 .419.064.745.192.98.128.227.306.387.533.48.234.091.504.138.81.138.213 0 .426-.018.639-.054l.49-.096.714 3.378c-.228.07-.547.152-.959.245-.412.099-.913.16-1.502.18-1.094.043-2.053-.102-2.877-.436-.817-.334-1.452-.852-1.907-1.556-.454-.703-.678-1.59-.671-2.663V71.716ZM523.638 92V75.636h4.538V92h-4.538Zm2.279-18.473a2.466 2.466 0 0 1-1.736-.671c-.476-.455-.714-.998-.714-1.63 0-.625.238-1.161.714-1.609a2.445 2.445 0 0 1 1.736-.682c.675 0 1.25.228 1.726.682.483.448.725.984.725 1.609 0 .632-.242 1.175-.725 1.63-.476.447-1.051.671-1.726.671Zm14.694 2.11v3.409h-10.099v-3.41h10.099ZM532.824 92V74.454c0-1.186.23-2.17.692-2.951a4.45 4.45 0 0 1 1.918-1.758c.809-.39 1.729-.586 2.759-.586.696 0 1.332.053 1.907.16a13.21 13.21 0 0 1 1.3.287l-.81 3.41a5.695 5.695 0 0 0-.661-.16 4.113 4.113 0 0 0-.788-.075c-.668 0-1.133.156-1.396.469-.262.305-.394.735-.394 1.29V92h-4.527Zm10.56 0V75.636h4.538V92h-4.538Zm2.28-18.473a2.466 2.466 0 0 1-1.737-.671c-.476-.455-.714-.998-.714-1.63 0-.625.238-1.161.714-1.609a2.445 2.445 0 0 1 1.737-.682c.674 0 1.25.228 1.725.682.483.448.725.984.725 1.609 0 .632-.242 1.175-.725 1.63-.475.447-1.051.671-1.725.671Zm13.351 18.793c-1.683 0-3.132-.341-4.347-1.023a7.01 7.01 0 0 1-2.791-2.92c-.653-1.263-.98-2.758-.98-4.484 0-1.683.327-3.16.98-4.432.654-1.271 1.573-2.262 2.759-2.972 1.194-.71 2.593-1.066 4.198-1.066 1.079 0 2.084.174 3.015.522a6.69 6.69 0 0 1 2.45 1.545c.703.689 1.25 1.556 1.641 2.6.39 1.036.586 2.25.586 3.643v1.246h-13.818v-2.812h9.546c0-.654-.142-1.232-.427-1.737a3.052 3.052 0 0 0-1.182-1.182c-.497-.291-1.076-.437-1.737-.437-.689 0-1.299.16-1.832.48a3.364 3.364 0 0 0-1.236 1.267 3.582 3.582 0 0 0-.458 1.758v2.674c0 .81.149 1.51.448 2.099.305.59.735 1.044 1.289 1.363.554.32 1.211.48 1.97.48a4.29 4.29 0 0 0 1.385-.213 2.873 2.873 0 0 0 1.076-.64c.299-.283.526-.632.682-1.043l4.198.276a5.727 5.727 0 0 1-1.311 2.642c-.653.746-1.498 1.329-2.535 1.748-1.03.412-2.22.618-3.569.618Zm16.502-.054c-1.243 0-2.369-.32-3.377-.959-1.001-.646-1.797-1.594-2.386-2.844-.583-1.257-.874-2.798-.874-4.623 0-1.876.302-3.434.906-4.677.603-1.25 1.406-2.184 2.407-2.802a6.17 6.17 0 0 1 3.313-.938c.917 0 1.68.156 2.291.469.618.305 1.115.689 1.491 1.15.384.455.675.903.874 1.343h.138v-8.203h4.528V92h-4.474v-2.62h-.192a5.838 5.838 0 0 1-.906 1.352c-.383.44-.884.806-1.502 1.097-.611.292-1.356.437-2.237.437Zm1.438-3.611c.732 0 1.35-.199 1.854-.597.511-.405.902-.97 1.172-1.694.277-.724.415-1.573.415-2.546 0-.973-.135-1.818-.405-2.535-.269-.718-.66-1.272-1.171-1.662-.512-.39-1.133-.586-1.865-.586-.745 0-1.374.202-1.885.607-.512.405-.899.966-1.162 1.683-.262.718-.394 1.549-.394 2.493 0 .952.132 1.794.394 2.525.27.724.657 1.293 1.162 1.705.511.404 1.14.607 1.885.607ZM595.588 92V70.182h4.538v8.203h.139a5.99 5.99 0 0 1 .863-1.342c.383-.462.881-.846 1.491-1.151.618-.313 1.385-.469 2.301-.469 1.194 0 2.294.313 3.303.938 1.009.618 1.815 1.552 2.418 2.802.604 1.243.906 2.802.906 4.677 0 1.825-.295 3.366-.884 4.623-.583 1.25-1.378 2.198-2.387 2.845-1.001.639-2.123.958-3.366.958-.881 0-1.63-.145-2.248-.437-.611-.29-1.112-.656-1.502-1.097a5.563 5.563 0 0 1-.895-1.353h-.202V92h-4.475Zm4.443-8.182c0 .973.134 1.822.404 2.546.27.725.661 1.29 1.172 1.694.512.398 1.133.597 1.865.597.738 0 1.363-.203 1.875-.607.511-.412.898-.98 1.161-1.705.27-.731.405-1.573.405-2.525 0-.944-.132-1.775-.395-2.493-.262-.717-.649-1.278-1.161-1.683-.511-.405-1.14-.607-1.885-.607-.739 0-1.364.195-1.875.586-.505.39-.892.944-1.162 1.662-.27.717-.404 1.562-.404 2.535Zm16.819 14.318a9.001 9.001 0 0 1-1.62-.138 5.88 5.88 0 0 1-1.235-.33l1.022-3.388c.533.163 1.012.252 1.438.266.434.014.807-.085 1.119-.298.32-.213.579-.575.778-1.087l.266-.692-5.87-16.833h4.773l3.388 12.017h.17l3.42-12.017h4.804l-6.36 18.133a7.618 7.618 0 0 1-1.246 2.3 5.117 5.117 0 0 1-1.971 1.524c-.795.362-1.754.543-2.876.543Zm35.281-27.954h4.613V84.35c0 1.59-.38 2.983-1.14 4.176-.753 1.193-1.807 2.124-3.164 2.791-1.357.66-2.937.99-4.741.99-1.811 0-3.395-.33-4.751-.99-1.357-.667-2.411-1.598-3.164-2.791-.753-1.193-1.13-2.585-1.13-4.176V70.18h4.613v13.776c0 .83.182 1.57.544 2.216a3.963 3.963 0 0 0 1.555 1.523c.668.37 1.445.554 2.333.554.895 0 1.673-.185 2.333-.554a3.885 3.885 0 0 0 1.545-1.523c.369-.647.554-1.385.554-2.216V70.182Zm21.938 10.12-4.155.256a2.14 2.14 0 0 0-.458-.959 2.425 2.425 0 0 0-.927-.692c-.376-.178-.827-.266-1.353-.266-.703 0-1.296.149-1.779.447-.483.291-.724.682-.724 1.172 0 .39.156.72.469.99.312.27.848.487 1.608.65l2.962.597c1.591.327 2.777.852 3.558 1.577.781.724 1.172 1.676 1.172 2.855 0 1.072-.316 2.013-.948 2.823-.625.81-1.485 1.442-2.578 1.896-1.087.448-2.341.672-3.761.672-2.166 0-3.892-.451-5.178-1.353-1.278-.91-2.027-2.145-2.247-3.708l4.463-.234c.135.66.462 1.165.98 1.513.519.34 1.183.511 1.993.511.795 0 1.434-.153 1.917-.458.49-.313.739-.714.746-1.204-.007-.412-.181-.75-.522-1.012-.341-.27-.866-.476-1.577-.618l-2.834-.565c-1.598-.32-2.787-.873-3.568-1.661-.775-.789-1.162-1.794-1.162-3.015 0-1.052.284-1.957.853-2.717.575-.76 1.381-1.346 2.418-1.758 1.044-.412 2.266-.618 3.665-.618 2.067 0 3.693.437 4.879 1.31 1.193.874 1.889 2.064 2.088 3.57Zm10.688 12.018c-1.683 0-3.132-.341-4.346-1.023a7.006 7.006 0 0 1-2.792-2.92c-.653-1.263-.98-2.758-.98-4.484 0-1.683.327-3.16.98-4.432.654-1.271 1.573-2.262 2.76-2.972 1.193-.71 2.592-1.066 4.197-1.066 1.08 0 2.085.174 3.015.522a6.69 6.69 0 0 1 2.45 1.545c.703.689 1.25 1.556 1.641 2.6.39 1.036.586 2.25.586 3.643v1.246H678.45v-2.812h9.546c0-.654-.142-1.232-.426-1.737a3.054 3.054 0 0 0-1.183-1.182c-.497-.291-1.076-.437-1.736-.437-.689 0-1.3.16-1.833.48a3.371 3.371 0 0 0-1.236 1.267 3.582 3.582 0 0 0-.458 1.758v2.674c0 .81.149 1.51.448 2.099.305.59.735 1.044 1.289 1.363.554.32 1.211.48 1.971.48.504 0 .966-.071 1.385-.213a2.881 2.881 0 0 0 1.076-.64c.298-.283.525-.632.681-1.043l4.198.276a5.735 5.735 0 0 1-1.31 2.642c-.654.746-1.499 1.329-2.536 1.748-1.03.412-2.219.618-3.569.618Zm10.472-.32V75.636h4.4v2.856h.171c.298-1.016.799-1.783 1.502-2.302.703-.525 1.513-.788 2.429-.788a6.725 6.725 0 0 1 1.427.16v4.027a5.908 5.908 0 0 0-.884-.17 7.94 7.94 0 0 0-1.033-.075c-.668 0-1.264.145-1.79.437-.518.284-.93.681-1.236 1.193-.298.511-.447 1.1-.447 1.768V92h-4.539Zm25.891-11.697-4.155.255a2.151 2.151 0 0 0-.458-.959 2.425 2.425 0 0 0-.927-.692c-.376-.178-.827-.266-1.353-.266-.703 0-1.296.149-1.779.447-.483.291-.724.682-.724 1.172 0 .39.156.72.468.99.313.27.849.487 1.609.65l2.962.597c1.591.327 2.777.852 3.558 1.577.781.724 1.172 1.676 1.172 2.855 0 1.072-.316 2.013-.948 2.823-.625.81-1.485 1.442-2.579 1.896-1.086.448-2.34.672-3.76.672-2.166 0-3.892-.451-5.178-1.353-1.278-.91-2.027-2.145-2.248-3.708l4.464-.234c.135.66.462 1.165.98 1.513.519.34 1.183.511 1.992.511.796 0 1.435-.153 1.918-.458.49-.313.739-.714.746-1.204-.007-.412-.181-.75-.522-1.012-.341-.27-.867-.476-1.577-.618l-2.834-.565c-1.598-.32-2.787-.873-3.569-1.661-.774-.789-1.161-1.794-1.161-3.015 0-1.052.284-1.957.852-2.717.576-.76 1.382-1.346 2.419-1.758 1.044-.412 2.265-.618 3.665-.618 2.066 0 3.693.437 4.879 1.31 1.193.874 1.889 2.064 2.088 3.57Zm-478.363 27.152h1.762v9.63c0 .995-.235 1.882-.703 2.664-.464.776-1.12 1.389-1.968 1.839-.847.445-1.842.668-2.983.668s-2.135-.223-2.983-.668c-.847-.45-1.505-1.063-1.974-1.839-.464-.782-.696-1.669-.696-2.664v-9.63h1.761v9.488c0 .71.157 1.343.469 1.896.313.55.758.983 1.335 1.3.583.313 1.279.469 2.088.469.81 0 1.506-.156 2.088-.469a3.295 3.295 0 0 0 1.336-1.3c.312-.553.468-1.186.468-1.896v-9.488Zm6.728 7.983V122h-1.676v-10.909h1.619v1.704h.142a3.115 3.115 0 0 1 1.165-1.335c.521-.341 1.193-.511 2.017-.511.739 0 1.385.151 1.939.454.554.299.985.753 1.293 1.364.307.606.461 1.373.461 2.301V122h-1.676v-6.818c0-.857-.222-1.525-.668-2.003-.445-.483-1.055-.724-1.832-.724-.535 0-1.013.116-1.435.348-.416.232-.745.57-.987 1.015-.241.445-.362.985-.362 1.62Zm14.142 6.789c-.909 0-1.711-.229-2.407-.689-.696-.464-1.241-1.117-1.634-1.96-.393-.847-.589-1.849-.589-3.004 0-1.146.196-2.14.589-2.983.393-.843.94-1.494 1.641-1.953.701-.459 1.51-.689 2.429-.689.71 0 1.271.118 1.683.355.417.232.734.497.952.795.222.294.395.535.518.725h.142v-5.369h1.676V122h-1.619v-1.676h-.199c-.123.199-.298.45-.525.753-.228.298-.552.566-.973.802-.422.232-.983.348-1.684.348Zm.228-1.505c.672 0 1.24-.176 1.704-.526.464-.355.817-.845 1.058-1.47.242-.63.363-1.357.363-2.181 0-.814-.119-1.527-.355-2.137-.237-.616-.588-1.094-1.052-1.435-.464-.346-1.037-.518-1.718-.518-.711 0-1.302.182-1.776.546-.469.36-.821.85-1.058 1.471-.232.615-.348 1.306-.348 2.073 0 .777.118 1.482.355 2.117.241.63.597 1.132 1.065 1.506.474.369 1.061.554 1.762.554Zm12.649 1.505c-1.051 0-1.958-.232-2.72-.696a4.672 4.672 0 0 1-1.755-1.96c-.407-.843-.61-1.823-.61-2.94 0-1.118.203-2.103.61-2.955.412-.857.985-1.524 1.719-2.003.739-.483 1.601-.724 2.585-.724.569 0 1.13.095 1.684.284a4.159 4.159 0 0 1 1.512.923c.455.422.817.98 1.087 1.676s.405 1.553.405 2.571v.711h-8.409v-1.449h6.704c0-.616-.123-1.165-.369-1.648a2.775 2.775 0 0 0-1.037-1.143c-.445-.28-.971-.419-1.577-.419-.667 0-1.245.165-1.733.497a3.272 3.272 0 0 0-1.115 1.278 3.762 3.762 0 0 0-.39 1.69v.966c0 .824.142 1.523.426 2.096a3.074 3.074 0 0 0 1.2 1.299c.512.294 1.106.441 1.783.441.44 0 .838-.062 1.193-.185.36-.128.67-.317.93-.568.261-.256.462-.573.604-.952l1.619.455a3.573 3.573 0 0 1-.859 1.448 4.19 4.19 0 0 1-1.491.966c-.592.228-1.258.341-1.996.341Zm7.067-.227v-10.909h1.619v1.648h.114c.198-.54.558-.978 1.079-1.314a3.18 3.18 0 0 1 1.761-.505c.124 0 .277.003.462.008.185.004.324.011.419.021v1.704a5.436 5.436 0 0 0-.39-.064 3.87 3.87 0 0 0-.633-.049c-.53 0-1.003.111-1.42.334-.412.217-.739.52-.98.909a2.445 2.445 0 0 0-.355 1.314V122h-1.676Zm15.168-8.466-1.505.426a2.808 2.808 0 0 0-.419-.731 2.033 2.033 0 0 0-.739-.597c-.313-.156-.713-.234-1.2-.234-.668 0-1.224.154-1.669.461-.441.303-.661.689-.661 1.158 0 .417.152.746.455.987.303.242.776.443 1.42.604l1.619.398c.976.236 1.703.599 2.181 1.086.478.483.717 1.106.717 1.868 0 .625-.18 1.184-.54 1.676-.355.493-.852.881-1.491 1.165-.639.284-1.383.426-2.23.426-1.113 0-2.034-.241-2.763-.724-.729-.483-1.191-1.189-1.385-2.117l1.591-.397c.151.587.438 1.027.859 1.321.426.293.983.44 1.669.44.782 0 1.402-.166 1.861-.497.464-.336.696-.739.696-1.208 0-.378-.132-.696-.398-.951-.265-.261-.672-.455-1.221-.583l-1.818-.426c-.999-.237-1.733-.603-2.202-1.101-.464-.502-.696-1.129-.696-1.882a2.7 2.7 0 0 1 .518-1.633c.351-.474.827-.845 1.428-1.115.606-.27 1.293-.405 2.06-.405 1.079 0 1.927.237 2.542.71a3.826 3.826 0 0 1 1.321 1.875Zm7.467-2.443v1.42h-5.654v-1.42h5.654Zm-4.006-2.614h1.676v10.398c0 .473.069.829.206 1.065.142.232.322.389.54.469.222.076.457.114.703.114.185 0 .336-.01.454-.029l.284-.056.341 1.505a3.389 3.389 0 0 1-.475.128 3.533 3.533 0 0 1-.775.071c-.473 0-.937-.102-1.392-.305a2.77 2.77 0 0 1-1.122-.931c-.293-.416-.44-.942-.44-1.576v-10.853Zm9.737 13.779a4.438 4.438 0 0 1-1.882-.391 3.228 3.228 0 0 1-1.342-1.143c-.332-.502-.498-1.108-.498-1.819 0-.625.124-1.131.37-1.519a2.61 2.61 0 0 1 .987-.924 5.203 5.203 0 0 1 1.364-.497 16.406 16.406 0 0 1 1.512-.27 72.061 72.061 0 0 1 1.613-.192c.416-.047.719-.125.909-.234.194-.109.291-.298.291-.568v-.057c0-.701-.192-1.245-.575-1.633-.379-.389-.954-.583-1.726-.583-.8 0-1.428.175-1.882.526-.455.35-.774.724-.959 1.122l-1.591-.568c.284-.663.663-1.179 1.136-1.549a4.266 4.266 0 0 1 1.563-.781 6.508 6.508 0 0 1 1.676-.227c.35 0 .753.042 1.207.128.46.08.902.248 1.328.504.431.256.789.642 1.073 1.158.284.516.426 1.207.426 2.073V122h-1.676v-1.477h-.085c-.114.236-.303.49-.568.76-.266.27-.618.499-1.059.689-.44.189-.977.284-1.612.284Zm.256-1.506c.663 0 1.221-.13 1.676-.391.459-.26.805-.596 1.037-1.008.237-.412.355-.845.355-1.3v-1.534c-.071.085-.227.163-.469.234a7.689 7.689 0 0 1-.824.178c-.307.047-.608.09-.902.128a40.94 40.94 0 0 0-.703.085 6.396 6.396 0 0 0-1.221.277c-.374.123-.677.31-.909.561-.228.246-.341.582-.341 1.009 0 .582.215 1.022.646 1.321.436.293.987.44 1.655.44Zm9.48-5.312V122h-1.677v-10.909h1.62v1.704h.142a3.109 3.109 0 0 1 1.165-1.335c.52-.341 1.193-.511 2.017-.511.738 0 1.384.151 1.938.454.554.299.985.753 1.293 1.364.308.606.462 1.373.462 2.301V122h-1.676v-6.818c0-.857-.223-1.525-.668-2.003-.445-.483-1.056-.724-1.832-.724-.535 0-1.014.116-1.435.348-.417.232-.746.57-.987 1.015-.242.445-.362.985-.362 1.62Zm14.142 6.789c-.909 0-1.712-.229-2.408-.689-.696-.464-1.24-1.117-1.633-1.96-.393-.847-.59-1.849-.59-3.004 0-1.146.197-2.14.59-2.983.393-.843.94-1.494 1.64-1.953.701-.459 1.511-.689 2.429-.689.711 0 1.272.118 1.684.355.416.232.733.497.951.795.223.294.396.535.519.725h.142v-5.369h1.676V122h-1.619v-1.676h-.199c-.123.199-.299.45-.526.753-.227.298-.551.566-.973.802-.421.232-.982.348-1.683.348Zm.227-1.505c.673 0 1.241-.176 1.705-.526.464-.355.816-.845 1.058-1.47.241-.63.362-1.357.362-2.181 0-.814-.118-1.527-.355-2.137-.237-.616-.587-1.094-1.051-1.435-.464-.346-1.037-.518-1.719-.518-.71 0-1.302.182-1.775.546-.469.36-.822.85-1.059 1.471-.232.615-.348 1.306-.348 2.073 0 .777.119 1.482.355 2.117.242.63.597 1.132 1.066 1.506.473.369 1.06.554 1.761.554Zm8.075 1.278v-10.909h1.677V122h-1.677Zm.853-12.727c-.327 0-.609-.112-.845-.334a1.073 1.073 0 0 1-.348-.803c0-.312.116-.58.348-.802.236-.223.518-.334.845-.334.326 0 .606.111.838.334.237.222.355.49.355.802 0 .313-.118.58-.355.803a1.17 1.17 0 0 1-.838.334Zm5.57 6.165V122h-1.676v-10.909h1.619v1.704h.142a3.115 3.115 0 0 1 1.165-1.335c.521-.341 1.193-.511 2.017-.511.738 0 1.385.151 1.939.454.554.299.985.753 1.292 1.364.308.606.462 1.373.462 2.301V122h-1.676v-6.818c0-.857-.223-1.525-.668-2.003-.445-.483-1.056-.724-1.832-.724-.535 0-1.013.116-1.435.348-.417.232-.746.57-.987 1.015-.242.445-.362.985-.362 1.62Zm14.426 10.88c-.809 0-1.505-.104-2.088-.312-.582-.204-1.068-.474-1.456-.81a4.44 4.44 0 0 1-.916-1.065l1.335-.938c.152.199.343.426.575.682.232.26.55.485.952.675.407.194.94.291 1.598.291.881 0 1.608-.213 2.181-.639.573-.426.859-1.094.859-2.003v-2.216h-.142a8.894 8.894 0 0 1-.526.739c-.222.288-.544.546-.966.774-.416.222-.98.334-1.69.334-.881 0-1.671-.209-2.372-.625-.696-.417-1.248-1.023-1.655-1.819-.402-.795-.604-1.761-.604-2.897 0-1.118.197-2.091.59-2.919.393-.834.94-1.478 1.641-1.932.7-.459 1.51-.689 2.429-.689.71 0 1.273.118 1.69.355.421.232.743.497.966.795.227.294.402.535.525.725h.171v-1.733h1.619v11.221c0 .938-.213 1.7-.639 2.287a3.64 3.64 0 0 1-1.705 1.3c-.71.28-1.501.419-2.372.419Zm-.057-5.994c.673 0 1.241-.154 1.705-.462.464-.308.817-.75 1.058-1.328.242-.578.362-1.269.362-2.074 0-.786-.118-1.479-.355-2.081-.236-.601-.587-1.072-1.051-1.413-.464-.341-1.037-.511-1.719-.511-.71 0-1.302.179-1.775.539-.469.36-.822.843-1.058 1.449-.232.606-.348 1.279-.348 2.017 0 .758.118 1.428.355 2.01.241.578.596 1.032 1.065 1.364.473.327 1.061.49 1.761.49ZM381.245 122l-3.978-14.545h1.79l3.04 11.846h.142l3.097-11.846h1.988l3.097 11.846h.142l3.04-11.846h1.789L391.415 122h-1.818l-3.21-11.591h-.114L383.063 122h-1.818Zm17.791-6.562V122h-1.676v-14.545h1.676v5.34h.142a3.092 3.092 0 0 1 1.15-1.342c.517-.336 1.203-.504 2.06-.504.743 0 1.394.149 1.953.447.559.294.992.746 1.3 1.357.312.606.469 1.378.469 2.315V122h-1.676v-6.818c0-.867-.225-1.537-.675-2.01-.445-.478-1.063-.717-1.854-.717-.549 0-1.042.116-1.477.348-.431.232-.772.57-1.023 1.015-.246.445-.369.985-.369 1.62Zm13.35 6.818a4.442 4.442 0 0 1-1.882-.391 3.228 3.228 0 0 1-1.342-1.143c-.332-.502-.497-1.108-.497-1.819 0-.625.123-1.131.369-1.519a2.61 2.61 0 0 1 .987-.924 5.216 5.216 0 0 1 1.364-.497 16.367 16.367 0 0 1 1.513-.27c.663-.085 1.2-.149 1.612-.192.417-.047.72-.125.909-.234.194-.109.291-.298.291-.568v-.057c0-.701-.192-1.245-.575-1.633-.379-.389-.954-.583-1.726-.583-.8 0-1.428.175-1.882.526-.455.35-.774.724-.959 1.122l-1.591-.568c.284-.663.663-1.179 1.137-1.549a4.262 4.262 0 0 1 1.562-.781 6.508 6.508 0 0 1 1.676-.227c.351 0 .753.042 1.208.128.459.08.902.248 1.328.504.431.256.788.642 1.072 1.158.284.516.426 1.207.426 2.073V122h-1.676v-1.477h-.085c-.114.236-.303.49-.568.76-.265.27-.618.499-1.058.689-.441.189-.978.284-1.613.284Zm.256-1.506c.663 0 1.222-.13 1.676-.391.459-.26.805-.596 1.037-1.008.237-.412.355-.845.355-1.3v-1.534c-.071.085-.227.163-.469.234a7.666 7.666 0 0 1-.823.178c-.308.047-.609.09-.902.128-.289.033-.524.061-.704.085a6.413 6.413 0 0 0-1.221.277c-.374.123-.677.31-.909.561-.228.246-.341.582-.341 1.009 0 .582.215 1.022.646 1.321.436.293.987.44 1.655.44Zm12.548-9.659v1.42h-5.654v-1.42h5.654Zm-4.006-2.614h1.676v10.398c0 .473.069.829.206 1.065.142.232.322.389.54.469.223.076.457.114.703.114.185 0 .336-.01.455-.029l.284-.056.341 1.505a3.41 3.41 0 0 1-.476.128 3.529 3.529 0 0 1-.774.071c-.474 0-.938-.102-1.392-.305a2.764 2.764 0 0 1-1.122-.931c-.294-.416-.441-.942-.441-1.576v-10.853Zm21.925-1.022h1.761v9.63c0 .995-.234 1.882-.703 2.664-.464.776-1.12 1.389-1.967 1.839-.848.445-1.842.668-2.983.668s-2.136-.223-2.983-.668c-.848-.45-1.506-1.063-1.974-1.839-.465-.782-.697-1.669-.697-2.664v-9.63h1.762v9.488c0 .71.156 1.343.469 1.896.312.55.757.983 1.335 1.3.582.313 1.278.469 2.088.469s1.506-.156 2.088-.469a3.299 3.299 0 0 0 1.335-1.3c.313-.553.469-1.186.469-1.896v-9.488Zm12.779 6.079-1.506.426a2.78 2.78 0 0 0-.419-.731 2.025 2.025 0 0 0-.739-.597c-.312-.156-.712-.234-1.2-.234-.668 0-1.224.154-1.669.461-.44.303-.66.689-.66 1.158 0 .417.151.746.454.987.303.242.777.443 1.421.604l1.619.398c.975.236 1.702.599 2.18 1.086.478.483.718 1.106.718 1.868 0 .625-.18 1.184-.54 1.676-.355.493-.852.881-1.492 1.165-.639.284-1.382.426-2.23.426-1.112 0-2.033-.241-2.763-.724-.729-.483-1.19-1.189-1.385-2.117l1.591-.397c.152.587.438 1.027.86 1.321.426.293.982.44 1.669.44.781 0 1.401-.166 1.861-.497.464-.336.696-.739.696-1.208 0-.378-.133-.696-.398-.951-.265-.261-.672-.455-1.222-.583l-1.818-.426c-.999-.237-1.733-.603-2.202-1.101-.464-.502-.696-1.129-.696-1.882 0-.615.173-1.16.519-1.633.35-.474.826-.845 1.427-1.115.606-.27 1.293-.405 2.06-.405 1.08 0 1.927.237 2.543.71a3.839 3.839 0 0 1 1.321 1.875Zm7.296 8.693c-1.052 0-1.958-.232-2.721-.696a4.677 4.677 0 0 1-1.754-1.96c-.407-.843-.611-1.823-.611-2.94 0-1.118.204-2.103.611-2.955.412-.857.985-1.524 1.719-2.003.738-.483 1.6-.724 2.585-.724.568 0 1.129.095 1.683.284a4.162 4.162 0 0 1 1.513.923c.455.422.817.98 1.087 1.676s.405 1.553.405 2.571v.711h-8.41v-1.449h6.705c0-.616-.123-1.165-.369-1.648a2.782 2.782 0 0 0-1.037-1.143c-.445-.28-.971-.419-1.577-.419-.668 0-1.245.165-1.733.497a3.264 3.264 0 0 0-1.115 1.278 3.762 3.762 0 0 0-.391 1.69v.966c0 .824.142 1.523.427 2.096a3.062 3.062 0 0 0 1.2 1.299c.511.294 1.105.441 1.783.441.44 0 .838-.062 1.193-.185.36-.128.67-.317.93-.568.261-.256.462-.573.604-.952l1.619.455a3.584 3.584 0 0 1-.859 1.448c-.403.412-.9.734-1.492.966-.592.228-1.257.341-1.995.341Zm7.066-.227v-10.909h1.62v1.648h.113c.199-.54.559-.978 1.08-1.314a3.18 3.18 0 0 1 1.761-.505c.123 0 .277.003.462.008.184.004.324.011.419.021v1.704a5.397 5.397 0 0 0-.391-.064 3.858 3.858 0 0 0-.632-.049 2.96 2.96 0 0 0-1.42.334 2.446 2.446 0 0 0-1.336 2.223V122h-1.676Zm15.169-8.466-1.506.426a2.753 2.753 0 0 0-.419-.731 2.03 2.03 0 0 0-.738-.597c-.313-.156-.713-.234-1.201-.234-.667 0-1.224.154-1.669.461-.44.303-.66.689-.66 1.158 0 .417.151.746.454.987.303.242.777.443 1.421.604l1.619.398c.975.236 1.702.599 2.18 1.086.479.483.718 1.106.718 1.868 0 .625-.18 1.184-.54 1.676-.355.493-.852.881-1.491 1.165-.64.284-1.383.426-2.231.426-1.112 0-2.033-.241-2.762-.724-.729-.483-1.191-1.189-1.385-2.117l1.591-.397c.151.587.438 1.027.859 1.321.426.293.982.44 1.669.44.781 0 1.402-.166 1.861-.497.464-.336.696-.739.696-1.208 0-.378-.133-.696-.398-.951-.265-.261-.672-.455-1.221-.583l-1.819-.426c-.999-.237-1.733-.603-2.201-1.101-.464-.502-.696-1.129-.696-1.882 0-.615.172-1.16.518-1.633.35-.474.826-.845 1.428-1.115.606-.27 1.292-.405 2.059-.405 1.08 0 1.927.237 2.543.71a3.832 3.832 0 0 1 1.321 1.875Zm9.171-6.079 4.318 12.244h.17l4.319-12.244h1.846L499.902 122h-1.818l-5.341-14.545h1.847Zm14.886 14.801a4.438 4.438 0 0 1-1.882-.391 3.228 3.228 0 0 1-1.342-1.143c-.332-.502-.497-1.108-.497-1.819 0-.625.123-1.131.369-1.519a2.61 2.61 0 0 1 .987-.924 5.216 5.216 0 0 1 1.364-.497 16.406 16.406 0 0 1 1.512-.27 72.061 72.061 0 0 1 1.613-.192c.416-.047.719-.125.909-.234.194-.109.291-.298.291-.568v-.057c0-.701-.192-1.245-.575-1.633-.379-.389-.954-.583-1.726-.583-.8 0-1.428.175-1.882.526-.455.35-.774.724-.959 1.122l-1.591-.568c.284-.663.663-1.179 1.136-1.549a4.266 4.266 0 0 1 1.563-.781 6.508 6.508 0 0 1 1.676-.227c.35 0 .753.042 1.207.128.46.08.902.248 1.329.504.43.256.788.642 1.072 1.158.284.516.426 1.207.426 2.073V122H512.8v-1.477h-.085c-.114.236-.303.49-.568.76-.266.27-.618.499-1.059.689-.44.189-.977.284-1.612.284Zm.256-1.506c.663 0 1.221-.13 1.676-.391.459-.26.805-.596 1.037-1.008.237-.412.355-.845.355-1.3v-1.534c-.071.085-.227.163-.469.234a7.636 7.636 0 0 1-.824.178c-.307.047-.608.09-.902.128a40.94 40.94 0 0 0-.703.085 6.396 6.396 0 0 0-1.221.277c-.374.123-.677.31-.909.561-.228.246-.341.582-.341 1.009 0 .582.215 1.022.646 1.321.436.293.987.44 1.655.44Zm9.48-13.295V122h-1.677v-14.545h1.677Zm9.945 10.085v-6.449h1.676V122h-1.676v-1.847h-.114a3.587 3.587 0 0 1-1.193 1.414c-.54.383-1.222.575-2.046.575-.682 0-1.288-.149-1.818-.447-.53-.303-.947-.758-1.25-1.364-.303-.611-.454-1.38-.454-2.308v-6.932h1.676v6.818c0 .796.222 1.43.667 1.903.45.474 1.023.711 1.719.711.417 0 .84-.107 1.271-.32.436-.213.801-.54 1.094-.98.298-.44.448-1.001.448-1.683Zm9.319 4.687c-1.051 0-1.957-.232-2.72-.696a4.677 4.677 0 0 1-1.754-1.96c-.407-.843-.611-1.823-.611-2.94 0-1.118.204-2.103.611-2.955.412-.857.985-1.524 1.719-2.003.738-.483 1.6-.724 2.585-.724.568 0 1.129.095 1.683.284a4.162 4.162 0 0 1 1.513.923c.455.422.817.98 1.087 1.676s.405 1.553.405 2.571v.711h-8.41v-1.449h6.705c0-.616-.123-1.165-.369-1.648a2.782 2.782 0 0 0-1.037-1.143c-.445-.28-.971-.419-1.577-.419-.668 0-1.245.165-1.733.497a3.264 3.264 0 0 0-1.115 1.278 3.762 3.762 0 0 0-.391 1.69v.966c0 .824.142 1.523.427 2.096a3.062 3.062 0 0 0 1.2 1.299c.511.294 1.105.441 1.782.441.441 0 .839-.062 1.194-.185.36-.128.67-.317.93-.568.26-.256.462-.573.604-.952l1.619.455a3.584 3.584 0 0 1-.859 1.448c-.403.412-.9.734-1.492.966-.592.228-1.257.341-1.996.341Zm12.92-14.772h2.102l4.943 12.073h.17l4.944-12.073h2.102V122h-1.648v-11.051h-.142L559.322 122h-1.591l-4.546-11.051h-.142V122h-1.647v-14.545Zm21.997 14.772c-.985 0-1.849-.234-2.592-.703-.739-.469-1.317-1.124-1.733-1.967-.412-.843-.618-1.828-.618-2.955 0-1.136.206-2.128.618-2.976.416-.847.994-1.505 1.733-1.974.743-.469 1.607-.703 2.592-.703.985 0 1.847.234 2.585.703.744.469 1.321 1.127 1.733 1.974.417.848.625 1.84.625 2.976 0 1.127-.208 2.112-.625 2.955-.412.843-.989 1.498-1.733 1.967-.738.469-1.6.703-2.585.703Zm0-1.505c.748 0 1.364-.192 1.847-.576.483-.383.84-.887 1.072-1.512a5.797 5.797 0 0 0 .348-2.032 5.85 5.85 0 0 0-.348-2.038c-.232-.63-.589-1.139-1.072-1.527-.483-.388-1.099-.582-1.847-.582s-1.364.194-1.847.582c-.483.388-.84.897-1.072 1.527a5.85 5.85 0 0 0-.348 2.038c0 .729.116 1.407.348 2.032.232.625.589 1.129 1.072 1.512.483.384 1.099.576 1.847.576Zm15.229-7.188-1.506.426a2.753 2.753 0 0 0-.419-.731 2.03 2.03 0 0 0-.738-.597c-.313-.156-.713-.234-1.201-.234-.667 0-1.224.154-1.669.461-.44.303-.66.689-.66 1.158 0 .417.151.746.454.987.303.242.777.443 1.421.604l1.619.398c.976.236 1.702.599 2.181 1.086.478.483.717 1.106.717 1.868 0 .625-.18 1.184-.54 1.676-.355.493-.852.881-1.491 1.165-.64.284-1.383.426-2.23.426-1.113 0-2.034-.241-2.763-.724-.729-.483-1.191-1.189-1.385-2.117l1.591-.397c.151.587.438 1.027.859 1.321.426.293.983.44 1.669.44.781 0 1.402-.166 1.861-.497.464-.336.696-.739.696-1.208 0-.378-.133-.696-.398-.951-.265-.261-.672-.455-1.221-.583l-1.819-.426c-.999-.237-1.732-.603-2.201-1.101-.464-.502-.696-1.129-.696-1.882a2.7 2.7 0 0 1 .518-1.633c.351-.474.826-.845 1.428-1.115.606-.27 1.292-.405 2.059-.405 1.08 0 1.928.237 2.543.71a3.832 3.832 0 0 1 1.321 1.875Zm7.466-2.443v1.42h-5.653v-1.42h5.653Zm-4.005-2.614h1.676v10.398c0 .473.068.829.206 1.065.142.232.322.389.54.469.222.076.456.114.703.114.184 0 .336-.01.454-.029l.284-.056.341 1.505a3.37 3.37 0 0 1-.476.128 3.516 3.516 0 0 1-.774.071c-.473 0-.937-.102-1.392-.305a2.764 2.764 0 0 1-1.122-.931c-.294-.416-.44-.942-.44-1.576v-10.853Z"/></svg>