<svg xmlns="http://www.w3.org/2000/svg" width="830" height="830" fill="none"><path fill="#fff" d="M0 0h830v830H0z"/><path fill="#97BF04" stroke="#fff" stroke-linejoin="round" stroke-width="2" d="M414.961 233.951a192.225 192.225 0 0 1 178.548 120.922l-62.478 24.955a124.943 124.943 0 0 0-116.056-78.6l-.014-67.277Z"/><path fill="#E8E748" stroke="#fff" stroke-linejoin="round" stroke-width="2" d="M593.581 355.052a192.224 192.224 0 0 1-8.617 160.906l-59.487-31.425a124.956 124.956 0 0 0 5.6-104.589l62.504-24.892Z"/><path fill="#EF8F21" stroke="#fff" stroke-linejoin="round" stroke-width="2" d="M584.874 516.128a192.228 192.228 0 0 1-169.721 102.266l-.053-67.278a124.94 124.94 0 0 0 110.318-66.473l59.456 31.485Z"/><path fill="#AF96C0" stroke="#fff" stroke-linejoin="round" stroke-width="2" d="M414.961 618.394a192.22 192.22 0 0 1-169.692-101.996l59.406-31.579a124.943 124.943 0 0 0 110.299 66.297l-.013 67.278Z"/><path fill="#642C87" stroke="#fff" stroke-linejoin="round" stroke-width="2" d="M245.179 516.228a192.227 192.227 0 0 1 5.041-189.033 192.216 192.216 0 0 1 164.513-93.244l.093 67.277a124.938 124.938 0 0 0-106.933 60.609 124.936 124.936 0 0 0-3.276 122.872l-59.438 31.519Z"/><path fill="#000" d="M162.712 92V70.182h14.702v3.803h-10.089v5.199h9.332v3.803h-9.332v5.21h10.131V92h-14.744Zm22.95.309c-1.044 0-1.974-.181-2.791-.543a4.493 4.493 0 0 1-1.939-1.63c-.469-.725-.703-1.627-.703-2.706 0-.91.167-1.673.501-2.29a4.048 4.048 0 0 1 1.363-1.492 6.62 6.62 0 0 1 1.961-.852 14.92 14.92 0 0 1 2.322-.405 60.18 60.18 0 0 0 2.301-.277c.583-.093 1.005-.228 1.268-.405.263-.178.394-.44.394-.788v-.065c0-.674-.213-1.196-.639-1.566-.419-.369-1.016-.553-1.79-.553-.817 0-1.467.18-1.949.543-.483.355-.803.802-.959 1.342l-4.198-.34c.213-.995.632-1.854 1.257-2.579.625-.731 1.431-1.293 2.419-1.683.994-.398 2.145-.597 3.451-.597.909 0 1.78.107 2.61.32a6.819 6.819 0 0 1 2.227.99 4.825 4.825 0 0 1 1.545 1.727c.376.696.564 1.53.564 2.503V92h-4.304v-2.27h-.127a4.628 4.628 0 0 1-1.055 1.354c-.44.383-.97.685-1.587.905-.618.213-1.332.32-2.142.32Zm1.3-3.132c.668 0 1.257-.132 1.768-.394.512-.27.913-.632 1.204-1.087.291-.454.437-.97.437-1.545v-1.736a2.428 2.428 0 0 1-.586.255c-.241.072-.515.139-.82.203-.306.057-.611.11-.916.16-.306.042-.583.081-.831.117a5.618 5.618 0 0 0-1.396.373c-.398.17-.707.401-.927.692-.22.284-.33.64-.33 1.066 0 .617.224 1.09.671 1.416.455.32 1.03.48 1.726.48Zm25.051-8.874-4.154.255a2.143 2.143 0 0 0-.459-.959 2.429 2.429 0 0 0-.926-.692c-.377-.178-.828-.266-1.353-.266-.703 0-1.297.149-1.779.447-.483.291-.725.682-.725 1.172 0 .39.156.72.469.99.312.27.849.487 1.609.65l2.961.597c1.591.327 2.777.852 3.558 1.577.782.724 1.172 1.676 1.172 2.855 0 1.072-.316 2.013-.948 2.823-.625.81-1.484 1.442-2.578 1.896-1.087.448-2.34.672-3.761.672-2.166 0-3.892-.451-5.177-1.353-1.279-.91-2.028-2.145-2.248-3.708l4.464-.234c.135.66.461 1.165.98 1.513.518.34 1.182.511 1.992.511.795 0 1.435-.153 1.918-.458.49-.313.738-.714.745-1.204-.007-.412-.181-.75-.522-1.012-.341-.27-.866-.476-1.576-.618l-2.834-.565c-1.598-.32-2.788-.873-3.569-1.661-.774-.789-1.161-1.794-1.161-3.015 0-1.052.284-1.957.852-2.717.575-.76 1.381-1.346 2.418-1.758 1.044-.412 2.266-.618 3.665-.618 2.067 0 3.693.437 4.879 1.31 1.194.874 1.89 2.064 2.088 3.57Zm10.688 12.017c-1.683 0-3.132-.341-4.346-1.023a6.998 6.998 0 0 1-2.791-2.92c-.654-1.263-.98-2.758-.98-4.484 0-1.683.326-3.16.98-4.432.653-1.271 1.573-2.262 2.759-2.972 1.193-.71 2.592-1.066 4.197-1.066 1.08 0 2.085.174 3.015.522a6.687 6.687 0 0 1 2.451 1.545c.703.689 1.25 1.556 1.64 2.6.391 1.036.586 2.25.586 3.643v1.246h-13.817v-2.812h9.545c0-.654-.142-1.232-.426-1.737a3.048 3.048 0 0 0-1.183-1.182c-.497-.291-1.076-.437-1.736-.437-.689 0-1.3.16-1.832.48a3.357 3.357 0 0 0-1.236 1.267 3.572 3.572 0 0 0-.458 1.758v2.674c0 .81.149 1.51.447 2.099.305.59.735 1.044 1.289 1.363.554.32 1.211.48 1.971.48.504 0 .966-.071 1.385-.213a2.873 2.873 0 0 0 1.076-.64 2.78 2.78 0 0 0 .682-1.043l4.197.276a5.735 5.735 0 0 1-1.31 2.642c-.654.746-1.499 1.329-2.536 1.748-1.029.412-2.219.618-3.569.618Zm24.81 0c-1.655 0-3.086-.352-4.294-1.055a7.215 7.215 0 0 1-2.78-2.962c-.654-1.271-.98-2.745-.98-4.42 0-1.691.326-3.168.98-4.433.653-1.271 1.58-2.258 2.78-2.961 1.208-.71 2.639-1.066 4.294-1.066 1.654 0 3.082.355 4.282 1.066 1.208.703 2.138 1.69 2.791 2.961.654 1.264.981 2.742.981 4.432 0 1.676-.327 3.15-.981 4.421a7.19 7.19 0 0 1-2.791 2.962c-1.2.703-2.628 1.055-4.282 1.055Zm.021-3.516c.753 0 1.381-.213 1.886-.64.504-.433.884-1.022 1.139-1.768.263-.745.395-1.594.395-2.546 0-.952-.132-1.8-.395-2.546-.255-.746-.635-1.335-1.139-1.769-.505-.433-1.133-.65-1.886-.65-.76 0-1.399.217-1.918.65-.511.434-.898 1.023-1.161 1.769-.256.746-.383 1.594-.383 2.546 0 .952.127 1.8.383 2.546.263.746.65 1.335 1.161 1.769.519.426 1.158.639 1.918.639Zm19.783-13.168v3.41h-10.099v-3.41h10.099ZM259.528 92V74.454c0-1.186.23-2.17.692-2.951a4.45 4.45 0 0 1 1.918-1.758c.809-.39 1.729-.586 2.759-.586.696 0 1.332.053 1.907.16.582.106 1.016.202 1.3.287l-.81 3.41a5.695 5.695 0 0 0-.661-.16 4.113 4.113 0 0 0-.788-.075c-.668 0-1.133.156-1.396.469-.262.305-.394.735-.394 1.29V92h-4.527Zm35.838-21.818V92h-3.985l-9.492-13.732h-.16V92h-4.613V70.182h4.049l9.417 13.721h.192V70.182h4.592Zm8.392 22.127c-1.044 0-1.975-.181-2.791-.543a4.493 4.493 0 0 1-1.939-1.63c-.469-.725-.703-1.627-.703-2.706 0-.91.167-1.673.5-2.29a4.06 4.06 0 0 1 1.364-1.492 6.614 6.614 0 0 1 1.96-.852 14.954 14.954 0 0 1 2.323-.405c.951-.1 1.718-.192 2.301-.277.582-.093 1.005-.228 1.268-.405.262-.178.394-.44.394-.788v-.065c0-.674-.213-1.196-.639-1.566-.419-.369-1.016-.553-1.79-.553-.817 0-1.467.18-1.95.543a2.504 2.504 0 0 0-.959 1.342l-4.197-.34c.213-.995.632-1.854 1.257-2.579.625-.731 1.431-1.293 2.418-1.683.995-.398 2.145-.597 3.452-.597.909 0 1.779.107 2.61.32.838.213 1.58.543 2.227.99a4.813 4.813 0 0 1 1.544 1.727c.377.696.565 1.53.565 2.503V92h-4.304v-2.27h-.128a4.608 4.608 0 0 1-1.054 1.354 4.89 4.89 0 0 1-1.588.905c-.618.213-1.331.32-2.141.32Zm1.3-3.132c.667 0 1.257-.132 1.768-.394.511-.27.913-.632 1.204-1.087.291-.454.437-.97.437-1.545v-1.736a2.446 2.446 0 0 1-.586.255 10.75 10.75 0 0 1-.821.203c-.305.057-.61.11-.916.16l-.831.117a5.61 5.61 0 0 0-1.395.373c-.398.17-.707.401-.927.692-.22.284-.33.64-.33 1.066 0 .617.223 1.09.671 1.416.454.32 1.03.48 1.726.48Zm26.106-13.54L325.443 92h-5.114l-5.721-16.364h4.794l3.399 11.709h.17l3.388-11.709h4.805ZM333.486 92V75.636h4.539V92h-4.539Zm2.28-18.473a2.464 2.464 0 0 1-1.736-.671c-.476-.455-.714-.998-.714-1.63 0-.625.238-1.161.714-1.609a2.443 2.443 0 0 1 1.736-.682c.675 0 1.25.228 1.726.682.483.448.724.984.724 1.609 0 .632-.241 1.175-.724 1.63-.476.447-1.051.671-1.726.671Zm13.266 24.95c-1.47 0-2.731-.202-3.782-.607-1.044-.398-1.875-.941-2.493-1.63a5.003 5.003 0 0 1-1.203-2.322l4.197-.565c.128.327.33.632.607.916.277.284.643.511 1.098.682.461.178 1.022.266 1.683.266.987 0 1.8-.241 2.439-.724.647-.476.97-1.275.97-2.397v-2.994h-.192a4.31 4.31 0 0 1-.895 1.29c-.398.404-.909.734-1.534.99s-1.371.384-2.237.384c-1.229 0-2.347-.285-3.356-.853-1.001-.575-1.8-1.452-2.397-2.631-.589-1.186-.884-2.685-.884-4.496 0-1.853.302-3.402.905-4.645.604-1.243 1.407-2.173 2.408-2.79a6.223 6.223 0 0 1 3.313-.928c.916 0 1.683.156 2.301.469.618.305 1.115.689 1.492 1.15.383.455.678.903.884 1.343h.171v-2.749h4.506V92.16c0 1.392-.341 2.557-1.023 3.494-.682.938-1.626 1.64-2.834 2.11-1.2.475-2.581.713-4.144.713Zm.096-10.12c.732 0 1.35-.182 1.854-.544.511-.37.902-.895 1.172-1.576.277-.69.415-1.513.415-2.472 0-.959-.135-1.79-.405-2.493-.27-.71-.66-1.26-1.172-1.651-.511-.39-1.132-.586-1.864-.586-.746 0-1.374.202-1.886.607-.511.398-.898.952-1.161 1.662s-.394 1.53-.394 2.46c0 .946.131 1.762.394 2.451.27.682.657 1.211 1.161 1.588.512.369 1.14.553 1.886.553Zm16.183 3.952c-1.044 0-1.975-.181-2.792-.543a4.49 4.49 0 0 1-1.938-1.63c-.469-.725-.704-1.627-.704-2.706 0-.91.167-1.673.501-2.29a4.05 4.05 0 0 1 1.364-1.492 6.603 6.603 0 0 1 1.96-.852 14.962 14.962 0 0 1 2.322-.405c.952-.1 1.719-.192 2.302-.277.582-.093 1.005-.228 1.267-.405.263-.178.394-.44.394-.788v-.065c0-.674-.213-1.196-.639-1.566-.419-.369-1.015-.553-1.789-.553-.817 0-1.467.18-1.95.543-.483.355-.803.802-.959 1.342l-4.197-.34c.213-.995.632-1.854 1.257-2.579.625-.731 1.431-1.293 2.418-1.683.994-.398 2.145-.597 3.452-.597.909 0 1.779.107 2.61.32a6.83 6.83 0 0 1 2.226.99 4.806 4.806 0 0 1 1.545 1.727c.377.696.565 1.53.565 2.503V92h-4.304v-2.27h-.128a4.611 4.611 0 0 1-1.055 1.354 4.88 4.88 0 0 1-1.587.905c-.618.213-1.332.32-2.141.32Zm1.299-3.132c.668 0 1.257-.132 1.769-.394a3.14 3.14 0 0 0 1.204-1.087c.291-.454.436-.97.436-1.545v-1.736a2.436 2.436 0 0 1-.585.255 10.75 10.75 0 0 1-.821.203c-.305.057-.611.11-.916.16l-.831.117a5.618 5.618 0 0 0-1.396.373c-.397.17-.706.401-.926.692-.221.284-.331.64-.331 1.066 0 .617.224 1.09.672 1.416.454.32 1.029.48 1.725.48Zm20.141-13.54v3.409h-9.855v-3.41h9.855Zm-7.618-3.921h4.539v15.256c0 .419.064.745.192.98.127.227.305.387.532.48a2.2 2.2 0 0 0 .81.138c.213 0 .426-.018.639-.054l.49-.096.714 3.378c-.227.07-.547.152-.959.245-.412.099-.913.16-1.502.18-1.094.043-2.053-.102-2.876-.436-.817-.334-1.453-.852-1.907-1.556-.455-.703-.679-1.59-.672-2.663V71.716ZM389.707 92V75.636h4.538V92h-4.538Zm2.28-18.473a2.466 2.466 0 0 1-1.737-.671c-.476-.455-.714-.998-.714-1.63 0-.625.238-1.161.714-1.609a2.445 2.445 0 0 1 1.737-.682c.674 0 1.25.228 1.726.682.483.448.724.984.724 1.609 0 .632-.241 1.175-.724 1.63a2.432 2.432 0 0 1-1.726.671Zm13.287 18.793c-1.655 0-3.086-.352-4.293-1.055a7.224 7.224 0 0 1-2.781-2.962c-.653-1.271-.98-2.745-.98-4.42 0-1.691.327-3.168.98-4.433.654-1.271 1.581-2.258 2.781-2.961 1.207-.71 2.638-1.066 4.293-1.066 1.655 0 3.083.355 4.283 1.066a7.112 7.112 0 0 1 2.791 2.961c.654 1.264.98 2.742.98 4.432 0 1.676-.326 3.15-.98 4.421a7.196 7.196 0 0 1-2.791 2.962c-1.2.703-2.628 1.055-4.283 1.055Zm.022-3.516c.752 0 1.381-.213 1.885-.64.504-.433.884-1.022 1.14-1.768.263-.745.394-1.594.394-2.546 0-.952-.131-1.8-.394-2.546-.256-.746-.636-1.335-1.14-1.769-.504-.433-1.133-.65-1.885-.65-.76 0-1.4.217-1.918.65-.511.434-.898 1.023-1.161 1.769-.256.746-.384 1.594-.384 2.546 0 .952.128 1.8.384 2.546.263.746.65 1.335 1.161 1.769.518.426 1.158.639 1.918.639Zm15.522-6.264V92h-4.539V75.636h4.326v2.887h.191a4.566 4.566 0 0 1 1.822-2.258c.852-.561 1.886-.842 3.1-.842 1.137 0 2.127.249 2.972.746.846.497 1.503 1.207 1.971 2.13.469.917.703 2.01.703 3.282V92h-4.538v-9.61c.007-1-.248-1.782-.767-2.343-.518-.568-1.232-.852-2.141-.852-.611 0-1.151.131-1.62.394a2.751 2.751 0 0 0-1.086 1.15c-.256.498-.387 1.098-.394 1.8Zm16.776 9.737a2.488 2.488 0 0 1-1.811-.746 2.49 2.49 0 0 1-.746-1.81c0-.697.249-1.293.746-1.79a2.488 2.488 0 0 1 1.811-.746c.682 0 1.278.248 1.79.745.511.498.767 1.094.767 1.79 0 .469-.121.899-.362 1.29a2.765 2.765 0 0 1-.927.926 2.445 2.445 0 0 1-1.268.341Zm0-11.463a2.488 2.488 0 0 1-1.811-.746 2.467 2.467 0 0 1-.746-1.81c0-.697.249-1.29.746-1.78a2.488 2.488 0 0 1 1.811-.746c.682 0 1.278.249 1.79.746.511.49.767 1.083.767 1.78 0 .475-.121.908-.362 1.299a2.672 2.672 0 0 1-.927.916c-.384.227-.806.34-1.268.34Zm26.788-10.632h4.613V84.35c0 1.59-.38 2.983-1.14 4.176-.753 1.193-1.807 2.124-3.164 2.791-1.357.66-2.937.99-4.741.99-1.811 0-3.395-.33-4.751-.99-1.357-.667-2.411-1.598-3.164-2.791-.753-1.193-1.13-2.585-1.13-4.176V70.18h4.613v13.776c0 .83.181 1.57.544 2.216a3.956 3.956 0 0 0 1.555 1.523c.668.37 1.445.554 2.333.554.895 0 1.673-.185 2.333-.554a3.885 3.885 0 0 0 1.545-1.523c.369-.647.554-1.385.554-2.216V70.182Zm21.938 10.12-4.155.256a2.14 2.14 0 0 0-.458-.959 2.425 2.425 0 0 0-.927-.692c-.376-.178-.827-.266-1.353-.266-.703 0-1.296.149-1.779.447-.483.291-.724.682-.724 1.172 0 .39.156.72.469.99.312.27.848.487 1.608.65l2.962.597c1.591.327 2.777.852 3.558 1.577.781.724 1.172 1.676 1.172 2.855 0 1.072-.316 2.013-.948 2.823-.625.81-1.485 1.442-2.578 1.896-1.087.448-2.341.672-3.761.672-2.166 0-3.892-.451-5.178-1.353-1.278-.91-2.027-2.145-2.247-3.708l4.463-.234c.135.66.462 1.165.98 1.513.519.34 1.183.511 1.993.511.795 0 1.434-.153 1.917-.458.49-.313.739-.714.746-1.204-.007-.412-.181-.75-.522-1.012-.341-.27-.866-.476-1.577-.618l-2.834-.565c-1.598-.32-2.787-.873-3.568-1.661-.775-.789-1.162-1.794-1.162-3.015 0-1.052.284-1.957.853-2.717.575-.76 1.381-1.346 2.418-1.758 1.044-.412 2.266-.618 3.665-.618 2.066 0 3.693.437 4.879 1.31 1.193.874 1.889 2.064 2.088 3.57Zm10.688 12.018c-1.683 0-3.132-.341-4.347-1.023a7.01 7.01 0 0 1-2.791-2.92c-.653-1.263-.98-2.758-.98-4.484 0-1.683.327-3.16.98-4.432.654-1.271 1.573-2.262 2.76-2.972 1.193-.71 2.592-1.066 4.197-1.066 1.08 0 2.084.174 3.015.522a6.69 6.69 0 0 1 2.45 1.545c.703.689 1.25 1.556 1.641 2.6.39 1.036.586 2.25.586 3.643v1.246h-13.818v-2.812h9.546c0-.654-.142-1.232-.426-1.737a3.061 3.061 0 0 0-1.183-1.182c-.497-.291-1.076-.437-1.736-.437-.689 0-1.3.16-1.833.48a3.371 3.371 0 0 0-1.236 1.267 3.582 3.582 0 0 0-.458 1.758v2.674c0 .81.149 1.51.448 2.099.305.59.735 1.044 1.289 1.363.554.32 1.211.48 1.971.48.504 0 .966-.071 1.385-.213a2.881 2.881 0 0 0 1.076-.64c.298-.283.525-.632.681-1.043l4.198.276a5.727 5.727 0 0 1-1.311 2.642c-.653.746-1.498 1.329-2.535 1.748-1.03.412-2.219.618-3.569.618ZM507.48 92V75.636h4.4v2.856h.171c.298-1.016.799-1.783 1.502-2.302.703-.525 1.513-.788 2.429-.788a6.725 6.725 0 0 1 1.427.16v4.027a5.908 5.908 0 0 0-.884-.17 7.94 7.94 0 0 0-1.033-.075c-.668 0-1.264.145-1.79.437-.518.284-.93.681-1.236 1.193-.298.511-.447 1.1-.447 1.768V92h-4.539Zm19.304 0V70.182h14.446v3.803h-9.833v5.199h8.875v3.803h-8.875V92h-4.613Zm23.72.32c-1.683 0-3.132-.341-4.346-1.023a7.006 7.006 0 0 1-2.792-2.92c-.653-1.263-.98-2.758-.98-4.484 0-1.683.327-3.16.98-4.432.654-1.271 1.574-2.262 2.76-2.972 1.193-.71 2.592-1.066 4.197-1.066 1.08 0 2.085.174 3.015.522a6.69 6.69 0 0 1 2.45 1.545c.703.689 1.25 1.556 1.641 2.6.391 1.036.586 2.25.586 3.643v1.246h-13.818v-2.812h9.546c0-.654-.142-1.232-.426-1.737a3.054 3.054 0 0 0-1.183-1.182c-.497-.291-1.076-.437-1.736-.437-.689 0-1.3.16-1.833.48a3.371 3.371 0 0 0-1.236 1.267 3.582 3.582 0 0 0-.458 1.758v2.674c0 .81.15 1.51.448 2.099.305.59.735 1.044 1.289 1.363.554.32 1.211.48 1.971.48.504 0 .966-.071 1.385-.213a2.881 2.881 0 0 0 1.076-.64c.298-.283.525-.632.682-1.043l4.197.276a5.735 5.735 0 0 1-1.31 2.642c-.654.746-1.499 1.329-2.536 1.748-1.03.412-2.219.618-3.569.618Zm17.93 0c-1.683 0-3.132-.341-4.347-1.023a7.004 7.004 0 0 1-2.791-2.92c-.653-1.263-.98-2.758-.98-4.484 0-1.683.327-3.16.98-4.432.653-1.271 1.573-2.262 2.759-2.972 1.194-.71 2.593-1.066 4.198-1.066 1.079 0 2.084.174 3.015.522a6.69 6.69 0 0 1 2.45 1.545c.703.689 1.25 1.556 1.641 2.6.39 1.036.586 2.25.586 3.643v1.246h-13.818v-2.812h9.546c0-.654-.143-1.232-.427-1.737a3.052 3.052 0 0 0-1.182-1.182c-.497-.291-1.076-.437-1.737-.437-.689 0-1.299.16-1.832.48a3.357 3.357 0 0 0-1.236 1.267 3.582 3.582 0 0 0-.458 1.758v2.674c0 .81.149 1.51.448 2.099.305.59.735 1.044 1.289 1.363.554.32 1.211.48 1.97.48a4.29 4.29 0 0 0 1.385-.213 2.873 2.873 0 0 0 1.076-.64c.299-.283.526-.632.682-1.043l4.198.276a5.727 5.727 0 0 1-1.311 2.642c-.653.746-1.498 1.329-2.535 1.748-1.03.412-2.22.618-3.569.618Zm16.502-.054c-1.243 0-2.369-.32-3.377-.959-1.002-.646-1.797-1.594-2.386-2.844-.583-1.257-.874-2.798-.874-4.623 0-1.876.302-3.434.905-4.677.604-1.25 1.407-2.184 2.408-2.802a6.17 6.17 0 0 1 3.313-.938c.917 0 1.68.156 2.291.469.618.305 1.115.689 1.491 1.15.384.455.675.903.874 1.343h.138v-8.203h4.528V92h-4.474v-2.62h-.192a5.838 5.838 0 0 1-.906 1.352c-.383.44-.884.806-1.502 1.097-.611.292-1.356.437-2.237.437Zm1.438-3.611c.732 0 1.35-.199 1.854-.597.511-.405.902-.97 1.172-1.694.277-.724.415-1.573.415-2.546 0-.973-.135-1.818-.405-2.535-.269-.718-.66-1.272-1.171-1.662-.512-.39-1.133-.586-1.865-.586-.746 0-1.374.202-1.885.607-.512.405-.899.966-1.162 1.683-.262.718-.394 1.549-.394 2.493 0 .952.132 1.794.394 2.525.27.724.657 1.293 1.162 1.705.511.404 1.139.607 1.885.607ZM598.064 92V70.182h4.538v8.203h.139c.198-.44.486-.888.862-1.342.384-.462.881-.846 1.492-1.151.618-.313 1.385-.469 2.301-.469 1.193 0 2.294.313 3.303.938 1.008.618 1.814 1.552 2.418 2.802.604 1.243.905 2.802.905 4.677 0 1.825-.294 3.366-.884 4.623-.582 1.25-1.378 2.198-2.386 2.845-1.002.639-2.124.958-3.367.958-.88 0-1.63-.145-2.247-.437-.611-.29-1.112-.656-1.503-1.097a5.557 5.557 0 0 1-.894-1.353h-.203V92h-4.474Zm4.442-8.182c0 .973.135 1.822.405 2.546.27.725.66 1.29 1.172 1.694.511.398 1.133.597 1.864.597.739 0 1.364-.203 1.875-.607.512-.412.899-.98 1.161-1.705.27-.731.405-1.573.405-2.525 0-.944-.131-1.775-.394-2.493-.263-.717-.65-1.278-1.161-1.683-.512-.405-1.14-.607-1.886-.607-.738 0-1.363.195-1.875.586-.504.39-.891.944-1.161 1.662-.27.717-.405 1.562-.405 2.535Zm19.211 8.49c-1.044 0-1.975-.18-2.791-.542a4.493 4.493 0 0 1-1.939-1.63c-.469-.725-.703-1.627-.703-2.706 0-.91.167-1.673.5-2.29a4.06 4.06 0 0 1 1.364-1.492 6.614 6.614 0 0 1 1.96-.852 14.954 14.954 0 0 1 2.323-.405c.951-.1 1.718-.192 2.301-.277.582-.093 1.005-.228 1.268-.405.262-.178.394-.44.394-.788v-.065c0-.674-.213-1.196-.639-1.566-.419-.369-1.016-.553-1.79-.553-.817 0-1.467.18-1.95.543a2.504 2.504 0 0 0-.959 1.342l-4.197-.34c.213-.995.632-1.854 1.257-2.579.625-.731 1.431-1.293 2.418-1.683.995-.398 2.145-.597 3.452-.597.909 0 1.779.107 2.61.32.838.213 1.58.543 2.227.99a4.813 4.813 0 0 1 1.544 1.727c.377.696.565 1.53.565 2.503V92h-4.304v-2.27h-.128a4.625 4.625 0 0 1-1.054 1.354 4.89 4.89 0 0 1-1.588.905c-.618.213-1.331.32-2.141.32Zm1.3-3.131c.667 0 1.257-.132 1.768-.394.511-.27.913-.632 1.204-1.087.291-.454.437-.97.437-1.545v-1.736a2.446 2.446 0 0 1-.586.255 10.75 10.75 0 0 1-.821.203c-.305.057-.61.11-.916.16l-.831.117a5.61 5.61 0 0 0-1.395.373c-.398.17-.707.401-.927.692-.22.284-.33.64-.33 1.066 0 .617.223 1.09.671 1.416.454.32 1.03.48 1.726.48Zm18.83 3.143c-1.677 0-3.118-.355-4.326-1.066a7.209 7.209 0 0 1-2.77-2.983c-.639-1.271-.958-2.734-.958-4.389 0-1.676.323-3.146.969-4.41a7.198 7.198 0 0 1 2.781-2.973c1.2-.717 2.627-1.076 4.282-1.076 1.428 0 2.678.26 3.75.778 1.073.519 1.921 1.246 2.546 2.184.625.937.97 2.038 1.034 3.302h-4.283c-.121-.816-.44-1.473-.959-1.97-.511-.505-1.182-.757-2.013-.757-.703 0-1.318.192-1.843.576-.519.376-.924.926-1.215 1.65-.291.725-.437 1.602-.437 2.632 0 1.044.143 1.932.427 2.663.291.732.699 1.29 1.225 1.673.525.384 1.14.575 1.843.575a2.98 2.98 0 0 0 1.395-.32 2.699 2.699 0 0 0 1.034-.926c.277-.412.458-.906.543-1.48h4.283c-.071 1.25-.412 2.35-1.023 3.302-.604.944-1.438 1.683-2.504 2.216-1.065.532-2.326.799-3.781.799Zm14.326-5.029.01-5.444h.661l5.241-6.21h5.21l-7.042 8.224h-1.076l-3.004 3.43ZM652.06 92V70.182h4.539V92h-4.539Zm10.228 0-4.816-7.127 3.026-3.207L667.604 92h-5.316Zm-433.856 19.091a2.227 2.227 0 0 0-1.037-1.676c-.606-.398-1.349-.597-2.23-.597-.644 0-1.207.104-1.69.313-.479.208-.853.494-1.122.859a2.056 2.056 0 0 0-.398 1.243c0 .388.092.722.277 1.001.189.275.431.505.724.689.294.18.602.329.924.448.322.113.617.206.887.277l1.478.397c.378.1.8.237 1.264.412.469.176.916.415 1.342.718a3.65 3.65 0 0 1 1.065 1.15c.28.469.42 1.044.42 1.726a3.83 3.83 0 0 1-.618 2.131c-.408.634-1.004 1.139-1.79 1.513-.781.374-1.731.561-2.848.561-1.042 0-1.944-.168-2.706-.505-.758-.336-1.354-.805-1.79-1.406-.431-.601-.675-1.3-.731-2.095h1.818c.047.549.232 1.004.554 1.364.326.355.738.62 1.236.795a4.981 4.981 0 0 0 1.619.256c.672 0 1.276-.109 1.811-.327.535-.222.959-.53 1.271-.923.313-.398.469-.862.469-1.392 0-.483-.135-.876-.405-1.179-.27-.303-.625-.549-1.065-.739a11.257 11.257 0 0 0-1.428-.497l-1.79-.511c-1.136-.327-2.036-.793-2.698-1.4-.663-.606-.995-1.399-.995-2.379 0-.814.22-1.524.661-2.13.445-.611 1.041-1.085 1.79-1.421.752-.341 1.593-.511 2.521-.511.937 0 1.771.168 2.5.504.729.331 1.307.786 1.733 1.364.431.577.658 1.233.682 1.967h-1.705Zm11.447 6.449v-6.449h1.676V122h-1.676v-1.847h-.113a3.582 3.582 0 0 1-1.194 1.414c-.539.383-1.221.575-2.045.575-.682 0-1.288-.149-1.818-.447-.531-.303-.947-.758-1.25-1.364-.303-.611-.455-1.38-.455-2.308v-6.932h1.676v6.818c0 .796.223 1.43.668 1.903.45.474 1.023.711 1.719.711.416 0 .84-.107 1.271-.32.436-.213.8-.54 1.094-.98.298-.44.447-1.001.447-1.683Zm4.974 4.46v-14.545h1.676v5.369h.142c.123-.19.293-.431.511-.725.223-.298.54-.563.952-.795.416-.237.98-.355 1.69-.355.919 0 1.728.23 2.429.689.701.459 1.248 1.11 1.641 1.953s.589 1.837.589 2.983c0 1.155-.196 2.157-.589 3.004-.393.843-.938 1.496-1.634 1.96-.696.46-1.498.689-2.407.689-.701 0-1.262-.116-1.684-.348-.421-.236-.745-.504-.973-.802a10.726 10.726 0 0 1-.525-.753h-.199V122h-1.619Zm1.647-5.455c0 .824.121 1.551.362 2.181.242.625.595 1.115 1.059 1.47.464.35 1.032.526 1.704.526.701 0 1.286-.185 1.755-.554.473-.374.828-.876 1.065-1.506.241-.635.362-1.34.362-2.117 0-.767-.118-1.458-.355-2.073-.232-.621-.585-1.111-1.058-1.471-.469-.364-1.058-.546-1.769-.546-.682 0-1.254.172-1.718.518-.464.341-.815.819-1.052 1.435-.236.61-.355 1.323-.355 2.137Zm15.291-5.454v1.42h-5.653v-1.42h5.653Zm-4.005-2.614h1.676v10.398c0 .473.069.829.206 1.065.142.232.322.389.54.469.222.076.457.114.703.114.184 0 .336-.01.454-.029l.284-.056.341 1.505a3.37 3.37 0 0 1-.476.128 3.516 3.516 0 0 1-.774.071c-.473 0-.937-.102-1.392-.305a2.764 2.764 0 0 1-1.122-.931c-.293-.416-.44-.942-.44-1.576v-10.853ZM264.313 122v-10.909h1.676V122h-1.676Zm.852-12.727c-.327 0-.608-.112-.845-.334a1.073 1.073 0 0 1-.348-.803c0-.312.116-.58.348-.802a1.19 1.19 0 0 1 .845-.334c.327 0 .606.111.838.334.237.222.355.49.355.802 0 .313-.118.58-.355.803a1.169 1.169 0 0 1-.838.334Zm8.638 1.818v1.42h-5.653v-1.42h5.653Zm-4.005-2.614h1.676v10.398c0 .473.068.829.206 1.065.142.232.322.389.539.469.223.076.457.114.704.114.184 0 .336-.01.454-.029l.284-.056.341 1.505a3.41 3.41 0 0 1-.476.128 3.516 3.516 0 0 1-.774.071c-.473 0-.937-.102-1.392-.305a2.764 2.764 0 0 1-1.122-.931c-.294-.416-.44-.942-.44-1.576v-10.853Zm8.437-1.022V122h-1.676v-14.545h1.676Zm7.644 14.772c-1.051 0-1.958-.232-2.72-.696a4.672 4.672 0 0 1-1.755-1.96c-.407-.843-.61-1.823-.61-2.94 0-1.118.203-2.103.61-2.955.412-.857.985-1.524 1.719-2.003.739-.483 1.601-.724 2.585-.724.569 0 1.13.095 1.684.284a4.159 4.159 0 0 1 1.512.923c.455.422.817.98 1.087 1.676s.405 1.553.405 2.571v.711h-8.409v-1.449h6.704c0-.616-.123-1.165-.369-1.648a2.775 2.775 0 0 0-1.037-1.143c-.445-.28-.971-.419-1.577-.419-.667 0-1.245.165-1.733.497a3.272 3.272 0 0 0-1.115 1.278 3.762 3.762 0 0 0-.39 1.69v.966c0 .824.142 1.523.426 2.096a3.074 3.074 0 0 0 1.2 1.299c.512.294 1.106.441 1.783.441.44 0 .838-.062 1.193-.185.36-.128.67-.317.93-.568.261-.256.462-.573.604-.952l1.619.455a3.573 3.573 0 0 1-.859 1.448 4.19 4.19 0 0 1-1.491.966c-.592.228-1.258.341-1.996.341Zm8.288-.113c-.35 0-.651-.126-.902-.377a1.229 1.229 0 0 1-.376-.902c0-.35.125-.651.376-.902a1.23 1.23 0 0 1 .902-.376c.351 0 .651.125.902.376s.377.552.377.902c0 .232-.06.445-.178.639a1.314 1.314 0 0 1-.462.469 1.213 1.213 0 0 1-.639.171Zm0-8.097a1.23 1.23 0 0 1-.902-.376 1.23 1.23 0 0 1-.376-.902c0-.351.125-.651.376-.902s.552-.377.902-.377c.351 0 .651.126.902.377s.377.551.377.902c0 .232-.06.445-.178.639a1.33 1.33 0 0 1-.462.469c-.189.113-.402.17-.639.17Zm14.428 8.182c-.833 0-1.583-.166-2.251-.497a4.178 4.178 0 0 1-1.605-1.364 3.713 3.713 0 0 1-.661-1.974h1.705c.066.658.365 1.202.895 1.633.535.426 1.174.639 1.917.639.597 0 1.127-.139 1.591-.419a2.956 2.956 0 0 0 1.101-1.15c.27-.493.405-1.049.405-1.669 0-.635-.14-1.201-.419-1.698a3.077 3.077 0 0 0-1.136-1.186c-.483-.289-1.035-.435-1.655-.44a4.542 4.542 0 0 0-1.371.206c-.469.137-.855.315-1.158.532l-1.647-.198.88-7.159h7.557v1.562h-6.079l-.512 4.29h.085a3.817 3.817 0 0 1 1.123-.59 4.255 4.255 0 0 1 1.406-.234c.89 0 1.683.213 2.379.639.701.422 1.25.999 1.648 1.733.402.734.604 1.572.604 2.514 0 .928-.209 1.757-.625 2.486a4.575 4.575 0 0 1-1.705 1.719c-.724.417-1.548.625-2.472.625Zm13.873-7.472c0-1.79.232-3.435.696-4.936a15.412 15.412 0 0 1 2.003-4.155h1.477c-.341.469-.66 1.047-.959 1.733a17.072 17.072 0 0 0-.774 2.252 21.26 21.26 0 0 0-.525 2.528 18.279 18.279 0 0 0-.185 2.578c0 1.127.109 2.271.327 3.431.217 1.16.511 2.237.88 3.231.37.995.782 1.804 1.236 2.429h-1.477a15.413 15.413 0 0 1-2.003-4.148c-.464-1.505-.696-3.153-.696-4.943Zm7.473-7.272 4.319 12.244h.17l4.318-12.244h1.847L335.254 122h-1.818l-5.341-14.545h1.846Zm16.25 14.772c-1.051 0-1.958-.232-2.72-.696a4.677 4.677 0 0 1-1.754-1.96c-.407-.843-.611-1.823-.611-2.94 0-1.118.204-2.103.611-2.955.412-.857.985-1.524 1.719-2.003.738-.483 1.6-.724 2.585-.724.568 0 1.129.095 1.683.284a4.17 4.17 0 0 1 1.513.923c.454.422.817.98 1.087 1.676.269.696.404 1.553.404 2.571v.711h-8.409v-1.449h6.705c0-.616-.123-1.165-.369-1.648a2.788 2.788 0 0 0-1.037-1.143c-.445-.28-.971-.419-1.577-.419-.668 0-1.245.165-1.733.497a3.264 3.264 0 0 0-1.115 1.278 3.75 3.75 0 0 0-.391 1.69v.966c0 .824.142 1.523.426 2.096a3.07 3.07 0 0 0 1.201 1.299c.511.294 1.105.441 1.782.441.441 0 .838-.062 1.194-.185.359-.128.669-.317.93-.568.26-.256.462-.573.604-.952l1.619.455a3.595 3.595 0 0 1-.859 1.448c-.403.412-.9.734-1.492.966-.592.228-1.257.341-1.996.341Zm7.067-.227v-10.909h1.619v1.648h.114c.199-.54.559-.978 1.08-1.314a3.177 3.177 0 0 1 1.761-.505c.123 0 .277.003.462.008.184.004.324.011.419.021v1.704a5.397 5.397 0 0 0-.391-.064 3.867 3.867 0 0 0-.632-.049c-.53 0-1.004.111-1.421.334-.411.217-.738.52-.98.909a2.454 2.454 0 0 0-.355 1.314V122h-1.676Zm8.853 4.091a3.7 3.7 0 0 1-.76-.071 2.028 2.028 0 0 1-.462-.128l.427-1.477c.407.104.767.142 1.079.113a1.29 1.29 0 0 0 .831-.419c.246-.246.471-.646.675-1.2l.312-.852-4.034-10.966h1.818l3.012 8.693h.113l3.012-8.693h1.818l-4.631 12.5c-.208.563-.466 1.03-.774 1.399a2.905 2.905 0 0 1-1.072.831c-.403.18-.857.27-1.364.27ZM382.505 122h-4.488v-14.545h4.687c1.411 0 2.618.291 3.622.873 1.004.578 1.773 1.409 2.309 2.493.535 1.08.802 2.372.802 3.878 0 1.515-.27 2.819-.81 3.913a5.759 5.759 0 0 1-2.358 2.514c-1.032.583-2.286.874-3.764.874Zm-2.727-1.562h2.614c1.202 0 2.199-.233 2.99-.697a4.29 4.29 0 0 0 1.768-1.981c.388-.857.583-1.877.583-3.061 0-1.174-.192-2.185-.576-3.033-.383-.852-.956-1.505-1.719-1.96-.762-.459-1.711-.689-2.848-.689h-2.812v11.421ZM392.164 122v-10.909h1.676V122h-1.676Zm.853-12.727c-.327 0-.609-.112-.846-.334a1.073 1.073 0 0 1-.348-.803c0-.312.116-.58.348-.802.237-.223.519-.334.846-.334.326 0 .606.111.838.334.236.222.355.49.355.802 0 .313-.119.58-.355.803a1.17 1.17 0 0 1-.838.334Zm8.751 1.818v1.42h-5.88v-1.42h5.88ZM397.649 122v-12.415c0-.625.147-1.146.44-1.562a2.735 2.735 0 0 1 1.144-.938 3.618 3.618 0 0 1 1.484-.312c.412 0 .748.033 1.009.099.26.066.454.128.582.185l-.483 1.449a7.58 7.58 0 0 0-.355-.107 2.178 2.178 0 0 0-.582-.064c-.554 0-.954.14-1.201.419-.241.28-.362.689-.362 1.229V122h-1.676Zm11.326-10.909v1.42h-5.88v-1.42h5.88ZM404.856 122v-12.415c0-.625.147-1.146.44-1.562a2.735 2.735 0 0 1 1.144-.938 3.618 3.618 0 0 1 1.484-.312c.412 0 .748.033 1.009.099.26.066.454.128.582.185l-.483 1.449a7.58 7.58 0 0 0-.355-.107 2.178 2.178 0 0 0-.582-.064c-.554 0-.954.14-1.201.419-.241.28-.362.689-.362 1.229V122h-1.676Zm6.468 0v-10.909h1.677V122h-1.677Zm.853-12.727c-.327 0-.609-.112-.845-.334a1.073 1.073 0 0 1-.348-.803c0-.312.116-.58.348-.802.236-.223.518-.334.845-.334.326 0 .606.111.838.334.237.222.355.49.355.802 0 .313-.118.58-.355.803a1.17 1.17 0 0 1-.838.334Zm8.325 12.954c-1.022 0-1.903-.241-2.642-.724-.738-.483-1.306-1.148-1.704-1.996-.398-.847-.597-1.816-.597-2.905 0-1.108.204-2.085.611-2.933.412-.852.985-1.517 1.719-1.996.738-.483 1.6-.724 2.585-.724.767 0 1.458.142 2.074.426.615.284 1.12.682 1.513 1.193.393.512.636 1.108.731 1.79h-1.676c-.128-.497-.412-.938-.852-1.321-.436-.388-1.023-.582-1.762-.582-.653 0-1.226.17-1.718.511-.488.336-.869.812-1.144 1.427-.27.611-.405 1.329-.405 2.152 0 .843.133 1.577.398 2.202.27.625.649 1.11 1.136 1.456.493.346 1.071.519 1.733.519.436 0 .831-.076 1.186-.228a2.432 2.432 0 0 0 1.428-1.676h1.676a3.886 3.886 0 0 1-.703 1.74 3.92 3.92 0 0 1-1.47 1.222c-.606.298-1.312.447-2.117.447Zm13.615-4.687v-6.449h1.677V122h-1.677v-1.847h-.113a3.587 3.587 0 0 1-1.193 1.414c-.54.383-1.222.575-2.046.575-.682 0-1.288-.149-1.818-.447-.53-.303-.947-.758-1.25-1.364-.303-.611-.455-1.38-.455-2.308v-6.932h1.677v6.818c0 .796.222 1.43.667 1.903.45.474 1.023.711 1.719.711.417 0 .84-.107 1.271-.32.436-.213.8-.54 1.094-.98.298-.44.447-1.001.447-1.683Zm6.423-10.085V122h-1.676v-14.545h1.676Zm7.814 3.636v1.42h-5.653v-1.42h5.653Zm-4.006-2.614h1.676v10.398c0 .473.069.829.206 1.065.142.232.322.389.54.469.223.076.457.114.703.114.185 0 .336-.01.455-.029l.284-.056.341 1.505a3.41 3.41 0 0 1-.476.128 3.529 3.529 0 0 1-.774.071c-.474 0-.938-.102-1.392-.305a2.764 2.764 0 0 1-1.122-.931c-.294-.416-.441-.942-.441-1.576v-10.853Zm10.107 7.387c0 1.789-.235 3.437-.703 4.943a15.29 15.29 0 0 1-1.996 4.148h-1.477c.341-.469.658-1.047.951-1.733.299-.682.559-1.43.782-2.245.222-.819.395-1.664.518-2.535.128-.876.192-1.736.192-2.578a18.55 18.55 0 0 0-.327-3.431 19.665 19.665 0 0 0-.881-3.231c-.369-.995-.781-1.804-1.235-2.429h1.477a15.248 15.248 0 0 1 1.996 4.155c.468 1.501.703 3.146.703 4.936Zm14.036-4.773v1.42h-5.654v-1.42h5.654Zm-4.006-2.614h1.676v10.398c0 .473.069.829.206 1.065.142.232.322.389.54.469.222.076.457.114.703.114.185 0 .336-.01.455-.029l.284-.056.341 1.505a3.449 3.449 0 0 1-.476.128 3.529 3.529 0 0 1-.774.071c-.474 0-.938-.102-1.392-.305a2.773 2.773 0 0 1-1.123-.931c-.293-.416-.44-.942-.44-1.576v-10.853Zm10.842 13.75c-.985 0-1.849-.234-2.593-.703-.738-.469-1.316-1.124-1.733-1.967-.412-.843-.618-1.828-.618-2.955 0-1.136.206-2.128.618-2.976.417-.847.995-1.505 1.733-1.974.744-.469 1.608-.703 2.593-.703.984 0 1.846.234 2.585.703.743.469 1.321 1.127 1.733 1.974.416.848.625 1.84.625 2.976 0 1.127-.209 2.112-.625 2.955-.412.843-.99 1.498-1.733 1.967-.739.469-1.601.703-2.585.703Zm0-1.505c.748 0 1.363-.192 1.846-.576a3.387 3.387 0 0 0 1.073-1.512 5.797 5.797 0 0 0 .348-2.032 5.85 5.85 0 0 0-.348-2.038 3.433 3.433 0 0 0-1.073-1.527c-.483-.388-1.098-.582-1.846-.582s-1.364.194-1.847.582c-.483.388-.84.897-1.072 1.527a5.85 5.85 0 0 0-.348 2.038c0 .729.116 1.407.348 2.032.232.625.589 1.129 1.072 1.512.483.384 1.099.576 1.847.576Zm18.212-13.267V122h-1.762v-12.699h-.085l-3.551 2.358v-1.79l3.636-2.414h1.762Zm10.433 7.272c0-1.79.232-3.435.696-4.936a15.412 15.412 0 0 1 2.003-4.155h1.477c-.341.469-.661 1.047-.959 1.733a17.072 17.072 0 0 0-.774 2.252 21.461 21.461 0 0 0-.526 2.528 18.426 18.426 0 0 0-.184 2.578c0 1.127.109 2.271.327 3.431.217 1.16.511 2.237.88 3.231.37.995.781 1.804 1.236 2.429h-1.477a15.413 15.413 0 0 1-2.003-4.148c-.464-1.505-.696-3.153-.696-4.943Zm7.473-7.272 4.318 12.244h.171l4.318-12.244h1.847L516.758 122h-1.818l-5.341-14.545h1.846Zm16.25 14.772c-1.051 0-1.958-.232-2.72-.696-.758-.469-1.342-1.122-1.754-1.96-.407-.843-.611-1.823-.611-2.94 0-1.118.204-2.103.611-2.955.412-.857.985-1.524 1.719-2.003.738-.483 1.6-.724 2.585-.724.568 0 1.129.095 1.683.284a4.17 4.17 0 0 1 1.513.923c.454.422.817.98 1.086 1.676.27.696.405 1.553.405 2.571v.711h-8.409v-1.449h6.705c0-.616-.123-1.165-.37-1.648a2.775 2.775 0 0 0-1.037-1.143c-.445-.28-.97-.419-1.576-.419-.668 0-1.245.165-1.733.497a3.264 3.264 0 0 0-1.115 1.278 3.75 3.75 0 0 0-.391 1.69v.966c0 .824.142 1.523.426 2.096a3.07 3.07 0 0 0 1.201 1.299c.511.294 1.105.441 1.782.441.441 0 .838-.062 1.193-.185.36-.128.67-.317.931-.568.26-.256.461-.573.604-.952l1.619.455a3.586 3.586 0 0 1-.86 1.448 4.18 4.18 0 0 1-1.491.966c-.592.228-1.257.341-1.996.341Zm7.067-.227v-10.909h1.619v1.648h.114c.199-.54.559-.978 1.079-1.314a3.18 3.18 0 0 1 1.762-.505c.123 0 .277.003.462.008.184.004.324.011.419.021v1.704a5.397 5.397 0 0 0-.391-.064 3.867 3.867 0 0 0-.632-.049c-.53 0-1.004.111-1.421.334a2.51 2.51 0 0 0-.98.909 2.454 2.454 0 0 0-.355 1.314V122h-1.676Zm8.853 4.091a3.7 3.7 0 0 1-.76-.071 2.012 2.012 0 0 1-.462-.128l.427-1.477c.407.104.767.142 1.079.113a1.29 1.29 0 0 0 .831-.419c.246-.246.471-.646.675-1.2l.312-.852-4.034-10.966h1.818l3.012 8.693h.113l3.012-8.693h1.818l-4.631 12.5c-.208.563-.466 1.03-.774 1.399a2.905 2.905 0 0 1-1.072.831c-.403.18-.857.27-1.364.27ZM559.521 122v-14.545h8.778v1.562h-7.017v4.915h6.562v1.562h-6.562v4.944h7.131V122h-8.892Zm14.936.256a4.443 4.443 0 0 1-1.883-.391 3.234 3.234 0 0 1-1.342-1.143c-.331-.502-.497-1.108-.497-1.819 0-.625.123-1.131.369-1.519a2.62 2.62 0 0 1 .988-.924 5.196 5.196 0 0 1 1.363-.497 16.367 16.367 0 0 1 1.513-.27c.663-.085 1.2-.149 1.612-.192.417-.047.72-.125.909-.234.194-.109.291-.298.291-.568v-.057c0-.701-.191-1.245-.575-1.633-.379-.389-.954-.583-1.726-.583-.8 0-1.427.175-1.882.526-.454.35-.774.724-.959 1.122l-1.59-.568c.284-.663.662-1.179 1.136-1.549a4.262 4.262 0 0 1 1.562-.781 6.516 6.516 0 0 1 1.677-.227c.35 0 .752.042 1.207.128.459.08.902.248 1.328.504.431.256.788.642 1.072 1.158.285.516.427 1.207.427 2.073V122h-1.677v-1.477h-.085c-.113.236-.303.49-.568.76-.265.27-.618.499-1.058.689-.441.189-.978.284-1.612.284Zm.255-1.506c.663 0 1.222-.13 1.676-.391.46-.26.805-.596 1.037-1.008.237-.412.355-.845.355-1.3v-1.534c-.071.085-.227.163-.468.234a7.743 7.743 0 0 1-.824.178c-.308.047-.609.09-.902.128-.289.033-.523.061-.703.085a6.406 6.406 0 0 0-1.222.277c-.374.123-.677.31-.909.561-.227.246-.341.582-.341 1.009 0 .582.216 1.022.646 1.321.436.293.988.44 1.655.44Zm15.531-7.216-1.506.426a2.753 2.753 0 0 0-.419-.731 2.02 2.02 0 0 0-.738-.597c-.313-.156-.713-.234-1.2-.234-.668 0-1.224.154-1.669.461-.441.303-.661.689-.661 1.158 0 .417.152.746.455.987.303.242.776.443 1.42.604l1.619.398c.976.236 1.702.599 2.181 1.086.478.483.717 1.106.717 1.868 0 .625-.18 1.184-.54 1.676-.355.493-.852.881-1.491 1.165-.639.284-1.383.426-2.23.426-1.113 0-2.034-.241-2.763-.724-.729-.483-1.191-1.189-1.385-2.117l1.591-.397c.151.587.438 1.027.859 1.321.426.293.983.44 1.669.44.782 0 1.402-.166 1.861-.497.464-.336.696-.739.696-1.208 0-.378-.132-.696-.398-.951-.265-.261-.672-.455-1.221-.583l-1.818-.426c-.999-.237-1.733-.603-2.202-1.101-.464-.502-.696-1.129-.696-1.882a2.7 2.7 0 0 1 .518-1.633c.351-.474.827-.845 1.428-1.115.606-.27 1.292-.405 2.06-.405 1.079 0 1.927.237 2.542.71a3.832 3.832 0 0 1 1.321 1.875Zm3.802 12.557c-.284 0-.538-.024-.76-.071a1.997 1.997 0 0 1-.462-.128l.426-1.477c.407.104.767.142 1.08.113.312-.028.589-.168.831-.419.246-.246.471-.646.674-1.2l.313-.852-4.034-10.966h1.818l3.011 8.693h.114l3.011-8.693h1.819l-4.631 12.5c-.208.563-.466 1.03-.774 1.399a2.9 2.9 0 0 1-1.073.831c-.402.18-.857.27-1.363.27Zm13.632-10.227c0 1.789-.234 3.437-.703 4.943a15.288 15.288 0 0 1-1.995 4.148h-1.478c.341-.469.658-1.047.952-1.733.298-.682.559-1.43.781-2.245.223-.819.396-1.664.519-2.535.128-.876.192-1.736.192-2.578a18.55 18.55 0 0 0-.327-3.431 19.765 19.765 0 0 0-.881-3.231c-.369-.995-.781-1.804-1.236-2.429h1.478a15.246 15.246 0 0 1 1.995 4.155c.469 1.501.703 3.146.703 4.936Z"/><path stroke="#94D13D" stroke-width="1.686" d="M559.691 225.204c-8.431 0-25.464 25.121-31.141 33.495l-5.678 8.374"/><path stroke="#6F58E9" stroke-width="1.686" d="M665.881 439.318c-8.431 0-38.737-1.644-48.839-2.191l-10.102-.548"/><path stroke="#2D99FE" stroke-width="1.686" d="M548.61 634.222c-8.43 0-24.078-26.006-29.294-34.675l-5.215-8.668"/><path stroke="#41ED41" stroke-width="1.686" d="M281.39 634.222c8.43 0 24.078-26.006 29.294-34.675l5.216-8.668"/><path stroke="#3BAE30" stroke-width="1.686" d="M198.519 300.993c8.431 0 34.437 15.647 43.106 20.863l8.669 5.216"/><path fill="#000" d="M575.378 215.544v14.545h-3.075v-11.626h-.086l-3.331 2.088v-2.727l3.601-2.28h2.891Zm5.254 12.855c-.469 0-.871-.166-1.208-.497a1.647 1.647 0 0 1-.497-1.208c0-.464.166-.861.497-1.193a1.663 1.663 0 0 1 1.208-.497c.454 0 .852.166 1.193.497.341.332.511.729.511 1.193 0 .313-.08.599-.241.86a1.845 1.845 0 0 1-.618.618 1.631 1.631 0 0 1-.845.227Zm0-7.138c-.469 0-.871-.166-1.208-.497a1.645 1.645 0 0 1-.497-1.207c0-.464.166-.86.497-1.187a1.663 1.663 0 0 1 1.208-.497c.454 0 .852.166 1.193.497.341.327.511.723.511 1.187 0 .317-.08.606-.241.866a1.772 1.772 0 0 1-.618.611 1.631 1.631 0 0 1-.845.227Zm15.117-5.717v14.545h-3.075v-11.626h-.086l-3.331 2.088v-2.727l3.601-2.28h2.891Zm8.72-.199c.748 0 1.468.125 2.159.376a4.97 4.97 0 0 1 1.861 1.201c.549.549.982 1.278 1.299 2.187.322.904.486 2.015.49 3.331 0 1.236-.139 2.339-.419 3.31-.274.966-.67 1.787-1.186 2.464a5.187 5.187 0 0 1-1.868 1.549c-.729.35-1.543.525-2.443.525-.97 0-1.827-.187-2.571-.561a4.842 4.842 0 0 1-1.797-1.541 4.789 4.789 0 0 1-.816-2.202h3.032c.119.53.367.942.746 1.236.379.289.847.433 1.406.433.947 0 1.667-.412 2.159-1.236.493-.828.741-1.962.746-3.402h-.099a3.484 3.484 0 0 1-.881 1.101 4.084 4.084 0 0 1-1.271.703 4.543 4.543 0 0 1-1.513.249c-.857 0-1.622-.201-2.294-.604a4.318 4.318 0 0 1-1.591-1.662c-.388-.705-.582-1.51-.582-2.414-.005-.976.22-1.845.674-2.607a4.758 4.758 0 0 1 1.904-1.79c.819-.435 1.77-.651 2.855-.646Zm.021 2.415a2.405 2.405 0 0 0-2.159 1.257 2.554 2.554 0 0 0-.313 1.285c0 .479.105.909.313 1.293.213.379.502.682.866.909a2.4 2.4 0 0 0 1.265.334 2.428 2.428 0 0 0 1.775-.746c.227-.237.405-.509.533-.817.128-.307.192-.634.192-.98a2.622 2.622 0 0 0-.327-1.264 2.493 2.493 0 0 0-.881-.923 2.348 2.348 0 0 0-1.264-.348Zm9.13 12.514a1.66 1.66 0 0 1-1.207-.497 1.658 1.658 0 0 1-.498-1.208c0-.464.166-.861.498-1.193a1.66 1.66 0 0 1 1.207-.497c.455 0 .852.166 1.193.497.341.332.512.729.512 1.193 0 .313-.081.599-.242.86a1.845 1.845 0 0 1-.618.618 1.629 1.629 0 0 1-.845.227Zm9.277.135c-1.221-.005-2.272-.306-3.153-.902-.876-.597-1.551-1.461-2.024-2.592-.469-1.132-.701-2.493-.696-4.084 0-1.586.234-2.938.703-4.056.473-1.117 1.148-1.967 2.024-2.549.881-.588 1.93-.881 3.146-.881 1.217 0 2.264.293 3.14.881.88.587 1.557 1.439 2.031 2.556.473 1.113.708 2.463.703 4.049 0 1.595-.237 2.959-.71 4.091-.469 1.131-1.141 1.995-2.017 2.592-.876.597-1.925.895-3.147.895Zm0-2.55c.834 0 1.499-.419 1.996-1.257.497-.838.743-2.095.739-3.771 0-1.104-.114-2.022-.341-2.756-.223-.734-.54-1.285-.952-1.655a2.077 2.077 0 0 0-1.442-.554c-.828 0-1.491.415-1.988 1.243-.497.829-.748 2.069-.753 3.722 0 1.117.111 2.05.334 2.798.227.743.547 1.302.958 1.676.412.369.895.554 1.449.554Zm20.657-.497v-.767a3.5 3.5 0 0 1 .37-1.605 2.923 2.923 0 0 1 1.086-1.179c.479-.298 1.061-.448 1.747-.448.696 0 1.281.147 1.755.441.478.293.838.686 1.079 1.179.246.487.37 1.025.37 1.612v.767c0 .582-.124 1.12-.37 1.612a2.874 2.874 0 0 1-1.086 1.172c-.479.298-1.061.447-1.748.447-.696 0-1.28-.149-1.754-.447a2.89 2.89 0 0 1-1.079-1.172 3.543 3.543 0 0 1-.37-1.612Zm2.067-.767v.767c0 .336.081.653.242.952.165.298.464.447.894.447.431 0 .725-.147.881-.44.161-.294.242-.613.242-.959v-.767c0-.346-.076-.668-.228-.966-.151-.298-.449-.447-.895-.447-.426 0-.722.149-.887.447-.166.298-.249.62-.249.966Zm-9.531-7.557v-.767c0-.587.125-1.124.376-1.612a2.918 2.918 0 0 1 1.087-1.179c.478-.294 1.056-.44 1.733-.44.701 0 1.288.146 1.761.44.474.293.834.686 1.08 1.179.246.488.369 1.025.369 1.612v.767c0 .587-.125 1.125-.376 1.612a2.877 2.877 0 0 1-1.087 1.172c-.473.289-1.056.433-1.747.433-.691 0-1.276-.146-1.754-.44a2.944 2.944 0 0 1-1.08-1.172 3.572 3.572 0 0 1-.362-1.605Zm2.081-.767v.767c0 .346.08.665.241.959.166.293.457.44.874.44.435 0 .731-.147.888-.44.161-.294.241-.613.241-.959v-.767c0-.346-.076-.668-.227-.966-.152-.298-.452-.447-.902-.447-.422 0-.713.151-.874.454a2.016 2.016 0 0 0-.241.959Zm-1.144 11.818 10-14.545h1.861l-10 14.545h-1.861Zm40.25 216.142v-2.216l5.178-4.794c.44-.426.81-.81 1.108-1.151.303-.341.533-.675.689-1.001a2.49 2.49 0 0 0 .234-1.073c0-.426-.097-.793-.291-1.101a1.915 1.915 0 0 0-.795-.717 2.504 2.504 0 0 0-1.144-.256c-.445 0-.833.09-1.165.27a1.86 1.86 0 0 0-.767.775c-.18.336-.27.736-.27 1.2h-2.919c0-.952.216-1.778.647-2.479.43-.701 1.034-1.243 1.811-1.626.776-.384 1.671-.576 2.684-.576 1.042 0 1.949.185 2.721.554.776.365 1.38.872 1.811 1.52.43.649.646 1.392.646 2.23 0 .55-.109 1.092-.327 1.627-.213.535-.594 1.129-1.143 1.782-.549.649-1.324 1.428-2.323 2.337l-2.123 2.081v.1h6.108v2.514h-10.37Zm14.395-1.691c-.469 0-.871-.165-1.207-.497a1.642 1.642 0 0 1-.498-1.207c0-.464.166-.862.498-1.193a1.656 1.656 0 0 1 1.207-.498c.454 0 .852.166 1.193.498.341.331.511.729.511 1.193 0 .312-.08.599-.241.859a1.827 1.827 0 0 1-.618.618 1.622 1.622 0 0 1-.845.227Zm0-7.137c-.469 0-.871-.166-1.207-.498a1.64 1.64 0 0 1-.498-1.207c0-.464.166-.859.498-1.186a1.66 1.66 0 0 1 1.207-.497c.454 0 .852.166 1.193.497.341.327.511.722.511 1.186 0 .317-.08.606-.241.867a1.77 1.77 0 0 1-.618.61 1.623 1.623 0 0 1-.845.228Zm15.117-5.718v14.546h-3.075v-11.627h-.085l-3.331 2.088v-2.727l3.6-2.28h2.891Zm8.834 14.745c-1.061 0-2.006-.183-2.834-.547-.824-.37-1.475-.876-1.953-1.52-.474-.649-.718-1.397-.732-2.245h3.097c.019.356.135.668.348.938.217.265.506.471.866.618.36.147.765.22 1.215.22a2.94 2.94 0 0 0 1.243-.249c.359-.165.641-.395.845-.688.203-.294.305-.633.305-1.016a1.7 1.7 0 0 0-.327-1.03c-.213-.303-.52-.54-.923-.71-.398-.171-.871-.256-1.42-.256h-1.357v-2.258h1.357c.464 0 .873-.081 1.228-.242.36-.161.64-.383.838-.667.199-.289.299-.625.299-1.009a1.746 1.746 0 0 0-.988-1.612 2.354 2.354 0 0 0-1.079-.235c-.417 0-.798.076-1.144.228a1.996 1.996 0 0 0-.83.632c-.209.274-.32.596-.334.966h-2.948c.014-.838.254-1.577.718-2.216.464-.639 1.089-1.139 1.875-1.499.79-.364 1.683-.547 2.677-.547 1.004 0 1.882.183 2.635.547.753.365 1.338.857 1.754 1.478.422.615.63 1.306.625 2.073.005.815-.248 1.494-.76 2.039-.506.544-1.167.89-1.981 1.037v.113c1.07.138 1.884.509 2.443 1.115.564.602.843 1.355.838 2.259a3.547 3.547 0 0 1-.717 2.209c-.478.644-1.139 1.15-1.982 1.52-.843.369-1.808.554-2.897.554Zm9.193-.015c-.468 0-.871-.165-1.207-.497a1.66 1.66 0 0 1-.497-1.207c0-.464.166-.862.497-1.193a1.658 1.658 0 0 1 1.207-.498c.455 0 .853.166 1.194.498.341.331.511.729.511 1.193 0 .312-.081.599-.242.859a1.833 1.833 0 0 1-.617.618 1.626 1.626 0 0 1-.846.227Zm9.001.015c-1.094 0-2.067-.178-2.919-.533-.848-.36-1.513-.85-1.996-1.47a3.346 3.346 0 0 1-.724-2.11c0-.606.137-1.162.412-1.669a3.705 3.705 0 0 1 1.136-1.271 3.734 3.734 0 0 1 1.605-.653v-.1a3.149 3.149 0 0 1-1.889-1.129 3.248 3.248 0 0 1-.725-2.095c0-.753.221-1.423.661-2.01.44-.592 1.044-1.056 1.811-1.392.772-.341 1.648-.512 2.628-.512.98 0 1.853.171 2.621.512.771.341 1.377.807 1.818 1.399.44.587.663 1.255.667 2.003a3.242 3.242 0 0 1-.738 2.095 3.173 3.173 0 0 1-1.875 1.129v.1c.582.094 1.11.312 1.583.653.479.336.857.76 1.137 1.271.284.507.428 1.063.433 1.669a3.382 3.382 0 0 1-.731 2.11c-.483.62-1.151 1.11-2.003 1.47-.848.355-1.818.533-2.912.533Zm0-2.259c.487 0 .914-.088 1.278-.263.365-.18.649-.426.852-.738.209-.318.313-.682.313-1.094 0-.422-.107-.793-.32-1.115a2.192 2.192 0 0 0-.866-.767 2.683 2.683 0 0 0-1.257-.284c-.469 0-.888.094-1.257.284-.37.184-.661.44-.874.767a2.008 2.008 0 0 0-.312 1.115c0 .412.101.776.305 1.094.204.312.49.558.859.738.37.175.796.263 1.279.263Zm0-6.499c.407 0 .769-.082 1.086-.248.318-.166.566-.395.746-.689.18-.294.27-.632.27-1.016a1.818 1.818 0 0 0-1.008-1.669 2.314 2.314 0 0 0-1.094-.248c-.412 0-.777.083-1.094.248a1.84 1.84 0 0 0-.746.675 1.858 1.858 0 0 0-.262.994c0 .384.089.722.269 1.016.18.294.429.523.746.689.317.166.68.248 1.087.248Zm20.387 5.831v-.767c0-.582.123-1.117.369-1.605a2.93 2.93 0 0 1 1.087-1.179c.478-.298 1.06-.447 1.747-.447.696 0 1.281.147 1.754.44.478.294.838.687 1.08 1.179.246.488.369 1.025.369 1.612v.767a3.56 3.56 0 0 1-.369 1.613 2.883 2.883 0 0 1-1.087 1.172c-.478.298-1.06.447-1.747.447-.696 0-1.281-.149-1.754-.447a2.893 2.893 0 0 1-1.08-1.172 3.56 3.56 0 0 1-.369-1.613Zm2.067-.767v.767c0 .337.08.654.241.952.166.298.464.448.895.448s.724-.147.881-.441a1.96 1.96 0 0 0 .241-.959v-.767c0-.345-.076-.667-.227-.966-.152-.298-.45-.447-.895-.447-.426 0-.722.149-.888.447a1.957 1.957 0 0 0-.248.966Zm-9.532-7.556v-.767c0-.588.126-1.125.377-1.613a2.935 2.935 0 0 1 1.086-1.179c.479-.293 1.056-.44 1.733-.44.701 0 1.288.147 1.762.44.473.294.833.687 1.079 1.179.247.488.37 1.025.37 1.613v.767c0 .587-.126 1.124-.377 1.612a2.88 2.88 0 0 1-1.086 1.172c-.474.288-1.056.433-1.748.433-.691 0-1.276-.147-1.754-.44a2.955 2.955 0 0 1-1.079-1.172 3.562 3.562 0 0 1-.363-1.605Zm2.081-.767v.767c0 .345.081.665.242.958.166.294.457.441.873.441.436 0 .732-.147.888-.441a1.96 1.96 0 0 0 .242-.958v-.767c0-.346-.076-.668-.228-.966-.151-.299-.452-.448-.902-.448-.421 0-.712.152-.873.455a2.014 2.014 0 0 0-.242.959Zm-1.143 11.818 10-14.546h1.861l-10 14.546h-1.861ZM564.623 647.337c-1.061 0-2.005-.182-2.834-.547-.824-.369-1.475-.876-1.953-1.519-.473-.649-.717-1.397-.731-2.245h3.096c.019.355.135.668.348.938.218.265.507.471.867.618.359.146.764.22 1.214.22.469 0 .883-.083 1.243-.249.36-.166.642-.395.845-.689.204-.293.306-.632.306-1.015 0-.389-.109-.732-.327-1.03-.213-.303-.521-.54-.923-.71-.398-.171-.872-.256-1.421-.256h-1.356v-2.259h1.356c.464 0 .874-.08 1.229-.241.36-.161.639-.384.838-.668.199-.289.298-.625.298-1.008 0-.365-.087-.684-.263-.959a1.734 1.734 0 0 0-.724-.653c-.308-.157-.668-.235-1.08-.235-.416 0-.797.076-1.143.227a1.995 1.995 0 0 0-.831.633 1.66 1.66 0 0 0-.334.965h-2.947c.014-.838.253-1.576.717-2.215.464-.64 1.089-1.139 1.875-1.499.791-.365 1.683-.547 2.678-.547 1.003 0 1.882.182 2.635.547.752.365 1.337.857 1.754 1.477.421.616.63 1.307.625 2.074.005.815-.249 1.494-.76 2.038-.507.545-1.167.891-1.982 1.037v.114c1.07.137 1.885.509 2.444 1.115.563.601.842 1.354.838 2.259a3.553 3.553 0 0 1-.718 2.208c-.478.644-1.138 1.151-1.981 1.52-.843.37-1.809.554-2.898.554Zm9.604-1.889a1.66 1.66 0 0 1-1.207-.497 1.642 1.642 0 0 1-.497-1.207c0-.464.165-.862.497-1.194a1.66 1.66 0 0 1 1.207-.497c.455 0 .852.166 1.193.497.341.332.512.73.512 1.194 0 .312-.081.598-.242.859a1.827 1.827 0 0 1-.618.618 1.629 1.629 0 0 1-.845.227Zm0-7.138c-.469 0-.871-.165-1.207-.497a1.64 1.64 0 0 1-.497-1.207c0-.464.165-.86.497-1.186a1.655 1.655 0 0 1 1.207-.497c.455 0 .852.165 1.193.497.341.326.512.722.512 1.186 0 .317-.081.606-.242.866-.156.256-.362.46-.618.611a1.62 1.62 0 0 1-.845.227Zm15.117-5.717v14.545h-3.075v-11.626h-.085l-3.331 2.088v-2.727l3.601-2.28h2.89Zm4.033 14.545 6.029-11.931v-.1h-7.024v-2.514h10.206v2.55l-6.037 11.995h-3.174Zm10.616.185c-.469 0-.872-.166-1.208-.497a1.66 1.66 0 0 1-.497-1.207c0-.464.166-.862.497-1.194a1.661 1.661 0 0 1 1.208-.497c.454 0 .852.166 1.193.497.341.332.511.73.511 1.194 0 .312-.08.598-.241.859a1.827 1.827 0 0 1-.618.618 1.634 1.634 0 0 1-.845.227Zm4.16-.185v-2.215l5.177-4.795c.441-.426.81-.809 1.108-1.15.303-.341.533-.675.689-1.002.157-.331.235-.688.235-1.072 0-.426-.097-.793-.292-1.101a1.915 1.915 0 0 0-.795-.717 2.484 2.484 0 0 0-1.143-.256c-.446 0-.834.09-1.165.27-.332.18-.587.438-.767.774-.18.336-.27.736-.27 1.201h-2.919c0-.952.215-1.778.646-2.479.431-.701 1.035-1.243 1.811-1.627.777-.383 1.672-.575 2.685-.575 1.042 0 1.948.185 2.72.554.777.365 1.38.871 1.811 1.52.431.649.646 1.392.646 2.23 0 .549-.108 1.091-.326 1.627-.213.535-.595 1.129-1.144 1.782-.549.649-1.323 1.428-2.322 2.337l-2.124 2.081v.099h6.108v2.514h-10.369Zm25.188-2.727v-.767c0-.582.123-1.117.369-1.605a2.938 2.938 0 0 1 1.087-1.179c.478-.298 1.061-.447 1.747-.447.696 0 1.281.146 1.754.44.479.293.839.686 1.08 1.179.246.488.369 1.025.369 1.612v.767c0 .583-.123 1.12-.369 1.612a2.864 2.864 0 0 1-1.087 1.172c-.478.299-1.06.448-1.747.448-.696 0-1.281-.149-1.754-.448a2.887 2.887 0 0 1-1.08-1.172 3.553 3.553 0 0 1-.369-1.612Zm2.067-.767v.767c0 .336.08.654.241.952.166.298.464.447.895.447s.725-.146.881-.44c.161-.294.241-.613.241-.959v-.767c0-.346-.075-.668-.227-.966-.151-.298-.45-.447-.895-.447-.426 0-.722.149-.888.447-.165.298-.248.62-.248.966Zm-9.531-7.557v-.767c0-.587.125-1.124.376-1.612a2.93 2.93 0 0 1 1.087-1.179c.478-.294 1.056-.44 1.733-.44.7 0 1.287.146 1.761.44.473.294.833.687 1.08 1.179.246.488.369 1.025.369 1.612v.767c0 .587-.126 1.125-.377 1.613a2.872 2.872 0 0 1-1.086 1.171c-.474.289-1.056.434-1.747.434-.692 0-1.276-.147-1.755-.441a2.949 2.949 0 0 1-1.079-1.172 3.556 3.556 0 0 1-.362-1.605Zm2.081-.767v.767c0 .346.08.666.241.959.166.294.457.44.874.44.435 0 .731-.146.887-.44a1.96 1.96 0 0 0 .242-.959v-.767c0-.345-.076-.667-.227-.966-.152-.298-.453-.447-.902-.447-.422 0-.713.151-.874.454a2.016 2.016 0 0 0-.241.959Zm-1.144 11.818 10-14.545h1.861l-10 14.545h-1.861Zm-434.855.305v-2.422l6.072-9.566h2.088v3.352h-1.235l-3.829 6.058v.114h8.63v2.464h-11.726ZM198.94 650v-3.295l.057-1.073v-10.177h2.884V650h-2.941Zm8.591-1.69c-.469 0-.872-.166-1.208-.498a1.643 1.643 0 0 1-.497-1.207c0-.464.166-.862.497-1.193a1.657 1.657 0 0 1 1.208-.497c.454 0 .852.165 1.193.497.341.331.511.729.511 1.193 0 .313-.08.599-.241.859a1.845 1.845 0 0 1-.618.618 1.625 1.625 0 0 1-.845.228Zm0-7.138c-.469 0-.872-.166-1.208-.497a1.647 1.647 0 0 1-.497-1.208c0-.464.166-.859.497-1.186a1.661 1.661 0 0 1 1.208-.497c.454 0 .852.166 1.193.497.341.327.511.722.511 1.186 0 .318-.08.606-.241.867a1.798 1.798 0 0 1-.618.611 1.634 1.634 0 0 1-.845.227Zm15.117-5.717V650h-3.076v-11.626h-.085l-3.331 2.088v-2.728l3.601-2.279h2.891ZM226.68 650l6.03-11.932v-.099h-7.024v-2.514h10.206v2.549L229.855 650h-3.175Zm10.616.185a1.66 1.66 0 0 1-1.207-.497 1.659 1.659 0 0 1-.497-1.208c0-.464.165-.862.497-1.193a1.655 1.655 0 0 1 1.207-.497c.455 0 .852.165 1.193.497.341.331.512.729.512 1.193a1.6 1.6 0 0 1-.242.859 1.827 1.827 0 0 1-.618.618 1.62 1.62 0 0 1-.845.228Zm4.16-.185v-2.216l5.178-4.794c.44-.426.81-.81 1.108-1.151.303-.34.533-.674.689-1.001.156-.331.234-.689.234-1.072 0-.427-.097-.793-.291-1.101a1.907 1.907 0 0 0-.796-.718 2.496 2.496 0 0 0-1.143-.255c-.445 0-.833.09-1.165.27-.331.18-.587.438-.767.774-.18.336-.27.736-.27 1.2h-2.919c0-.952.216-1.778.647-2.479a4.309 4.309 0 0 1 1.811-1.626c.776-.384 1.671-.575 2.684-.575 1.042 0 1.949.184 2.72.554.777.364 1.381.871 1.812 1.52.43.648.646 1.392.646 2.23 0 .549-.109 1.091-.327 1.626-.213.535-.594 1.129-1.143 1.783-.55.648-1.324 1.427-2.323 2.336l-2.123 2.081v.1h6.108V650h-10.37Zm25.189-2.727v-.767c0-.583.123-1.118.369-1.605a2.923 2.923 0 0 1 1.086-1.179c.479-.299 1.061-.448 1.748-.448.696 0 1.28.147 1.754.44.478.294.838.687 1.079 1.179a3.52 3.52 0 0 1 .37 1.613v.767c0 .582-.123 1.12-.37 1.612a2.874 2.874 0 0 1-1.086 1.172c-.478.298-1.061.447-1.747.447-.696 0-1.281-.149-1.755-.447a2.89 2.89 0 0 1-1.079-1.172 3.556 3.556 0 0 1-.369-1.612Zm2.066-.767v.767c0 .336.081.653.242.951.165.299.464.448.895.448s.724-.147.88-.44c.161-.294.242-.614.242-.959v-.767c0-.346-.076-.668-.227-.966-.152-.299-.45-.448-.895-.448-.426 0-.722.149-.888.448-.166.298-.249.62-.249.966Zm-9.531-7.557v-.767c0-.587.126-1.125.376-1.612a2.925 2.925 0 0 1 1.087-1.179c.478-.294 1.056-.441 1.733-.441.701 0 1.288.147 1.761.441.474.293.834.686 1.08 1.179.246.487.369 1.025.369 1.612v.767a3.47 3.47 0 0 1-.376 1.612 2.877 2.877 0 0 1-1.087 1.172c-.473.289-1.056.433-1.747.433-.691 0-1.276-.147-1.754-.44a2.944 2.944 0 0 1-1.08-1.172 3.575 3.575 0 0 1-.362-1.605Zm2.081-.767v.767c0 .346.081.665.241.959.166.293.457.44.874.44.436 0 .732-.147.888-.44.161-.294.241-.613.241-.959v-.767c0-.346-.075-.668-.227-.966-.151-.298-.452-.448-.902-.448-.421 0-.713.152-.874.455-.16.303-.241.623-.241.959ZM260.118 650l10-14.545h1.86l-10 14.545h-1.86ZM107.436 306.165c-1.004 0-1.899-.185-2.685-.554-.781-.369-1.401-.878-1.86-1.527-.46-.649-.699-1.392-.718-2.23h2.983c.033.563.27 1.02.71 1.371.441.35.964.525 1.57.525.483 0 .909-.106 1.278-.319.375-.218.666-.519.874-.902.213-.389.32-.834.32-1.336 0-.511-.109-.961-.327-1.349a2.31 2.31 0 0 0-.888-.909 2.614 2.614 0 0 0-1.3-.334c-.426 0-.84.088-1.242.263a2.247 2.247 0 0 0-.931.717l-2.734-.49.689-7.67h8.892v2.514h-6.357l-.376 3.643h.085c.256-.359.642-.658 1.158-.894a4.102 4.102 0 0 1 1.733-.356c.876 0 1.657.206 2.343.618a4.45 4.45 0 0 1 1.627 1.698c.398.715.594 1.539.589 2.471.005.98-.222 1.852-.682 2.614-.454.758-1.091 1.354-1.91 1.79-.814.431-1.761.646-2.841.646Zm9.375-1.889a1.66 1.66 0 0 1-1.207-.497 1.643 1.643 0 0 1-.497-1.208c0-.464.165-.861.497-1.193a1.66 1.66 0 0 1 1.207-.497c.455 0 .852.166 1.193.497.341.332.512.729.512 1.193 0 .313-.081.599-.242.86a1.845 1.845 0 0 1-.618.618 1.629 1.629 0 0 1-.845.227Zm0-7.138a1.66 1.66 0 0 1-1.207-.497 1.642 1.642 0 0 1-.497-1.207c0-.464.165-.86.497-1.187a1.66 1.66 0 0 1 1.207-.497c.455 0 .852.166 1.193.497.341.327.512.723.512 1.187 0 .317-.081.606-.242.866a1.772 1.772 0 0 1-.618.611 1.629 1.629 0 0 1-.845.227Zm14.166 9.027c-1.061 0-2.006-.182-2.834-.547-.824-.369-1.475-.876-1.953-1.52-.474-.648-.718-1.396-.732-2.244h3.097c.019.355.135.668.348.937.217.266.506.472.866.618.36.147.765.221 1.215.221a2.94 2.94 0 0 0 1.243-.249c.359-.166.641-.395.845-.689.203-.294.305-.632.305-1.016 0-.388-.109-.731-.327-1.029-.213-.303-.52-.54-.923-.711-.398-.17-.871-.255-1.42-.255h-1.357v-2.259h1.357c.464 0 .873-.08 1.228-.241.36-.161.64-.384.838-.668.199-.289.299-.625.299-1.008 0-.365-.088-.685-.263-.959a1.739 1.739 0 0 0-.725-.654 2.353 2.353 0 0 0-1.079-.234c-.417 0-.798.076-1.144.227a2.005 2.005 0 0 0-.83.632 1.66 1.66 0 0 0-.334.966h-2.948c.014-.838.254-1.576.718-2.216.464-.639 1.089-1.138 1.875-1.498.79-.365 1.683-.547 2.677-.547 1.004 0 1.882.182 2.635.547.753.364 1.338.857 1.754 1.477.422.616.63 1.307.625 2.074.005.814-.248 1.494-.76 2.038-.506.545-1.167.89-1.981 1.037v.114c1.07.137 1.884.509 2.443 1.115.564.601.843 1.354.838 2.258a3.547 3.547 0 0 1-.717 2.209c-.478.644-1.139 1.151-1.982 1.52s-1.808.554-2.897.554Zm7.807-.199v-2.216l5.177-4.794c.441-.426.81-.809 1.108-1.15.303-.341.533-.675.689-1.002.156-.331.235-.689.235-1.072 0-.426-.098-.793-.292-1.101a1.902 1.902 0 0 0-.795-.717 2.485 2.485 0 0 0-1.144-.256c-.445 0-.833.09-1.164.27-.332.18-.587.438-.767.774-.18.336-.27.736-.27 1.2h-2.919c0-.951.215-1.778.646-2.478.431-.701 1.035-1.243 1.811-1.627.777-.383 1.671-.575 2.685-.575 1.041 0 1.948.185 2.72.554.776.364 1.38.871 1.811 1.52.431.648.646 1.392.646 2.23 0 .549-.109 1.091-.326 1.626-.214.535-.595 1.13-1.144 1.783-.549.649-1.323 1.427-2.322 2.337l-2.124 2.081v.099h6.108v2.514h-10.369Zm14.394.185a1.66 1.66 0 0 1-1.207-.497 1.657 1.657 0 0 1-.497-1.208c0-.464.165-.861.497-1.193a1.66 1.66 0 0 1 1.207-.497c.455 0 .853.166 1.193.497.341.332.512.729.512 1.193 0 .313-.081.599-.242.86a1.845 1.845 0 0 1-.618.618 1.629 1.629 0 0 1-.845.227Zm9.001.014c-1.094 0-2.067-.178-2.919-.533-.848-.359-1.513-.85-1.996-1.47a3.342 3.342 0 0 1-.725-2.109c0-.606.138-1.163.412-1.669.28-.512.658-.935 1.137-1.272a3.759 3.759 0 0 1 1.605-.653v-.099c-.777-.157-1.406-.533-1.889-1.13a3.246 3.246 0 0 1-.725-2.095c0-.753.22-1.423.661-2.01.44-.592 1.044-1.056 1.811-1.392.772-.341 1.647-.511 2.628-.511.98 0 1.853.17 2.62.511.772.341 1.378.808 1.819 1.399.44.588.662 1.255.667 2.003-.005.8-.251 1.499-.739 2.095a3.174 3.174 0 0 1-1.875 1.13v.099a3.695 3.695 0 0 1 1.584.653c.479.337.857.76 1.137 1.272.284.506.428 1.063.433 1.669a3.378 3.378 0 0 1-.732 2.109c-.483.62-1.15 1.111-2.002 1.47-.848.355-1.819.533-2.912.533Zm0-2.258c.487 0 .913-.088 1.278-.263a2.09 2.09 0 0 0 .852-.739c.209-.317.313-.682.313-1.094 0-.421-.107-.793-.32-1.115a2.207 2.207 0 0 0-.866-.767 2.695 2.695 0 0 0-1.257-.284c-.469 0-.888.095-1.258.284-.369.185-.66.441-.873.767a2.01 2.01 0 0 0-.313 1.115c0 .412.102.777.306 1.094.203.313.49.559.859.739.37.175.796.263 1.279.263Zm0-6.499c.407 0 .769-.083 1.086-.249.317-.165.566-.395.746-.689.18-.293.27-.632.27-1.015a1.816 1.816 0 0 0-1.009-1.669 2.295 2.295 0 0 0-1.093-.249c-.412 0-.777.083-1.094.249a1.84 1.84 0 0 0-.746.675 1.856 1.856 0 0 0-.263.994c0 .383.09.722.27 1.015.18.294.429.524.746.689.317.166.679.249 1.087.249Zm20.387 5.831v-.767c0-.583.123-1.118.369-1.605a2.918 2.918 0 0 1 1.087-1.179c.478-.299 1.06-.448 1.747-.448.696 0 1.281.147 1.754.441.478.293.838.686 1.08 1.179.246.487.369 1.025.369 1.612v.767c0 .582-.123 1.12-.369 1.612a2.883 2.883 0 0 1-1.087 1.172c-.478.298-1.061.447-1.747.447-.696 0-1.281-.149-1.754-.447a2.886 2.886 0 0 1-1.08-1.172 3.556 3.556 0 0 1-.369-1.612Zm2.066-.767v.767c0 .336.081.653.242.952.166.298.464.447.895.447s.724-.147.88-.44c.161-.294.242-.613.242-.959v-.767c0-.346-.076-.668-.227-.966-.152-.298-.45-.447-.895-.447-.426 0-.722.149-.888.447-.166.298-.249.62-.249.966Zm-9.531-7.557v-.767c0-.587.126-1.125.377-1.612a2.923 2.923 0 0 1 1.086-1.179c.478-.294 1.056-.441 1.733-.441.701 0 1.288.147 1.762.441.473.293.833.686 1.079 1.179.246.487.369 1.025.369 1.612v.767c0 .587-.125 1.125-.376 1.612a2.864 2.864 0 0 1-1.087 1.172c-.473.289-1.056.433-1.747.433-.691 0-1.276-.146-1.754-.44a2.951 2.951 0 0 1-1.08-1.172 3.575 3.575 0 0 1-.362-1.605Zm2.081-.767v.767c0 .346.081.665.242.959.165.293.457.44.873.44.436 0 .732-.147.888-.44.161-.294.241-.613.241-.959v-.767c0-.346-.075-.668-.227-.966-.151-.298-.452-.447-.902-.447-.421 0-.712.151-.873.454a2.017 2.017 0 0 0-.242.959Zm-1.143 11.818 10-14.545h1.86l-10 14.545h-1.86Z"/><path fill="#333" d="M278.244 728.647c-1.015 0-1.921-.187-2.716-.56-.79-.374-1.418-.889-1.882-1.545-.465-.656-.707-1.408-.726-2.256h3.018c.033.57.273 1.032.718 1.387.446.354.975.531 1.588.531.489 0 .92-.108 1.294-.323.378-.22.673-.525.883-.913.216-.392.324-.843.324-1.35 0-.518-.11-.973-.331-1.366a2.335 2.335 0 0 0-.898-.919 2.637 2.637 0 0 0-1.315-.338c-.431 0-.85.088-1.257.266a2.277 2.277 0 0 0-.942.725l-2.766-.495.697-7.76h8.996v2.543h-6.431l-.381 3.686h.087c.258-.364.649-.666 1.171-.905.522-.24 1.106-.359 1.753-.359.886 0 1.677.208 2.371.625a4.5 4.5 0 0 1 1.646 1.717c.402.723.601 1.557.596 2.5.005.992-.225 1.873-.69 2.645a4.86 4.86 0 0 1-1.933 1.81c-.824.436-1.782.654-2.874.654Z"/><path fill="#642C87" d="M259.874 721.249c0-5.587-4.53-10.117-10.117-10.117-5.587 0-10.117 4.53-10.117 10.117 0 5.587 4.53 10.117 10.117 10.117 5.587 0 10.117-4.53 10.117-10.117Z"/><path fill="#333" d="M350.579 725.859v-2.45l6.143-9.678h2.113v3.391h-1.25l-3.873 6.129v.115h8.73v2.493h-11.863Zm7.063 2.587v-3.334l.058-1.085v-10.296h2.917v14.715h-2.975Z"/><path fill="#AF96C0" d="M337.806 721.249c0-5.587-4.53-10.117-10.117-10.117-5.588 0-10.117 4.53-10.117 10.117 0 5.587 4.529 10.117 10.117 10.117 5.587 0 10.117-4.53 10.117-10.117Z"/><path fill="#333" d="M434.173 728.647c-1.073 0-2.029-.184-2.867-.553-.834-.374-1.492-.886-1.976-1.538-.479-.656-.726-1.413-.74-2.27h3.133c.019.359.136.675.352.948.22.268.512.477.876.625a3.22 3.22 0 0 0 1.229.223c.474 0 .893-.084 1.257-.251.364-.168.65-.4.855-.697a1.76 1.76 0 0 0 .309-1.028c0-.393-.11-.74-.33-1.042-.216-.306-.527-.546-.934-.718-.403-.173-.882-.259-1.437-.259h-1.373v-2.285h1.373c.469 0 .884-.081 1.243-.244.364-.163.647-.388.848-.676.201-.292.301-.632.301-1.02a1.766 1.766 0 0 0-.998-1.631 2.387 2.387 0 0 0-1.092-.237c-.422 0-.808.077-1.157.23-.35.148-.63.361-.841.639a1.688 1.688 0 0 0-.338.978h-2.982c.015-.848.257-1.596.726-2.242.47-.647 1.102-1.152 1.897-1.516.8-.369 1.703-.554 2.709-.554 1.015 0 1.904.185 2.666.554.761.368 1.353.867 1.774 1.494.427.623.638 1.322.633 2.098.005.824-.252 1.512-.769 2.062-.513.551-1.181.901-2.005 1.049v.115c1.083.139 1.907.515 2.472 1.129.57.608.853 1.37.848 2.284a3.586 3.586 0 0 1-.726 2.235c-.484.652-1.152 1.164-2.005 1.538-.852.373-1.829.56-2.931.56Z"/><path fill="#EF8F21" d="M415.738 721.249c0-5.587-4.53-10.117-10.117-10.117-5.588 0-10.117 4.53-10.117 10.117 0 5.587 4.529 10.117 10.117 10.117 5.587 0 10.117-4.53 10.117-10.117Z"/><path fill="#333" d="M506.665 728.446v-2.242l5.239-4.85c.445-.431.819-.819 1.12-1.164.307-.345.539-.682.697-1.013.158-.335.238-.697.238-1.085 0-.431-.099-.802-.295-1.114a1.928 1.928 0 0 0-.805-.725 2.516 2.516 0 0 0-1.157-.259c-.45 0-.843.091-1.178.273a1.883 1.883 0 0 0-.776.783c-.182.34-.273.745-.273 1.214h-2.953c0-.962.218-1.798.654-2.507.435-.709 1.046-1.258 1.832-1.646.785-.388 1.691-.582 2.716-.582 1.054 0 1.971.187 2.752.561.785.369 1.396.881 1.832 1.537.436.657.654 1.409.654 2.257 0 .555-.11 1.104-.331 1.645-.215.541-.601 1.143-1.156 1.804-.556.656-1.339 1.444-2.35 2.364l-2.148 2.105v.1h6.179v2.544h-10.491Z"/><path fill="#E8E748" d="M493.67 721.249c0-5.587-4.53-10.117-10.117-10.117-5.588 0-10.117 4.53-10.117 10.117 0 5.587 4.529 10.117 10.117 10.117 5.587 0 10.117-4.53 10.117-10.117Z"/><path fill="#333" d="M591 713.731v14.715h-3.112v-11.762h-.086l-3.37 2.112v-2.759l3.643-2.306H591Z"/><path fill="#5F8301" d="M571.602 721.249c0-5.587-4.53-10.117-10.117-10.117-5.588 0-10.117 4.53-10.117 10.117 0 5.587 4.529 10.117 10.117 10.117 5.587 0 10.117-4.53 10.117-10.117Z"/></svg>