<svg width="234" height="234" viewBox="0 0 234 234" fill="none" xmlns="http://www.w3.org/2000/svg">
<path fill-rule="evenodd" clip-rule="evenodd" d="M177.197 122.637C151.533 122.637 130.729 143.442 130.729 169.107C130.729 194.771 151.533 215.576 177.197 215.576C202.861 215.576 223.665 194.771 223.665 169.107C223.665 143.442 202.861 122.637 177.197 122.637ZM56.4683 122.641C30.8048 122.641 10 143.442 10 169.107C10 194.771 30.8048 215.576 56.4683 215.576C82.1329 215.576 102.939 194.771 102.939 169.107C102.939 143.442 82.1329 122.641 56.4683 122.641ZM163.3 64.5508C163.3 90.2164 142.496 111.023 116.833 111.023C91.1681 111.023 70.3643 90.2164 70.3643 64.5508C70.3643 38.8903 91.1681 18.0835 116.833 18.0835C142.496 18.0835 163.3 38.8903 163.3 64.5508Z" fill="black"/>
</svg>
